{"glyphs":{"0":{"ha":576,"x_min":49,"x_max":532,"o":"m 49 358 q 65 494 49 422 q 115 628 81 567 q 205 731 150 690 q 336 772 260 772 q 406 752 376 772 q 458 699 436 732 q 494 624 481 665 q 517 539 508 582 q 528 456 525 496 q 532 388 532 417 q 523 267 532 335 q 489 141 514 200 q 420 41 464 82 q 307 0 376 0 q 187 33 236 0 q 107 119 138 67 q 63 235 76 171 q 49 358 49 299 m 449 388 q 447 429 449 401 q 440 491 444 457 q 426 560 435 525 q 406 624 418 594 q 376 671 393 653 q 336 689 358 689 q 292 663 314 689 q 253 592 271 638 q 223 476 233 540 q 213 343 213 411 q 216 279 213 322 q 230 192 219 236 q 260 116 240 149 q 311 83 279 83 q 381 119 354 83 q 423 206 408 156 q 443 307 438 256 q 449 388 449 358 z "},"1":{"ha":235,"x_min":42,"x_max":217,"o":"m 89 0 q 42 46 42 0 q 58 303 51 175 q 65 560 65 431 q 64 642 65 617 q 60 675 63 667 q 49 704 49 686 q 62 733 50 721 q 90 744 74 744 q 142 726 121 744 q 176 678 163 708 q 199 613 190 649 q 210 540 207 576 q 215 472 214 504 q 217 419 217 440 q 215 362 217 400 q 210 277 214 324 q 197 181 206 231 q 174 92 189 132 q 139 26 160 51 q 89 0 118 0 z "},"2":{"ha":503,"x_min":22,"x_max":486,"o":"m 324 750 q 386 740 357 750 q 438 710 415 729 q 473 664 460 692 q 486 601 486 636 q 471 517 486 563 q 431 424 456 471 q 374 328 406 376 q 308 237 342 281 q 241 154 274 193 q 183 86 208 115 q 229 92 200 88 q 288 103 258 97 q 344 117 318 110 q 379 132 369 124 q 404 139 390 139 q 433 127 421 139 q 446 97 446 115 q 426 65 446 79 q 377 39 407 50 q 310 20 347 28 q 240 8 274 13 q 178 2 206 4 q 136 0 150 0 q 99 3 119 0 q 63 13 79 6 q 34 33 46 19 q 22 68 22 46 q 56 150 22 100 q 158 289 89 200 q 240 396 199 340 q 314 503 282 451 q 356 587 346 557 q 367 632 367 617 q 354 659 367 651 q 324 667 342 667 q 252 649 296 667 q 157 583 208 631 q 129 572 143 572 q 99 585 111 572 q 88 614 88 597 q 101 646 88 633 q 215 723 157 696 q 324 750 274 750 z "},"3":{"ha":485,"x_min":22,"x_max":451,"o":"m 75 406 q 70 413 71 413 q 69 415 69 414 q 67 423 67 422 q 67 426 67 424 l 67 431 q 164 567 118 514 q 247 657 210 621 q 186 655 217 656 q 125 654 156 654 q 93 656 111 654 q 59 664 75 658 q 33 681 43 669 q 22 711 22 692 q 34 741 22 729 q 64 753 46 753 q 94 740 82 753 q 113 738 100 739 q 149 738 125 738 q 256 741 201 738 q 363 750 310 744 q 365 751 364 751 q 406 735 390 750 q 422 696 422 719 q 401 635 422 669 q 351 567 381 600 q 289 503 321 533 q 235 457 257 474 q 315 424 276 446 q 385 372 354 403 q 433 301 415 340 q 451 215 451 263 q 431 124 451 164 q 375 56 410 83 q 296 15 340 29 q 203 0 251 0 q 101 25 146 0 q 78 42 92 31 q 51 67 64 53 q 31 95 39 81 q 22 122 22 110 q 35 152 22 140 q 64 164 47 164 q 100 143 90 164 q 201 83 133 83 q 242 94 225 83 q 269 122 258 106 q 283 160 279 139 q 288 201 288 181 q 278 263 288 229 q 247 324 268 296 q 192 370 226 351 q 108 389 158 389 q 81 402 85 400 q 75 406 76 404 z "},"4":{"ha":494,"x_min":-6,"x_max":444,"o":"m 325 771 q 347 778 336 778 q 369 771 358 778 q 396 726 385 761 q 415 643 407 692 q 429 539 424 594 q 438 433 435 483 q 443 341 442 382 q 444 282 444 300 q 442 210 444 257 q 431 116 440 163 q 399 35 421 69 q 338 0 378 0 q 310 10 325 0 q 296 43 296 24 q 297 107 296 44 q 297 267 297 169 l 297 279 q 250 280 279 279 q 187 285 221 281 q 119 296 153 289 q 57 315 85 303 q 12 346 29 328 q -6 390 -6 364 q 12 444 -6 414 q 57 509 29 475 q 119 578 85 543 q 188 644 154 613 q 250 700 221 675 q 296 739 279 725 q 308 756 300 746 q 322 769 315 767 l 325 771 m 118 382 q 208 365 163 368 q 297 363 253 363 q 293 599 297 478 q 235 526 264 561 q 182 461 206 490 q 146 417 163 438 q 118 382 129 397 z "},"5":{"ha":504,"x_min":39,"x_max":481,"o":"m 325 214 q 272 342 325 299 q 138 385 219 385 q 92 396 111 386 q 62 422 74 406 q 44 460 50 439 q 39 503 39 481 q 46 560 39 528 q 64 626 53 593 q 90 688 75 660 q 124 733 106 717 q 172 760 139 753 q 263 768 204 768 q 323 767 293 768 q 382 763 353 765 q 409 748 399 760 q 419 721 419 736 q 406 690 419 701 q 374 679 393 679 q 319 683 346 682 q 264 685 292 685 q 213 683 231 685 q 189 679 196 681 q 163 468 163 578 q 274 452 217 467 q 376 408 331 438 q 451 332 422 378 q 481 222 481 286 q 462 133 481 174 q 410 63 443 93 q 335 17 378 33 q 246 0 293 0 q 151 22 190 0 q 86 81 111 44 q 50 165 61 118 q 39 263 39 213 q 47 301 39 283 q 82 318 56 318 q 111 306 99 318 q 124 278 124 294 l 124 274 q 122 261 122 271 q 128 199 122 231 q 147 142 133 168 q 185 100 161 117 q 244 83 208 83 q 282 97 267 83 q 307 131 297 111 q 321 174 317 151 q 325 214 325 196 z "},"6":{"ha":513,"x_min":51,"x_max":494,"o":"m 336 753 q 368 741 356 753 q 381 711 381 729 q 368 682 381 694 q 339 669 356 669 q 300 651 318 669 q 269 603 282 632 q 245 540 256 575 q 228 471 235 504 q 217 409 221 438 q 211 365 213 381 q 274 405 239 389 q 351 421 308 421 q 414 408 388 421 q 458 374 440 396 q 485 323 476 351 q 494 261 494 294 q 478 169 494 215 q 434 85 463 122 q 365 24 406 47 q 275 0 325 0 q 169 31 211 0 q 100 110 126 63 q 63 216 74 158 q 51 325 51 274 q 67 462 51 388 q 117 601 82 536 q 206 708 151 665 q 336 753 260 751 m 411 261 q 399 315 411 293 q 351 338 386 338 q 303 326 326 338 q 263 299 281 315 q 231 267 244 283 q 211 240 218 251 q 216 203 213 229 q 227 151 219 178 q 247 103 235 124 q 275 83 258 83 q 332 101 307 83 q 374 144 357 118 q 401 202 392 171 q 411 261 411 233 z "},"7":{"ha":417,"x_min":14,"x_max":400,"o":"m 275 656 q 190 651 232 656 q 147 647 167 649 q 111 646 128 646 q 78 649 94 646 q 47 659 61 651 q 23 679 32 667 q 14 711 14 692 q 26 740 14 728 q 56 753 38 753 q 76 747 67 753 q 92 731 86 740 q 99 730 94 731 q 111 729 104 729 l 118 729 q 149 731 133 731 q 183 735 165 732 q 264 739 229 739 q 310 735 290 739 q 343 718 329 731 q 388 651 375 692 q 400 563 400 610 q 388 449 400 510 q 355 326 375 388 q 308 208 335 265 q 254 107 282 151 q 125 0 189 0 q 96 13 108 0 q 83 42 83 25 q 89 61 83 50 q 124 137 106 90 q 162 238 143 183 q 199 351 181 292 q 233 467 218 411 q 260 573 249 524 q 275 656 271 622 z "},"8":{"ha":554,"x_min":42,"x_max":518,"o":"m 296 763 q 363 751 331 763 q 419 717 394 739 q 459 666 444 696 q 474 600 474 636 q 438 500 474 547 q 350 406 401 453 l 371 389 q 426 344 400 367 q 473 299 453 322 q 506 249 493 275 q 518 194 518 224 q 487 110 518 146 q 411 49 456 74 q 316 13 367 25 q 225 0 265 0 q 159 8 192 0 q 101 32 126 15 q 58 75 75 49 q 42 139 42 101 q 55 206 42 174 q 89 267 68 238 q 135 324 110 297 q 183 372 160 350 q 140 416 161 393 q 101 465 118 439 q 74 519 85 490 q 64 581 64 549 q 85 659 64 625 q 140 716 107 693 q 215 751 174 739 q 296 763 257 763 m 125 139 q 135 110 125 121 q 162 94 146 100 q 195 85 178 88 q 225 83 213 83 q 315 106 276 83 q 354 188 354 129 q 320 250 353 217 q 247 317 288 283 q 210 282 231 303 q 170 238 189 261 q 138 188 151 214 q 125 139 125 163 m 390 603 q 360 659 389 639 q 299 679 332 679 q 263 669 278 679 q 240 645 249 660 q 227 612 231 631 q 224 575 224 593 q 241 517 224 544 q 286 461 258 489 q 326 499 307 481 q 360 536 346 518 q 383 571 375 554 q 390 603 392 588 z "},"9":{"ha":519,"x_min":29,"x_max":472,"o":"m 185 83 q 224 102 207 83 q 255 149 242 121 q 278 213 268 178 q 296 282 289 249 q 307 344 303 315 q 313 388 311 372 q 250 348 285 364 q 172 332 215 332 q 110 344 138 332 q 65 379 83 357 q 38 430 47 401 q 29 492 29 458 q 45 584 29 538 q 90 668 61 631 q 158 729 118 706 q 249 753 199 753 q 356 722 313 753 q 424 642 399 690 q 461 538 450 594 q 472 428 472 481 q 457 291 472 365 q 407 152 442 217 q 319 44 372 88 q 188 0 265 1 q 156 12 168 0 q 143 42 143 24 q 156 71 143 58 q 185 83 168 83 m 313 513 q 308 549 311 524 q 297 602 304 575 q 277 649 289 629 q 249 669 265 669 q 192 652 218 669 q 149 608 167 635 q 122 551 132 582 q 113 492 113 519 q 125 438 113 461 q 172 415 138 415 q 220 426 197 415 q 261 453 243 438 q 292 486 279 469 q 313 513 306 503 z "},"\u0000":{"ha":0,"x_min":0,"x_max":0,"o":""},"\r":{"ha":347,"x_min":0,"x_max":0,"o":""}," ":{"ha":347,"x_min":0,"x_max":0,"o":""},"a":{"ha":533,"x_min":21,"x_max":507,"o":"m 406 0 q 377 9 388 0 q 361 31 367 18 q 354 60 356 44 q 353 89 353 75 q 353 135 353 113 q 356 181 354 157 q 328 120 344 151 q 290 62 313 89 q 240 17 268 35 q 176 0 213 0 q 64 40 107 0 q 21 150 21 79 q 46 262 21 207 q 112 359 71 317 q 206 428 153 401 q 317 454 260 454 q 401 438 365 454 q 461 392 438 421 q 496 325 485 364 q 507 240 507 286 q 502 179 507 219 q 485 99 497 139 q 454 30 474 60 q 406 0 435 0 m 346 336 q 337 359 343 347 q 317 371 331 371 q 262 340 289 371 q 214 265 235 308 q 180 179 193 222 q 167 113 167 136 q 168 94 167 106 q 176 83 169 83 q 223 110 201 83 q 261 174 244 138 q 290 248 278 211 q 307 304 301 285 q 346 336 317 333 z "},"b":{"ha":521,"x_min":24,"x_max":500,"o":"m 500 236 q 481 139 500 182 q 427 65 461 96 q 347 17 393 33 q 250 0 301 0 q 165 20 201 0 q 104 74 129 40 q 63 150 79 107 q 38 239 47 193 q 26 329 29 285 q 24 410 24 374 q 26 487 24 439 q 36 590 29 535 q 55 700 43 644 q 84 800 67 756 q 125 873 101 844 q 179 901 149 901 q 212 890 199 901 q 225 860 225 879 q 224 853 225 856 l 224 850 q 192 591 204 719 q 181 331 181 463 q 253 411 214 392 q 322 431 292 431 q 397 415 364 431 q 452 372 429 399 q 488 310 475 346 q 500 236 500 275 m 249 83 q 292 103 275 83 q 319 151 308 124 q 333 209 329 179 q 338 258 338 239 q 333 305 338 276 q 318 347 329 333 q 283 330 299 346 q 255 292 267 314 q 235 245 243 269 q 225 204 228 221 q 197 172 221 179 q 203 149 199 164 q 213 120 207 135 q 228 94 219 106 q 249 83 236 83 z "},"c":{"ha":429,"x_min":21,"x_max":415,"o":"m 314 300 q 288 310 299 300 q 274 336 276 321 q 256 364 271 360 q 235 368 242 368 q 208 345 218 368 q 191 292 197 322 q 182 233 185 263 q 179 192 179 204 q 181 160 179 179 q 188 125 183 142 q 203 96 193 108 q 228 83 213 83 q 268 99 249 83 q 301 136 288 114 q 324 183 315 158 q 332 226 332 208 q 344 256 332 243 q 374 268 357 268 q 403 256 392 268 q 415 226 415 243 q 401 149 415 189 q 361 76 386 110 q 302 22 336 43 q 228 0 268 0 q 78 56 135 0 q 21 204 21 111 q 35 293 21 249 q 78 372 50 338 q 144 429 106 407 q 232 451 183 451 q 278 444 256 451 q 318 422 300 436 q 347 387 336 407 q 357 342 357 367 q 344 313 357 325 q 314 300 332 300 z "},"d":{"ha":500,"x_min":21,"x_max":476,"o":"m 263 851 q 261 863 261 856 q 274 892 261 881 q 303 904 286 904 q 372 872 343 904 q 420 788 401 839 q 450 673 439 736 q 467 550 461 610 q 475 440 474 490 q 476 364 476 390 q 476 307 476 344 q 472 225 475 269 q 461 134 468 181 q 440 49 454 88 q 405 -13 426 11 q 353 -37 383 -37 q 320 -22 329 -37 q 311 13 311 -7 q 313 23 313 18 q 315 35 314 28 q 233 1 281 1 q 149 16 188 1 q 81 58 110 31 q 37 122 53 85 q 21 206 21 160 q 39 295 21 254 q 88 365 57 336 q 162 411 119 394 q 253 428 204 428 q 283 424 267 428 q 317 410 299 421 q 307 542 313 476 q 294 665 301 607 q 279 772 288 724 q 263 851 271 821 m 294 151 q 308 161 299 161 q 316 160 311 161 q 322 153 321 158 l 322 250 q 321 256 321 251 q 314 279 319 264 q 299 309 308 294 q 279 334 290 324 q 253 344 268 344 q 226 333 239 344 q 203 300 213 321 q 188 252 193 279 q 182 194 182 225 q 184 167 182 185 q 191 131 186 149 q 206 99 196 113 q 231 85 215 86 q 254 93 243 85 q 274 112 265 101 q 288 134 282 122 q 294 151 293 146 z "},"e":{"ha":444,"x_min":21,"x_max":432,"o":"m 350 214 q 364 238 353 229 q 390 246 375 246 q 419 234 407 246 q 432 204 432 222 q 427 180 432 194 q 416 151 422 165 q 402 122 410 136 q 390 101 394 108 q 224 0 326 0 q 140 15 178 0 q 76 56 103 29 q 35 120 50 83 q 21 203 21 157 q 35 291 21 247 q 76 370 50 335 q 142 428 103 406 q 228 451 181 451 q 276 444 253 451 q 318 422 300 436 q 347 386 336 407 q 358 339 358 365 q 342 280 358 304 q 301 240 326 256 q 246 216 276 224 q 186 208 215 208 l 186 188 q 188 162 186 179 q 192 127 189 144 q 203 97 196 110 q 222 83 210 83 q 269 96 247 83 q 306 127 290 108 q 333 169 322 146 q 350 214 344 192 m 275 339 q 264 360 275 351 q 233 368 253 368 q 213 347 222 368 q 199 292 203 325 q 222 294 208 292 q 247 303 235 297 q 267 317 258 308 q 275 339 275 326 z "},"f":{"ha":418,"x_min":26,"x_max":411,"o":"m 388 601 q 376 572 388 583 q 346 560 364 560 q 317 572 329 560 q 304 601 304 583 q 301 648 304 614 q 292 718 299 682 q 276 783 286 754 q 253 813 267 811 q 226 779 238 808 q 207 708 215 750 q 194 617 199 667 q 186 522 189 568 q 182 440 183 476 q 181 389 181 404 l 228 389 q 254 389 238 389 q 289 390 271 389 q 324 394 307 392 q 349 403 340 397 q 369 408 358 408 q 399 396 386 408 q 411 367 411 383 q 390 331 411 343 q 311 309 358 313 q 228 306 264 306 l 181 306 q 186 151 182 219 q 192 46 190 82 q 183 12 192 24 q 150 0 174 0 q 106 25 125 0 q 73 90 86 50 q 51 178 60 129 q 36 273 42 226 q 28 360 31 319 q 26 422 26 400 q 29 507 26 458 q 41 608 32 556 q 65 713 50 661 q 106 805 81 764 q 167 871 131 846 q 251 896 203 896 q 324 862 297 896 q 365 780 350 828 q 383 683 379 732 q 388 601 388 633 z "},"g":{"ha":544,"x_min":21,"x_max":525,"o":"m 525 83 q 506 -67 525 10 q 448 -208 488 -144 q 347 -311 408 -271 q 197 -351 285 -351 q 120 -322 149 -351 q 92 -243 92 -292 q 108 -162 92 -203 q 154 -90 125 -122 q 222 -37 183 -57 q 301 -17 260 -17 q 363 -29 333 -17 q 372 34 369 3 q 374 97 374 65 q 372 147 374 122 q 367 196 371 172 q 342 135 357 165 q 306 81 328 104 q 257 42 285 57 q 192 28 229 28 q 126 37 157 28 q 72 64 96 46 q 35 110 49 82 q 21 176 21 139 q 49 287 21 236 q 123 375 78 338 q 224 433 168 413 q 336 454 281 454 q 366 442 354 454 q 378 414 378 431 q 368 386 378 396 q 446 345 415 379 q 494 266 476 311 q 518 171 511 221 q 525 83 525 121 m 194 111 q 247 139 225 111 q 282 206 268 167 q 302 284 296 244 q 308 347 308 324 q 310 353 308 351 q 315 368 311 363 q 263 333 288 360 q 221 274 239 307 q 192 206 203 240 q 182 144 182 171 q 183 124 182 138 q 194 111 185 111 m 197 -268 q 250 -253 226 -268 q 292 -214 274 -237 q 322 -163 310 -190 q 343 -111 335 -136 q 301 -101 324 -101 q 254 -115 276 -101 q 214 -150 232 -129 q 185 -196 196 -171 q 175 -243 175 -221 q 178 -262 175 -256 q 197 -268 182 -268 z "},"h":{"ha":554,"x_min":24,"x_max":532,"o":"m 206 829 q 206 804 206 818 q 204 772 206 790 q 199 683 201 733 q 193 578 196 633 q 183 414 188 499 q 175 254 178 329 q 174 223 175 238 q 174 196 174 208 q 197 266 185 231 q 225 332 210 301 q 269 396 242 365 q 338 426 296 426 q 422 409 386 426 q 483 362 458 392 q 519 292 507 332 q 532 208 532 253 q 524 142 532 179 q 500 74 517 106 q 458 22 483 43 q 396 0 432 0 q 366 13 378 0 q 354 42 354 25 q 356 54 354 50 q 368 114 364 79 q 372 185 372 149 q 371 223 372 199 q 365 272 369 247 q 354 317 361 297 q 338 343 347 338 q 326 335 336 343 q 300 294 315 328 q 272 228 285 265 q 249 156 260 192 q 233 106 240 129 q 217 64 225 83 q 208 46 214 57 q 195 25 203 35 q 176 8 188 15 q 149 1 164 1 q 113 11 133 1 q 75 54 93 21 q 48 134 58 86 q 33 233 38 182 q 26 333 28 283 q 24 417 24 382 q 24 482 24 438 q 29 581 25 526 q 42 692 33 635 q 65 796 50 749 q 103 873 81 843 q 160 903 126 903 q 197 881 189 903 q 206 836 206 860 l 206 829 z "},"i":{"ha":211,"x_min":26,"x_max":190,"o":"m 169 396 q 185 363 181 386 q 190 278 190 339 q 189 206 190 247 q 185 110 188 165 q 184 69 185 88 q 183 42 183 51 q 171 12 183 24 q 142 0 158 0 q 85 26 107 0 q 49 90 63 53 q 31 167 36 128 q 26 233 26 207 q 31 290 26 260 q 49 347 36 321 q 83 392 61 374 q 138 410 104 410 q 169 396 156 410 m 114 444 q 66 465 86 444 q 46 513 46 485 q 66 560 46 540 q 114 581 86 581 q 162 560 142 581 q 182 513 182 540 q 162 465 182 485 q 114 444 142 444 z "},"j":{"ha":256,"x_min":-97,"x_max":232,"o":"m 76 217 q 73 300 76 261 q 63 368 69 339 q 62 373 63 371 q 61 378 61 375 q 74 407 61 394 q 103 419 86 419 q 172 383 146 419 q 210 296 197 346 q 228 194 224 246 q 232 113 232 142 q 219 -35 232 46 q 174 -185 206 -115 q 86 -301 142 -254 q -56 -347 31 -347 q -85 -335 -74 -347 q -97 -306 -97 -324 q -85 -276 -97 -287 q -56 -264 -74 -264 q -37 -256 -46 -264 q -22 -240 -29 -249 q 24 -148 6 -206 q 54 -24 43 -90 q 71 106 65 42 q 76 217 76 169 m 96 581 q 144 560 124 581 q 164 513 164 540 q 144 465 164 485 q 96 444 124 444 q 48 465 68 444 q 28 513 28 485 q 48 560 28 540 q 96 581 68 581 z "},"k":{"ha":469,"x_min":28,"x_max":457,"o":"m 176 169 q 178 102 176 124 q 182 72 179 81 q 194 43 194 60 q 182 13 194 25 q 153 1 169 1 q 78 67 106 1 q 51 162 61 106 q 37 278 42 218 q 30 394 32 338 q 28 492 28 451 q 33 637 28 569 q 46 756 38 704 q 54 800 49 775 q 70 848 60 825 q 97 887 81 871 q 139 903 114 903 q 172 889 158 903 q 182 874 178 883 q 190 849 186 864 q 194 809 193 833 q 196 747 196 785 l 196 725 q 192 600 194 668 q 186 461 189 532 q 183 394 185 428 q 181 328 182 360 q 217 342 194 332 q 263 363 240 351 q 304 388 286 375 q 328 411 322 400 q 341 440 329 428 q 369 451 353 451 q 399 439 386 451 q 411 410 411 426 q 308 293 411 349 q 417 235 378 282 q 457 118 457 188 q 453 80 457 100 q 440 42 449 60 q 416 12 431 24 q 379 0 401 0 q 354 8 365 0 q 340 31 343 17 q 319 96 331 67 q 289 147 307 125 q 244 181 271 168 q 176 194 218 193 l 176 169 z "},"l":{"ha":211,"x_min":24,"x_max":188,"o":"m 24 501 q 28 643 24 576 q 39 758 32 710 q 47 801 42 776 q 63 849 53 826 q 88 887 72 871 q 129 903 104 903 q 164 883 153 903 q 173 826 169 875 q 179 707 176 778 q 183 554 182 636 q 185 398 185 472 q 187 267 186 324 q 188 193 188 211 q 188 138 188 165 q 186 83 188 111 q 183 41 185 53 q 176 22 181 29 q 139 0 163 0 q 117 5 131 0 q 89 28 103 10 q 53 121 67 57 q 34 256 40 185 q 26 396 28 328 q 24 501 24 464 z "},"m":{"ha":710,"x_min":22,"x_max":682,"o":"m 278 158 q 280 203 278 179 q 285 250 282 226 q 289 288 288 269 q 292 322 290 307 l 292 331 q 283 313 288 324 q 271 286 278 301 q 249 224 260 258 q 226 158 238 190 q 210 107 218 131 q 196 65 203 83 q 174 22 188 43 q 132 0 160 0 q 77 19 99 0 q 43 65 56 38 q 26 123 31 92 q 22 181 22 154 q 28 250 22 208 q 47 331 33 292 q 83 397 60 369 q 144 425 107 425 q 182 402 174 425 q 190 356 190 379 q 190 330 190 343 q 188 304 189 317 q 206 346 196 324 q 229 388 215 368 q 261 420 243 407 q 303 433 279 433 q 353 422 333 433 q 386 390 374 410 q 404 344 399 369 q 411 293 410 319 q 460 410 435 364 q 528 456 486 456 q 602 429 572 456 q 650 365 632 403 q 675 283 668 326 q 682 204 682 239 q 678 144 682 179 q 663 78 674 110 q 631 24 651 46 q 578 1 611 1 q 542 22 550 1 q 533 67 533 43 l 533 189 q 532 270 533 229 q 524 351 531 311 q 511 324 517 339 q 492 274 501 300 q 474 219 483 247 q 455 162 464 189 q 436 113 446 135 q 408 65 425 89 q 363 42 392 42 q 321 52 338 42 q 295 79 304 63 q 282 117 286 96 q 278 158 278 138 z "},"n":{"ha":496,"x_min":21,"x_max":474,"o":"m 318 283 q 317 326 318 304 q 311 367 317 347 q 299 351 306 363 q 282 319 292 340 q 254 247 267 288 q 231 169 242 207 q 215 116 222 142 q 199 71 207 90 q 190 51 196 63 q 177 30 185 40 q 158 12 169 19 q 131 4 146 4 q 76 26 97 4 q 42 78 54 47 q 25 142 29 108 q 21 201 21 176 q 26 265 21 229 q 45 333 32 301 q 82 387 58 365 q 142 408 106 408 q 176 391 165 408 q 188 353 188 374 q 187 339 188 346 q 185 324 186 332 q 184 309 185 317 q 182 293 183 301 q 201 345 190 317 q 229 398 213 374 q 268 439 246 422 q 319 456 290 456 q 394 431 364 456 q 442 370 424 407 q 467 291 460 333 q 474 213 474 249 q 469 148 474 185 q 451 78 464 111 q 414 23 438 46 q 354 0 390 0 q 317 22 326 0 q 308 67 308 43 q 313 147 308 93 q 317 215 315 179 q 318 283 318 251 z "},"o":{"ha":433,"x_min":21,"x_max":414,"o":"m 414 238 q 404 158 414 200 q 374 81 394 117 q 321 23 353 46 q 244 0 289 0 q 156 16 197 0 q 85 61 115 32 q 38 131 54 90 q 21 218 21 171 q 33 292 21 257 q 68 354 46 326 q 122 400 90 382 q 192 424 153 418 q 206 448 194 439 q 233 457 218 457 q 313 438 279 457 q 369 388 347 419 q 403 318 392 357 q 414 238 414 279 m 331 238 q 317 313 331 274 q 267 368 304 353 q 252 350 263 357 q 229 343 242 343 q 207 328 215 343 q 194 294 199 314 q 187 256 189 275 q 185 226 185 236 q 190 172 185 197 q 203 126 194 146 q 222 95 211 107 q 244 83 232 83 q 280 97 264 83 q 307 133 296 111 q 324 182 318 154 q 331 238 331 210 z "},"p":{"ha":539,"x_min":24,"x_max":518,"o":"m 208 350 q 269 401 235 381 q 344 421 303 421 q 410 412 379 421 q 466 384 442 403 q 504 337 490 365 q 518 271 518 308 q 490 164 518 213 q 418 80 463 115 q 319 24 374 44 q 210 4 264 4 q 186 11 197 4 l 186 1 q 178 -99 182 -50 q 172 -188 175 -147 q 167 -260 168 -229 q 165 -307 165 -290 q 154 -338 165 -325 q 124 -351 143 -351 q 92 -342 110 -351 q 61 -304 75 -333 q 41 -241 49 -279 q 30 -162 33 -203 q 25 -83 26 -122 q 24 -17 24 -44 q 25 52 24 6 q 31 155 26 99 q 44 272 35 211 q 68 381 53 332 q 108 463 83 431 q 165 494 132 494 q 190 488 181 494 q 203 469 199 481 q 210 445 208 458 q 211 419 211 432 q 210 385 211 401 q 208 350 210 368 m 210 88 q 274 105 247 88 q 319 150 301 122 q 345 212 336 178 q 354 278 354 246 q 351 309 354 290 q 342 338 349 328 q 292 315 315 336 q 249 265 268 294 q 217 205 231 236 q 197 153 204 174 q 194 119 194 136 q 192 83 193 101 q 210 88 200 88 z "},"q":{"ha":529,"x_min":21,"x_max":524,"o":"m 207 -96 q 231 -103 219 -96 q 247 -106 233 -104 q 293 -108 260 -108 l 306 -108 q 314 -4 311 -56 q 319 100 317 47 q 179 26 235 26 q 65 67 110 28 q 21 178 21 107 q 47 286 21 236 q 116 374 74 336 q 212 433 158 411 q 321 454 265 454 q 408 417 376 454 q 457 326 440 379 q 478 217 474 274 q 482 119 482 160 q 477 10 482 67 q 464 -99 472 -46 q 469 -98 467 -99 q 474 -97 472 -97 q 478 -97 476 -97 q 482 -96 479 -96 q 512 -108 500 -96 q 524 -137 524 -121 q 513 -166 524 -154 q 486 -179 503 -178 q 474 -181 485 -179 q 446 -183 464 -182 q 431 -233 440 -204 q 408 -290 422 -262 q 374 -335 394 -317 q 326 -354 354 -354 q 295 -340 306 -354 q 285 -307 285 -326 q 291 -258 288 -287 q 299 -192 294 -229 l 293 -192 q 244 -190 264 -192 q 213 -185 225 -187 q 193 -178 200 -182 q 181 -171 186 -175 q 165 -137 165 -158 q 178 -108 165 -121 q 207 -96 190 -96 m 324 219 q 318 324 322 290 q 311 369 314 357 q 257 336 282 363 q 213 276 232 310 q 184 205 194 242 q 174 140 174 168 q 176 119 174 126 q 179 110 178 113 q 213 122 193 110 q 254 152 233 135 q 294 188 275 169 q 324 219 313 207 z "},"r":{"ha":489,"x_min":26,"x_max":476,"o":"m 342 247 q 335 296 339 269 q 325 344 332 322 q 304 376 317 372 q 294 360 301 374 q 278 315 288 347 q 261 253 268 288 q 247 185 254 219 q 235 126 240 154 q 222 75 229 99 q 200 25 215 50 q 153 0 185 0 q 90 24 115 0 q 51 83 65 49 q 32 158 38 118 q 26 226 26 197 q 31 284 26 251 q 47 346 35 317 q 78 395 58 375 q 132 415 99 415 q 160 406 150 415 q 176 382 171 396 q 181 351 181 368 q 182 322 182 335 q 183 305 183 314 q 183 285 183 296 q 197 338 189 308 q 218 395 204 368 q 251 441 232 422 q 300 460 271 460 q 372 446 339 460 q 427 407 404 432 q 463 349 450 382 q 476 278 476 315 q 453 198 476 229 q 392 167 429 167 q 360 181 371 167 q 346 214 349 194 q 344 229 344 221 q 342 247 343 238 z "},"s":{"ha":424,"x_min":21,"x_max":403,"o":"m 240 454 q 323 425 289 454 q 357 347 357 396 q 344 318 357 331 q 315 306 332 306 q 285 318 297 306 q 274 347 274 331 q 266 364 274 357 q 249 371 258 371 q 228 363 238 371 q 219 340 219 354 q 248 304 219 317 q 311 274 276 292 q 374 226 346 256 q 403 136 403 196 q 383 74 403 100 q 334 32 364 49 q 269 8 304 15 q 206 0 235 0 q 131 16 165 0 q 73 58 97 32 q 35 120 49 85 q 21 194 21 156 q 33 224 21 213 q 63 236 44 236 q 92 224 81 236 q 104 194 104 213 q 115 141 104 163 q 140 107 125 119 q 173 89 156 94 q 203 83 190 83 q 236 97 228 83 q 244 131 244 111 q 222 189 244 171 q 158 225 199 207 q 122 242 140 233 q 90 264 104 251 q 67 293 76 276 q 58 332 58 310 q 77 387 58 364 q 123 425 96 410 q 182 447 150 440 q 240 454 214 454 z "},"t":{"ha":342,"x_min":6,"x_max":335,"o":"m 224 46 q 210 14 221 28 q 178 0 199 0 q 155 6 169 0 q 129 35 140 11 q 109 110 117 60 q 96 215 101 160 q 88 323 90 271 q 85 404 86 375 l 50 403 q 20 414 32 403 q 7 442 8 425 q 17 472 6 460 q 47 486 29 485 l 82 488 q 83 628 82 558 q 96 768 85 697 q 103 810 99 786 q 116 855 107 833 q 140 892 125 876 q 178 907 154 907 q 216 888 206 907 q 229 846 226 868 q 238 768 233 815 q 242 533 242 681 l 242 494 l 290 497 q 321 487 308 499 q 335 457 333 475 q 324 428 335 440 q 294 414 313 415 l 242 411 q 239 301 240 354 q 235 200 238 247 q 232 133 233 163 q 228 82 231 104 q 224 46 225 57 z "},"u":{"ha":500,"x_min":24,"x_max":474,"o":"m 318 33 q 319 81 318 57 q 321 129 319 106 q 300 84 313 107 q 271 42 288 61 q 233 11 254 24 q 185 -1 211 -1 q 108 20 139 -1 q 59 75 78 42 q 32 149 40 108 q 24 226 24 189 q 29 294 24 254 q 49 369 35 333 q 88 429 64 404 q 150 454 113 454 q 189 430 181 454 q 197 382 197 406 l 197 375 q 196 340 197 360 q 193 299 194 321 q 189 235 190 268 q 188 171 188 203 q 189 128 188 150 q 196 86 190 107 q 228 128 213 99 q 257 193 244 158 q 278 260 269 228 q 293 314 288 293 q 301 342 297 329 q 307 365 304 356 q 324 399 314 385 q 357 414 335 414 q 417 388 394 414 q 453 324 440 361 q 469 248 465 288 q 474 181 474 208 q 469 117 474 154 q 453 47 465 81 q 420 -9 442 14 q 363 -32 399 -32 q 326 -11 335 -32 q 318 33 318 10 z "},"v":{"ha":415,"x_min":22,"x_max":403,"o":"m 325 436 q 361 458 336 458 q 390 446 378 458 q 403 417 403 433 q 397 397 403 404 q 375 338 388 378 q 350 256 363 299 q 325 174 338 215 q 299 99 313 133 q 285 67 293 85 q 265 35 276 50 q 240 10 254 19 q 207 0 226 0 q 123 28 158 0 q 65 97 88 56 q 33 185 43 138 q 22 272 22 232 q 26 320 22 294 q 41 367 31 346 q 69 403 51 389 q 114 418 86 418 q 150 399 140 418 q 164 358 160 379 q 169 327 167 344 q 174 290 171 310 q 185 223 179 258 q 197 156 190 188 q 210 104 203 124 q 244 190 231 144 q 269 281 258 236 q 298 371 285 329 q 325 436 311 413 z "},"w":{"ha":558,"x_min":24,"x_max":536,"o":"m 536 385 q 535 331 536 367 q 529 252 533 294 q 517 165 525 210 q 494 83 508 119 q 460 24 481 47 q 411 0 440 0 q 363 15 383 0 q 327 51 342 29 q 302 99 313 74 q 285 147 292 125 q 270 101 279 126 q 247 53 261 75 q 215 15 233 31 q 169 0 196 0 q 99 24 128 0 q 54 85 71 49 q 31 163 38 122 q 24 238 24 204 q 28 292 24 261 q 43 351 32 324 q 74 399 54 379 q 126 418 94 418 q 153 410 143 418 q 170 389 164 401 q 178 361 176 376 q 182 333 181 346 q 186 222 186 288 q 188 172 188 197 q 189 124 188 146 q 202 163 196 142 q 214 204 208 185 q 224 238 219 222 q 233 267 228 254 q 250 297 238 276 q 289 318 263 317 q 385 240 349 317 q 405 185 396 214 q 421 128 414 156 q 447 268 440 197 q 453 410 453 339 q 464 442 453 429 q 494 456 475 456 q 518 449 510 456 q 531 431 526 442 q 535 408 535 421 q 536 385 536 396 z "},"x":{"ha":392,"x_min":14,"x_max":378,"o":"m 329 393 q 319 363 329 385 q 296 314 308 340 q 271 265 283 288 q 254 235 258 243 q 299 176 278 204 q 336 124 321 147 q 352 101 346 111 q 364 85 358 92 q 373 68 368 78 q 378 46 378 58 q 365 17 378 29 q 336 4 353 4 q 241 31 285 4 q 164 92 197 57 q 147 67 158 82 q 120 37 135 51 q 91 11 106 22 q 64 0 76 0 q 34 13 46 0 q 22 42 22 25 q 38 75 22 63 q 72 108 54 88 q 110 157 90 129 q 78 206 94 178 q 47 265 61 235 q 23 326 32 296 q 14 383 14 357 q 34 440 14 422 q 78 457 54 457 q 117 429 107 457 q 146 384 122 418 q 200 310 169 350 q 249 411 228 361 q 288 435 260 435 q 317 423 304 435 q 329 393 329 411 z "},"y":{"ha":514,"x_min":24,"x_max":492,"o":"m 192 126 q 201 124 192 124 q 247 154 226 124 q 281 225 267 185 q 305 306 296 265 q 317 365 314 346 q 357 401 326 401 q 428 374 401 401 q 468 306 454 346 q 487 223 482 267 q 492 147 492 179 q 485 50 492 104 q 463 -60 478 -4 q 426 -168 449 -115 q 369 -262 403 -221 q 292 -328 336 -303 q 193 -353 249 -353 q 141 -337 163 -353 q 106 -297 119 -321 q 85 -244 92 -274 q 78 -190 78 -215 q 128 -54 78 -107 q 264 -1 179 -1 q 293 -3 278 -1 q 324 -7 308 -4 q 336 142 333 65 q 283 72 315 103 q 201 40 250 40 q 124 56 157 40 q 68 98 90 71 q 35 160 46 125 q 24 238 24 196 q 31 303 24 265 q 55 376 39 342 q 97 433 71 410 q 157 457 122 457 q 199 436 186 457 q 211 390 211 415 q 208 350 211 372 q 199 299 204 328 q 188 235 192 267 q 183 172 183 204 q 186 139 183 149 q 192 126 189 129 m 193 -269 q 236 -247 217 -268 q 270 -196 256 -225 q 294 -136 285 -167 q 307 -89 303 -106 q 264 -85 286 -85 q 188 -114 214 -85 q 161 -192 161 -143 q 163 -210 161 -197 q 169 -235 165 -222 q 178 -259 172 -249 q 193 -269 185 -269 z "},"z":{"ha":418,"x_min":14,"x_max":406,"o":"m 346 342 q 330 269 346 306 q 290 198 314 232 q 236 135 265 164 q 181 83 207 106 q 265 93 221 86 q 347 117 310 100 q 364 121 356 121 q 394 108 382 121 q 406 79 406 96 q 376 39 406 54 q 305 15 346 24 q 223 3 264 6 q 160 0 182 0 q 122 1 144 0 q 76 7 99 1 q 37 23 54 13 q 15 54 19 33 q 14 65 14 61 q 14 72 14 68 q 38 151 14 110 q 98 231 63 192 q 172 303 133 269 q 238 358 210 336 q 146 369 189 369 q 103 365 119 369 q 68 374 83 365 q 53 407 53 383 q 63 433 53 422 q 88 447 72 444 q 115 451 100 450 q 146 453 131 453 q 199 450 165 453 q 264 438 232 447 q 319 413 296 429 q 344 367 343 396 q 346 354 346 360 q 346 342 346 349 z "},"A":{"ha":569,"x_min":0,"x_max":556,"o":"m 292 904 q 388 875 350 904 q 449 797 426 846 q 484 683 472 747 q 500 549 496 619 q 504 408 504 479 q 505 274 504 338 q 509 161 506 211 q 525 83 513 111 q 547 69 539 81 q 556 43 556 58 q 543 14 556 26 q 514 1 531 1 q 437 33 465 1 q 392 108 408 64 q 371 201 376 151 q 363 285 365 250 q 272 268 318 271 q 181 265 226 265 q 131 266 156 265 q 83 268 107 267 q 92 163 86 219 q 118 60 99 107 q 122 42 122 51 q 110 13 122 25 q 81 0 97 0 q 35 40 51 0 q 11 131 19 79 q 1 232 3 182 q 0 303 0 282 q 4 409 0 347 q 20 538 8 471 q 53 671 32 606 q 106 788 74 736 q 185 872 139 840 q 292 904 231 904 m 85 353 q 181 349 133 349 q 223 349 199 349 q 272 352 247 350 q 319 358 296 354 q 358 371 342 363 q 358 424 358 385 q 356 513 357 463 q 351 617 354 563 q 340 716 347 671 q 321 790 332 761 q 292 819 310 819 q 220 793 251 819 q 167 725 189 767 q 129 631 144 683 q 104 526 114 578 q 90 428 94 475 q 85 353 86 382 z "},"B":{"ha":689,"x_min":14,"x_max":669,"o":"m 124 676 q 108 647 114 661 q 96 617 103 632 q 80 595 89 603 q 56 588 71 588 q 26 600 39 588 q 14 629 14 613 q 17 642 14 636 q 72 748 35 699 q 158 833 108 797 q 265 890 207 869 q 382 911 322 911 q 476 898 428 911 q 563 858 524 885 q 626 792 601 832 q 650 700 650 753 q 634 613 650 653 q 590 540 618 572 q 526 483 563 508 q 449 439 490 458 q 526 410 488 428 q 597 366 565 392 q 649 305 629 340 q 669 224 669 269 q 633 122 669 164 q 544 52 597 79 q 432 13 492 25 q 324 0 372 0 q 224 13 275 0 q 130 52 172 25 q 60 121 88 79 q 33 219 33 163 q 44 249 33 236 q 74 263 56 263 q 117 222 110 263 q 142 155 124 182 q 189 112 161 128 q 251 90 217 96 q 324 83 285 83 q 388 90 354 83 q 449 111 421 96 q 494 151 476 126 q 513 214 513 176 q 487 290 513 260 q 424 341 461 321 q 342 371 386 361 q 263 383 299 381 q 263 334 263 363 q 256 278 263 306 q 234 233 249 251 q 190 214 219 214 q 138 240 157 214 q 109 303 118 267 q 97 376 100 339 q 94 438 94 414 q 96 486 94 457 q 102 548 97 515 q 115 613 107 581 q 138 672 124 646 q 173 713 153 697 q 221 729 193 729 q 250 717 238 729 q 263 688 263 704 q 258 649 263 668 q 253 608 253 629 q 255 539 253 574 q 260 469 257 504 q 344 499 303 479 q 417 547 385 518 q 468 614 449 575 q 488 701 488 653 q 483 751 488 728 q 469 791 479 774 q 439 818 458 808 q 389 828 419 828 q 238 785 310 828 q 124 676 167 743 z "},"C":{"ha":599,"x_min":21,"x_max":579,"o":"m 468 500 q 496 657 496 579 q 492 708 496 681 q 478 758 489 735 q 449 797 468 782 q 400 813 431 813 q 324 792 357 813 q 267 738 292 771 q 225 661 242 704 q 198 574 208 618 q 183 487 188 529 q 179 413 179 444 q 187 314 179 371 q 215 206 194 257 q 270 119 235 154 q 361 83 306 83 q 429 105 403 83 q 470 159 456 126 q 490 229 485 192 q 494 300 494 267 q 506 330 494 318 q 536 342 518 342 q 565 330 553 342 q 578 300 578 318 q 567 191 578 244 q 531 95 557 138 q 461 26 504 53 q 353 0 418 0 q 205 35 268 0 q 101 128 142 71 q 41 260 61 186 q 21 410 21 333 q 44 578 21 492 q 116 735 68 664 q 235 851 164 806 q 400 896 306 896 q 485 875 450 896 q 540 820 519 854 q 570 743 561 786 q 579 657 579 700 q 577 605 579 640 q 567 533 575 569 q 545 470 560 497 q 507 443 531 443 q 477 456 489 443 q 465 485 465 468 q 466 492 465 489 q 468 500 467 496 z "},"D":{"ha":672,"x_min":14,"x_max":653,"o":"m 282 83 q 351 108 321 83 q 405 171 382 132 q 443 258 428 210 q 469 356 458 307 q 483 447 479 404 q 488 518 488 490 q 482 606 488 554 q 460 703 476 657 q 413 783 443 750 q 333 815 382 815 q 274 803 306 815 q 212 770 242 790 q 157 726 182 750 q 118 678 132 701 q 105 651 108 663 q 97 624 101 639 q 83 598 92 608 q 56 588 75 588 q 26 599 39 588 q 14 629 14 611 q 47 726 14 678 q 129 812 81 774 q 233 874 178 850 q 333 899 289 899 q 477 864 417 899 q 576 773 538 829 q 634 646 615 717 q 653 501 653 575 q 632 335 653 424 q 567 173 611 247 q 457 49 524 99 q 297 0 390 0 q 247 4 278 0 q 188 19 217 8 q 138 47 158 29 q 117 90 117 64 q 121 108 117 100 q 82 146 96 119 q 60 204 68 172 q 51 269 53 236 q 50 325 50 301 q 51 373 50 343 q 56 439 53 403 q 67 512 60 475 q 87 578 75 549 q 117 627 99 608 q 160 646 135 646 q 196 628 183 646 q 214 588 208 611 q 219 540 219 564 q 219 500 219 515 q 219 453 219 485 q 216 383 218 422 q 211 302 214 344 q 205 222 208 260 q 197 158 201 185 q 188 121 193 131 q 230 90 206 97 q 282 83 254 83 z "},"E":{"ha":568,"x_min":22,"x_max":554,"o":"m 236 814 q 219 812 228 814 q 206 803 211 810 q 189 747 194 789 q 181 656 183 704 q 177 562 178 607 q 176 494 176 517 q 233 490 204 492 q 290 489 261 489 q 335 490 310 489 q 379 499 361 492 q 418 526 389 526 q 447 514 435 526 q 460 485 460 501 q 441 440 460 456 q 395 416 422 424 q 340 407 368 408 q 290 406 311 406 q 233 407 261 406 q 176 411 204 408 q 177 347 176 393 q 181 251 178 301 q 188 158 183 201 q 203 100 193 114 q 219 91 207 94 q 245 86 231 88 q 273 84 260 85 q 294 83 286 83 q 341 85 315 83 q 392 92 367 88 q 442 103 418 96 q 485 122 467 111 q 508 129 496 129 q 538 117 525 129 q 550 88 550 106 q 517 44 550 61 q 442 17 485 26 q 356 3 399 7 q 294 0 314 0 q 245 3 271 0 q 197 13 219 6 q 104 81 139 32 q 51 193 69 131 q 28 322 33 256 q 22 439 22 388 q 27 547 22 485 q 47 670 32 608 q 86 785 61 732 q 151 867 111 839 q 208 891 178 885 q 268 897 238 897 q 347 892 308 897 q 426 888 386 888 q 462 892 450 888 q 481 901 474 896 q 495 911 489 907 q 513 915 501 915 q 542 903 529 915 q 554 874 554 890 q 540 840 554 853 q 505 819 525 826 q 463 808 485 811 q 425 804 440 804 q 335 809 381 804 q 244 814 290 814 l 236 814 z "},"F":{"ha":532,"x_min":26,"x_max":532,"o":"m 203 51 q 203 47 203 49 q 204 42 204 44 q 192 13 204 25 q 163 0 179 0 q 112 28 133 0 q 75 101 90 57 q 50 198 60 144 q 35 303 40 251 q 28 397 31 354 q 26 461 26 440 q 31 563 26 507 q 48 673 35 618 q 85 776 61 728 q 149 854 110 824 q 192 878 168 869 q 241 892 215 888 q 293 897 267 896 q 343 899 319 899 q 385 898 364 899 q 428 897 407 897 q 444 897 436 897 q 463 899 453 897 q 490 910 474 910 q 519 897 507 910 q 532 868 532 885 q 522 839 532 850 q 498 822 513 828 q 467 815 483 817 q 438 814 451 814 q 403 815 426 814 q 353 815 381 815 q 302 814 328 815 q 254 810 276 813 q 217 801 232 807 q 199 783 201 794 q 194 755 196 776 q 192 703 193 733 q 190 640 190 674 q 188 576 189 607 q 188 522 188 546 q 188 489 188 499 q 224 488 206 488 q 261 488 242 488 q 294 488 275 488 q 332 489 313 488 q 369 494 351 490 q 400 503 388 497 q 414 525 403 517 q 440 533 425 533 q 469 522 457 533 q 482 492 482 510 q 458 442 482 460 q 399 415 433 424 q 327 406 364 407 q 267 404 290 404 q 227 404 247 404 q 188 406 207 404 q 190 228 189 318 q 203 51 190 139 z "},"G":{"ha":619,"x_min":21,"x_max":599,"o":"m 599 293 q 588 196 599 247 q 553 101 578 144 q 491 28 529 57 q 397 0 453 0 q 235 39 306 0 q 117 141 164 78 q 45 285 69 204 q 21 449 21 365 q 45 617 21 535 q 117 763 69 699 q 237 867 165 828 q 403 907 308 907 q 491 882 454 907 q 551 819 528 857 q 586 734 575 781 q 597 643 597 688 q 593 594 597 621 q 578 545 589 568 q 550 507 568 522 q 504 492 532 492 q 474 504 486 492 q 463 533 463 517 q 474 562 463 550 q 500 575 485 574 q 512 608 510 590 q 514 643 514 626 q 508 697 514 667 q 490 756 503 728 q 458 804 478 785 q 408 824 438 824 q 299 783 343 824 q 229 685 256 743 q 192 560 203 626 q 181 443 181 494 q 190 331 181 393 q 225 213 200 268 q 292 121 250 158 q 397 83 333 83 q 453 106 431 83 q 490 162 476 129 q 510 231 504 194 q 515 293 515 267 q 510 340 515 319 q 420 333 465 340 q 331 325 375 325 q 299 338 311 325 q 288 369 288 350 q 301 398 288 389 q 331 408 314 407 q 419 419 375 414 q 507 424 463 424 q 557 413 539 424 q 584 385 575 403 q 596 343 593 367 q 599 293 599 319 z "},"H":{"ha":628,"x_min":24,"x_max":606,"o":"m 214 472 q 277 468 246 469 q 340 467 308 467 q 377 468 358 467 q 413 474 396 469 q 428 490 418 485 q 449 496 438 496 l 454 494 q 457 583 456 539 q 458 671 458 626 q 458 709 458 686 q 456 756 458 732 q 451 801 454 779 q 440 836 447 824 q 417 850 426 839 q 407 876 407 861 q 419 906 407 894 q 449 918 432 918 q 537 879 506 918 q 583 785 568 840 q 602 671 599 729 q 606 572 606 613 q 597 369 606 469 q 576 168 588 268 q 569 115 574 142 q 565 63 565 89 q 562 20 565 40 q 526 0 558 0 q 476 26 493 0 q 452 87 460 51 q 444 159 444 122 q 443 218 443 196 q 444 308 443 263 q 449 399 446 353 q 392 385 424 388 q 333 383 360 383 q 272 385 301 383 q 211 389 242 386 q 206 333 210 369 q 197 254 203 297 q 181 166 190 211 q 156 85 171 121 q 122 25 142 49 q 75 1 101 1 q 43 17 53 1 q 33 51 33 32 q 42 323 33 188 q 51 594 51 458 q 51 651 51 614 q 49 727 51 688 q 43 801 47 767 q 31 850 39 835 q 24 872 24 861 q 36 902 24 890 q 65 914 49 914 q 126 891 101 914 q 168 832 151 868 q 194 751 185 796 q 208 663 204 707 q 214 578 213 618 q 215 514 215 539 l 214 472 z "},"I":{"ha":267,"x_min":14,"x_max":244,"o":"m 14 865 q 26 894 14 882 q 54 907 38 907 q 157 869 119 907 q 214 776 194 831 q 239 659 233 721 q 244 549 244 597 q 238 378 244 463 q 221 207 231 293 q 212 124 217 167 q 207 42 207 82 q 194 13 207 25 q 165 0 182 0 q 126 18 142 0 q 101 65 110 36 q 88 128 92 93 q 83 198 83 164 q 83 260 82 232 q 83 306 83 289 q 84 372 83 329 q 85 467 85 414 q 84 576 85 519 q 80 682 83 632 q 69 770 76 732 q 51 824 63 808 q 25 838 36 826 q 14 865 14 850 z "},"J":{"ha":529,"x_min":14,"x_max":510,"o":"m 353 603 q 351 653 353 617 q 342 726 349 689 q 323 793 335 764 q 292 822 311 822 q 240 803 261 822 q 203 757 218 785 q 182 698 189 729 q 175 642 175 667 q 193 563 175 583 q 233 537 211 543 q 272 525 254 531 q 290 492 290 519 q 278 463 290 475 q 249 450 265 450 q 178 466 208 450 q 129 509 149 482 q 101 571 110 536 q 92 642 92 606 q 104 730 92 683 q 142 815 117 776 q 203 880 167 854 q 290 906 240 906 q 398 871 356 906 q 465 784 440 836 q 500 671 490 732 q 510 558 510 610 q 490 383 510 479 q 426 201 469 286 q 313 58 382 115 q 147 0 244 0 q 51 33 88 0 q 14 128 14 67 q 39 235 14 179 q 106 339 64 292 q 199 417 147 386 q 306 447 251 447 q 339 431 325 447 q 349 517 346 474 q 353 603 353 560 m 326 369 q 306 364 319 364 q 232 340 269 364 q 165 280 194 315 q 116 203 135 244 q 97 128 97 163 q 110 92 97 101 q 146 83 122 83 q 215 117 185 83 q 268 196 246 150 q 305 290 290 242 q 326 369 319 339 z "},"K":{"ha":604,"x_min":19,"x_max":592,"o":"m 482 821 q 465 854 465 835 q 478 883 465 871 q 507 896 490 896 q 551 876 535 896 q 567 829 567 856 q 533 732 567 790 q 454 615 500 674 q 360 503 408 556 q 285 422 313 450 q 399 385 343 414 q 497 313 454 356 q 566 214 540 269 q 592 96 592 158 q 588 64 592 81 q 576 34 585 47 q 555 12 568 21 q 522 3 542 3 q 494 14 503 3 q 482 40 486 25 q 438 138 467 94 q 370 217 408 181 q 288 285 332 254 q 200 344 244 315 l 181 331 q 176 206 178 268 q 163 82 174 144 q 158 55 161 69 q 148 28 154 40 q 131 8 142 17 q 104 0 121 0 q 78 8 89 0 q 58 26 68 15 q 35 101 43 46 q 24 223 28 157 q 20 350 21 289 q 19 442 19 411 q 19 502 19 461 q 22 595 19 543 q 31 702 25 647 q 49 802 38 757 q 80 876 61 847 q 125 906 99 906 q 154 890 143 906 q 172 850 165 875 q 182 796 179 825 q 185 738 185 767 q 185 685 186 708 q 185 649 185 661 q 184 544 185 596 q 183 440 183 493 q 260 517 214 468 q 353 620 307 565 q 435 729 399 675 q 482 821 471 783 z "},"L":{"ha":563,"x_min":24,"x_max":549,"o":"m 488 128 q 497 131 493 129 q 507 132 501 132 q 536 119 524 132 q 549 90 549 107 q 516 48 549 65 q 440 20 483 31 q 356 5 397 10 q 294 0 314 0 q 153 35 207 0 q 71 128 100 71 q 33 256 42 185 q 24 397 24 326 q 26 465 24 419 q 36 567 29 511 q 54 683 43 624 q 81 792 65 743 q 119 873 97 842 q 171 904 142 904 q 200 895 189 904 q 217 872 211 886 q 224 842 222 858 q 226 813 226 826 q 220 709 226 760 q 207 607 214 658 q 185 417 194 511 q 176 226 176 322 q 180 163 176 190 q 195 119 183 136 q 231 92 207 101 q 294 83 254 83 q 393 96 346 83 q 488 128 440 108 z "},"M":{"ha":842,"x_min":28,"x_max":822,"o":"m 301 888 q 394 853 358 888 q 451 770 429 819 q 483 665 472 721 q 497 567 493 610 q 511 656 501 599 q 538 770 521 714 q 585 867 556 826 q 658 908 614 908 q 726 888 699 908 q 771 835 753 868 q 799 760 789 801 q 815 677 810 719 q 821 596 819 635 q 822 529 822 557 q 813 317 822 422 q 792 107 803 213 q 787 79 789 93 q 785 50 785 65 q 775 17 785 31 q 743 3 765 3 q 688 35 706 3 q 662 111 669 68 q 654 199 654 154 q 654 265 654 243 q 658 458 654 363 q 663 651 663 554 q 662 735 663 690 q 650 817 661 781 q 614 730 629 790 q 587 601 599 669 q 566 466 575 532 q 549 361 557 400 q 542 334 546 349 q 531 307 538 319 q 513 285 524 294 q 488 276 503 276 q 431 308 453 276 q 393 388 408 339 q 368 497 378 436 q 349 614 358 557 q 331 719 340 671 q 306 792 321 767 q 290 710 296 760 q 282 602 285 661 q 278 478 279 543 q 277 352 278 414 q 276 236 276 290 q 272 142 275 182 q 268 101 269 122 q 263 61 267 81 q 244 19 257 39 q 206 0 232 0 q 139 33 167 0 q 91 116 111 65 q 58 228 71 167 q 40 350 46 290 q 31 460 33 410 q 28 539 28 511 q 29 608 28 564 q 40 697 31 653 q 68 774 49 742 q 124 807 88 807 q 160 789 150 807 q 174 750 169 771 q 189 598 186 675 q 196 446 192 521 q 197 532 196 482 q 201 634 199 582 q 210 734 204 686 q 225 815 215 782 q 251 865 235 843 q 301 888 268 888 z "},"N":{"ha":713,"x_min":28,"x_max":690,"o":"m 428 885 q 526 860 485 885 q 596 797 567 836 q 643 706 625 757 q 672 601 661 654 q 687 495 683 547 q 690 401 690 443 q 689 342 690 381 q 683 260 688 304 q 669 169 678 215 q 644 85 660 122 q 608 24 629 47 q 557 0 588 0 q 522 18 532 0 q 513 58 513 36 q 519 232 513 146 q 525 406 525 318 q 524 458 525 422 q 521 538 524 494 q 512 628 518 582 q 495 714 506 675 q 468 777 485 753 q 428 801 451 801 q 369 758 394 801 q 326 647 344 714 q 294 497 307 579 q 272 340 282 415 q 256 203 263 264 q 244 115 250 142 q 237 82 242 101 q 224 45 232 63 q 202 15 215 28 q 169 3 189 3 q 112 22 136 3 q 72 73 88 42 q 48 142 57 104 q 35 219 39 181 q 29 294 31 258 q 28 353 28 329 q 29 415 28 374 q 35 508 31 457 q 47 611 39 558 q 70 708 56 664 q 105 779 85 751 q 154 807 125 807 q 183 797 174 807 q 196 772 192 786 q 200 740 200 757 q 200 710 200 722 q 197 528 200 618 q 192 346 194 438 q 201 433 196 381 q 217 547 207 486 q 244 667 228 607 q 285 776 260 728 q 345 854 310 824 q 428 885 381 885 z "},"O":{"ha":668,"x_min":21,"x_max":649,"o":"m 649 461 q 642 365 649 417 q 619 261 635 313 q 580 163 604 210 q 522 79 556 115 q 443 22 488 43 q 343 0 399 0 q 197 39 258 0 q 97 140 136 78 q 39 277 57 201 q 21 426 21 353 q 35 559 21 490 q 81 687 50 628 q 163 789 113 746 q 283 846 213 832 q 290 883 276 865 q 324 900 304 900 q 473 860 411 900 q 574 756 535 819 q 631 614 613 692 q 649 461 649 536 m 565 461 q 556 570 565 513 q 522 679 546 628 q 458 767 497 731 q 360 814 418 804 q 359 796 363 804 q 349 782 356 788 q 333 773 342 776 q 317 768 324 769 q 247 717 274 756 q 204 628 219 678 q 184 527 189 579 q 179 436 179 475 q 182 376 179 413 q 192 301 185 340 q 211 224 199 263 q 242 153 224 185 q 285 103 260 122 q 343 83 310 83 q 448 124 406 83 q 517 224 490 165 q 554 347 543 282 q 565 461 565 413 z "},"P":{"ha":682,"x_min":14,"x_max":668,"o":"m 178 682 q 207 670 194 682 q 219 640 219 658 q 214 544 219 597 q 207 444 208 492 q 235 406 218 426 q 272 368 251 385 q 315 340 292 351 q 361 329 338 329 q 433 355 404 329 q 478 417 461 381 q 503 497 496 454 q 511 572 511 539 q 503 654 511 611 q 474 733 494 697 q 422 793 454 769 q 343 817 390 817 q 276 802 308 817 q 215 764 243 788 q 163 712 186 740 q 122 656 139 683 q 108 628 114 642 q 94 599 101 614 q 79 578 88 586 q 56 571 71 571 q 26 583 39 571 q 14 613 14 596 q 28 663 14 633 q 64 721 43 692 q 107 775 85 750 q 144 814 129 800 q 238 875 186 850 q 347 900 289 900 q 477 876 418 900 q 578 808 536 851 q 644 704 621 764 q 668 574 668 644 q 646 448 668 507 q 584 344 624 389 q 488 272 544 299 q 363 246 432 246 q 277 266 318 246 q 204 317 236 286 q 205 250 204 286 q 206 177 206 214 q 205 105 206 140 q 200 40 204 69 q 188 12 197 24 q 158 0 178 0 q 112 31 128 0 q 89 104 96 63 q 82 188 82 146 q 82 250 82 229 q 82 308 82 268 q 85 395 82 347 q 92 494 88 443 q 108 586 97 544 q 136 655 119 628 q 178 682 153 682 z "},"Q":{"ha":661,"x_min":14,"x_max":642,"o":"m 181 15 q 263 -9 217 -3 q 360 -17 310 -15 q 458 -20 410 -19 q 545 -29 507 -21 q 607 -56 583 -37 q 631 -111 631 -75 q 618 -140 631 -128 q 589 -153 606 -153 q 562 -142 574 -153 q 547 -115 550 -131 q 520 -108 538 -111 q 484 -105 503 -106 q 447 -103 465 -104 q 418 -103 429 -103 q 285 -95 354 -101 q 158 -65 215 -89 q 65 6 101 -42 q 28 139 28 54 q 40 168 28 156 q 69 181 53 181 l 78 181 q 29 304 44 239 q 14 436 14 369 q 33 580 14 510 q 92 708 53 650 q 189 804 131 765 q 326 853 247 843 q 334 886 319 871 q 367 901 349 901 q 500 857 447 901 q 584 747 553 813 q 628 605 615 681 q 642 465 642 529 q 636 373 642 424 q 617 271 631 322 q 583 171 604 219 q 532 85 563 122 q 460 24 501 47 q 365 1 418 1 q 224 35 290 1 q 111 129 158 69 q 132 58 114 85 q 181 15 150 31 m 360 85 q 458 127 419 85 q 518 230 496 169 q 549 356 540 290 q 558 465 558 421 q 552 558 558 506 q 531 660 546 610 q 488 750 515 710 q 418 808 460 790 q 404 783 415 793 q 376 772 393 772 q 279 737 318 772 q 218 649 240 701 q 187 538 196 597 q 178 433 178 479 q 181 372 178 408 q 194 297 185 336 q 217 220 203 258 q 251 152 231 182 q 298 103 271 122 q 360 85 325 85 z "},"R":{"ha":676,"x_min":14,"x_max":663,"o":"m 133 826 q 219 879 172 858 q 318 900 267 900 q 441 885 379 900 q 552 840 503 871 q 632 758 601 808 q 663 638 663 708 q 646 546 663 589 q 600 466 629 503 q 533 401 571 429 q 451 357 494 374 q 522 303 485 338 q 591 228 560 269 q 642 142 622 186 q 663 57 663 97 q 651 20 663 36 q 617 4 639 4 q 570 26 593 4 q 524 80 547 47 q 477 151 501 113 q 424 225 453 190 q 363 286 396 260 q 290 319 331 313 q 279 231 288 285 q 253 125 271 176 q 205 37 235 74 q 128 0 175 0 q 99 13 111 0 q 86 42 86 25 q 103 75 86 63 q 114 134 110 96 q 121 215 118 172 q 126 297 124 257 q 129 363 128 338 q 133 435 131 388 q 138 533 135 482 q 146 628 140 583 q 158 693 151 672 q 172 717 163 708 q 199 726 182 726 q 255 691 235 726 q 284 608 275 656 q 294 513 293 561 q 296 440 296 465 l 296 407 q 378 432 340 411 q 442 484 415 453 q 483 556 468 515 q 497 640 497 596 q 449 769 497 722 q 319 817 401 817 q 239 799 275 817 q 175 751 203 781 q 128 685 147 722 q 96 611 108 649 q 56 579 86 579 q 26 592 39 579 q 14 621 14 604 q 26 674 14 644 q 56 733 38 704 q 94 786 74 761 q 133 826 115 811 z "},"S":{"ha":618,"x_min":19,"x_max":597,"o":"m 597 296 q 569 176 597 231 q 497 83 542 122 q 394 22 451 43 q 276 0 336 0 q 169 22 217 0 q 88 83 121 44 q 37 172 54 121 q 19 282 19 224 q 26 342 19 310 q 46 403 32 375 q 83 451 60 432 q 140 471 106 471 q 169 459 157 471 q 182 429 182 447 q 169 401 182 406 q 142 388 157 396 q 115 358 128 379 q 103 282 103 338 q 114 206 103 242 q 147 142 125 169 q 203 99 169 115 q 282 83 238 83 q 357 99 328 83 q 403 140 386 115 q 428 193 421 164 q 435 250 435 222 q 399 369 435 322 q 315 451 364 417 q 236 503 278 479 q 160 556 194 528 q 104 617 126 583 q 82 699 82 651 q 106 786 82 747 q 167 851 129 825 q 249 892 204 878 q 336 906 294 906 q 469 856 417 906 q 521 717 521 807 q 519 681 521 703 q 510 638 517 658 q 491 601 503 617 q 460 586 479 586 q 431 599 443 586 q 418 628 418 611 q 428 669 418 647 q 438 718 438 692 q 410 797 438 772 q 338 822 382 822 q 292 813 310 822 q 263 790 274 804 q 249 760 253 776 q 246 732 246 744 q 260 677 246 701 q 299 632 275 653 q 353 592 322 611 q 415 553 383 572 q 481 508 449 532 q 540 453 514 483 q 581 384 565 422 q 597 296 597 346 z "},"T":{"ha":488,"x_min":7,"x_max":481,"o":"m 392 824 q 341 820 365 824 q 292 810 317 817 q 294 715 299 765 q 286 619 289 664 q 278 419 282 519 q 274 218 274 319 q 278 130 274 174 q 282 42 282 86 q 269 13 282 25 q 240 0 257 0 q 192 20 211 0 q 160 72 172 40 q 141 142 147 103 q 131 220 135 182 q 128 291 128 258 q 128 343 128 324 q 131 448 128 388 q 140 571 133 508 q 157 692 146 633 q 185 789 168 750 q 132 778 158 783 q 78 774 106 774 q 29 786 51 774 q 7 828 7 799 q 19 857 7 844 q 49 869 32 869 q 79 857 67 869 q 152 865 115 858 q 225 881 189 872 q 308 899 267 890 q 392 907 350 907 q 452 893 424 907 q 481 843 481 879 q 468 813 481 825 q 439 801 456 801 q 401 824 415 801 l 392 824 z "},"U":{"ha":725,"x_min":24,"x_max":707,"o":"m 604 1 q 556 22 574 1 q 531 72 539 43 q 521 133 522 101 q 519 186 519 165 q 526 335 519 261 q 540 485 533 410 q 524 406 533 454 q 499 304 514 358 q 464 196 483 250 q 418 98 444 142 q 358 27 392 54 q 285 0 325 0 q 155 38 206 0 q 75 133 104 75 q 35 261 46 192 q 24 394 24 331 q 28 473 24 424 q 42 579 32 522 q 67 694 51 636 q 106 800 83 753 q 160 877 129 847 q 231 907 192 907 q 260 894 247 907 q 272 865 272 882 q 272 858 272 861 q 269 850 271 854 q 203 601 226 726 q 179 344 179 475 q 182 274 179 318 q 195 188 185 231 q 226 115 206 146 q 285 83 247 83 q 336 124 311 83 q 384 226 361 164 q 426 365 407 289 q 462 510 446 440 q 489 636 478 581 q 507 714 500 692 q 517 745 511 728 q 531 777 522 763 q 553 801 540 792 q 583 811 565 811 q 651 785 626 811 q 689 719 676 758 q 704 639 701 681 q 707 565 707 597 q 688 303 707 435 q 646 43 668 172 q 633 13 643 25 q 604 1 624 1 z "},"V":{"ha":625,"x_min":24,"x_max":611,"o":"m 608 856 q 540 649 572 753 q 479 440 508 546 q 438 293 458 367 q 389 149 417 219 q 372 103 382 129 q 347 55 361 78 q 312 16 332 32 q 267 0 292 0 q 179 36 217 0 q 115 128 142 72 q 70 256 88 185 q 42 395 53 326 q 28 524 32 464 q 24 621 24 585 q 26 692 24 647 q 38 781 28 738 q 69 857 47 825 q 128 889 90 889 q 159 876 150 889 q 172 843 168 863 q 179 770 179 808 q 182 697 179 732 q 186 615 183 667 q 194 504 189 564 q 205 380 199 444 q 220 258 211 315 q 240 156 229 201 q 267 88 251 110 q 304 160 285 110 q 342 267 324 210 q 375 379 360 325 q 399 463 390 433 q 426 559 410 500 q 460 681 442 618 q 497 799 478 743 q 531 886 515 856 q 546 905 538 897 q 569 913 554 913 q 599 900 586 913 q 611 871 611 888 q 610 863 611 867 q 608 856 610 860 z "},"W":{"ha":779,"x_min":24,"x_max":756,"o":"m 576 142 q 621 283 603 204 q 650 446 639 363 q 666 611 661 529 q 671 761 671 693 q 669 805 671 783 q 667 847 667 826 q 679 877 667 865 q 708 889 692 889 q 739 874 729 889 q 752 839 749 860 q 755 796 756 818 q 754 760 754 774 q 751 664 754 731 q 739 514 747 597 q 716 342 731 431 q 678 179 701 253 q 625 58 656 106 q 553 11 594 11 q 495 40 519 11 q 452 115 471 69 q 421 217 433 161 q 398 326 408 272 q 380 425 388 379 q 364 494 372 471 q 338 400 347 449 q 321 301 328 351 q 307 201 314 251 q 288 103 300 151 q 278 71 283 89 q 265 37 274 53 q 242 10 256 21 q 210 0 229 0 q 138 33 168 0 q 88 119 108 67 q 54 235 67 171 q 35 362 42 300 q 26 476 28 424 q 24 558 24 529 q 24 603 24 575 q 27 663 25 631 q 35 728 29 694 q 52 788 42 761 q 80 831 63 814 q 122 847 97 847 q 156 830 146 847 q 171 793 167 813 q 181 678 182 738 q 183 561 181 618 q 192 352 188 457 q 211 143 196 247 q 240 312 229 226 q 272 481 250 397 q 283 521 276 500 q 302 560 290 542 q 331 591 314 579 q 371 603 347 603 q 442 577 413 603 q 494 510 472 551 q 530 417 515 468 q 553 314 544 365 q 567 217 563 263 q 576 142 572 171 z "},"X":{"ha":642,"x_min":14,"x_max":629,"o":"m 597 42 q 585 13 597 25 q 556 0 572 0 q 456 42 504 0 q 367 144 408 85 q 293 267 325 204 q 242 369 261 329 q 197 302 222 342 q 150 219 172 263 q 113 133 128 176 q 97 56 97 90 q 85 26 97 39 q 56 14 72 14 q 26 26 39 14 q 14 56 14 39 q 33 158 14 104 q 81 267 53 213 q 142 371 110 321 q 203 460 175 421 q 170 542 189 492 q 133 647 151 593 q 103 753 115 701 q 90 839 90 806 q 102 883 90 863 q 142 904 114 904 q 174 890 161 904 q 194 861 186 876 q 258 735 231 801 q 314 606 286 669 q 346 642 325 618 q 393 694 367 665 q 449 755 419 724 q 504 812 478 786 q 553 853 531 838 q 588 869 575 869 q 617 858 606 869 q 629 828 629 846 q 625 810 629 817 q 614 796 621 803 q 544 728 578 761 q 479 663 511 696 q 416 594 447 629 q 353 519 385 560 q 402 406 376 465 q 456 286 428 346 q 517 172 485 226 q 585 71 549 117 q 597 42 597 58 z "},"Y":{"ha":628,"x_min":14,"x_max":615,"o":"m 493 196 q 435 120 468 156 q 365 58 403 85 q 282 15 326 31 q 188 0 238 0 q 66 49 110 0 q 22 174 22 99 q 38 261 22 218 q 81 338 53 304 q 149 393 110 372 q 235 414 188 414 q 417 369 332 414 q 453 522 440 444 q 467 678 467 599 l 467 686 q 428 606 450 647 q 376 529 406 564 q 307 473 346 494 q 219 451 268 451 q 126 474 165 451 q 63 535 88 497 q 26 619 38 572 q 14 713 14 665 q 19 768 14 736 q 35 829 24 800 q 67 878 47 858 q 119 899 88 899 q 157 878 147 899 q 169 835 167 857 q 172 776 172 806 q 172 716 172 746 q 174 656 172 686 q 183 597 176 626 q 188 581 185 592 q 194 560 190 569 q 205 542 199 550 q 219 535 211 535 q 283 556 256 535 q 333 608 311 576 q 371 678 354 640 q 399 749 388 715 q 419 808 411 783 q 435 839 428 833 q 467 853 451 853 q 541 828 513 853 q 586 769 569 804 q 609 692 603 733 q 615 614 615 650 q 594 438 615 526 q 535 271 572 350 q 542 254 539 263 q 546 236 546 246 q 533 207 546 219 q 504 194 521 194 q 499 195 501 194 q 493 196 496 196 m 188 83 q 257 104 225 83 q 314 156 289 125 q 358 224 339 188 q 389 290 376 260 q 235 331 317 331 q 181 316 206 331 q 140 279 157 301 q 115 229 124 257 q 106 174 106 201 q 125 108 106 133 q 188 83 144 83 z "},"Z":{"ha":621,"x_min":14,"x_max":608,"o":"m 514 796 q 454 812 489 808 q 392 815 419 815 q 306 810 349 815 q 224 790 264 804 q 216 788 219 789 q 208 788 213 788 q 179 800 192 788 q 167 829 167 813 q 195 868 167 854 q 262 889 224 882 q 338 897 300 896 q 392 899 375 899 q 453 895 417 899 q 524 881 490 892 q 581 850 557 871 q 604 793 604 829 q 576 694 604 753 q 503 571 547 636 q 403 436 458 506 q 294 303 347 367 q 194 185 240 239 q 121 94 147 131 q 206 85 163 86 q 292 83 250 83 q 430 89 361 83 q 567 94 499 94 q 597 83 585 94 q 608 53 608 71 q 598 24 608 35 q 571 11 588 14 q 473 2 525 4 q 371 0 421 0 l 238 0 q 163 3 203 0 q 90 16 124 6 q 35 48 57 26 q 14 106 14 69 q 43 203 14 146 q 119 325 72 260 q 222 458 165 390 q 335 590 279 526 q 438 706 390 653 q 514 796 486 760 z "},"":{"ha":389,"x_min":68,"x_max":322,"o":"m 271 907 q 235 922 250 907 q 221 957 221 936 q 235 993 221 978 q 271 1008 250 1008 q 307 993 292 1008 q 322 957 322 978 q 307 922 322 936 q 271 907 292 907 m 118 907 q 83 922 97 907 q 68 957 68 936 q 83 993 68 978 q 118 1008 97 1008 q 154 993 139 1008 q 169 957 169 978 q 154 922 169 936 q 118 907 139 907 z "},"`":{"ha":169,"x_min":24,"x_max":154,"o":"m 56 1090 q 81 1084 71 1090 q 96 1063 92 1078 q 103 1039 97 1053 q 116 1011 108 1025 q 132 984 124 997 q 146 963 140 971 q 152 936 154 950 q 139 914 150 922 q 118 907 128 907 q 88 925 103 907 q 59 967 72 943 q 38 1015 46 992 q 26 1050 29 1039 q 32 1076 24 1064 q 56 1090 40 1088 z "},"":{"ha":167,"x_min":22,"x_max":153,"o":"m 39 914 q 24 936 26 922 q 31 963 22 950 q 45 984 38 971 q 60 1011 53 997 q 74 1039 68 1025 q 81 1063 79 1053 q 95 1084 85 1078 q 121 1090 106 1090 q 144 1076 136 1088 q 150 1050 153 1064 q 140 1015 149 1039 q 117 967 131 992 q 89 925 104 943 q 58 907 74 907 q 39 914 49 907 z "},"":{"ha":303,"x_min":49,"x_max":265,"o":"m 228 904 q 197 924 206 904 q 177 957 188 940 q 160 983 167 974 q 138 958 150 974 q 114 925 125 942 q 85 910 103 910 q 65 915 76 910 q 51 938 54 924 q 56 964 49 951 q 66 978 57 965 q 88 1007 75 992 q 127 1047 110 1035 q 161 1060 144 1060 q 192 1048 176 1060 q 219 1020 207 1036 q 242 986 232 1004 q 258 956 253 968 q 261 929 265 943 q 244 908 257 915 q 228 904 236 904 z "},"":{"ha":293,"x_min":40,"x_max":257,"o":"m 189 1042 q 219 1061 197 1061 q 236 1057 228 1061 q 253 1037 249 1050 q 250 1010 257 1024 q 234 979 244 997 q 210 945 224 961 q 183 917 197 929 q 153 906 168 906 q 119 918 136 906 q 79 958 101 931 q 58 987 67 974 q 47 1001 49 1000 q 43 1028 40 1014 q 57 1050 46 1042 q 76 1056 64 1056 q 106 1040 94 1056 q 129 1008 117 1024 q 151 982 142 992 q 169 1009 158 993 q 189 1042 179 1025 z "},"":{"ha":332,"x_min":61,"x_max":272,"o":"m 61 1015 q 71 1040 61 1031 q 96 1050 81 1050 q 121 1040 111 1050 q 131 1015 131 1031 q 136 987 131 997 q 161 976 142 976 q 190 983 176 976 q 203 1021 203 990 q 213 1046 203 1036 q 238 1056 222 1056 q 263 1046 253 1056 q 272 1021 272 1036 q 242 938 272 968 q 161 907 213 907 q 87 938 113 907 q 61 1015 61 968 z "},"":{"ha":201,"x_min":50,"x_max":151,"o":"m 50 957 q 65 993 50 978 q 100 1008 79 1008 q 136 993 121 1008 q 151 957 151 978 q 136 922 151 936 q 100 907 121 907 q 65 922 79 907 q 50 957 50 936 z "},"":{"ha":278,"x_min":43,"x_max":254,"o":"m 156 1135 q 218 1107 193 1135 q 247 1051 240 1085 q 243 985 254 1017 q 203 927 232 949 q 138 906 175 906 q 79 927 103 906 q 49 981 56 949 q 46 1026 43 1003 q 59 1071 49 1050 q 88 1108 69 1092 q 132 1131 106 1125 q 156 1135 143 1135 m 168 1060 q 156 1065 163 1065 q 153 1065 154 1065 q 149 1064 151 1064 q 119 1036 126 1058 q 115 996 111 1014 q 124 978 118 982 q 138 974 131 974 q 162 983 151 974 q 176 1006 172 992 q 178 1037 182 1021 q 168 1060 175 1053 z "},"":{"ha":368,"x_min":58,"x_max":318,"o":"m 215 989 q 231 979 222 982 q 249 976 240 976 q 257 1005 249 993 q 283 1017 265 1017 q 308 1007 299 1017 q 318 982 318 997 q 298 928 318 949 q 246 907 278 907 q 200 917 222 907 q 164 943 178 928 q 142 953 156 953 q 133 950 135 953 q 131 940 132 947 q 118 918 128 926 q 96 910 108 910 q 90 911 93 910 q 67 924 76 914 q 61 950 58 935 q 88 1002 67 982 q 143 1022 110 1022 q 182 1014 163 1022 q 215 989 201 1006 z "},"":{"ha":318,"x_min":-6,"x_max":250,"o":"m 11 914 q -3 936 -1 922 q 3 963 -6 950 q 17 984 10 971 q 33 1011 25 997 q 46 1039 40 1025 q 53 1063 51 1053 q 67 1084 57 1078 q 93 1090 78 1090 q 117 1076 108 1088 q 122 1050 125 1064 q 112 1015 121 1039 q 90 967 103 992 q 61 925 76 943 q 31 907 46 907 q 11 914 21 907 m 156 907 q 136 914 146 907 q 122 936 124 922 q 128 963 119 950 q 142 984 135 971 q 158 1011 150 997 q 171 1039 165 1025 q 178 1063 176 1053 q 192 1084 182 1078 q 218 1090 203 1090 q 242 1076 233 1088 q 247 1050 250 1064 q 237 1015 246 1039 q 215 967 228 992 q 186 925 201 943 q 156 907 171 907 z "},"":{"ha":569,"x_min":0,"x_max":556,"o":"m 292 904 q 388 875 350 904 q 449 797 426 846 q 484 683 472 747 q 500 549 496 619 q 504 408 504 479 q 505 274 504 338 q 509 161 506 211 q 525 83 513 111 q 547 69 539 81 q 556 43 556 58 q 543 14 556 26 q 514 1 531 1 q 437 33 465 1 q 392 108 408 64 q 371 201 376 151 q 363 285 365 250 q 272 268 318 271 q 181 265 226 265 q 131 266 156 265 q 83 268 107 267 q 92 163 86 219 q 118 60 99 107 q 122 42 122 51 q 110 13 122 25 q 81 0 97 0 q 35 40 51 0 q 11 131 19 79 q 1 232 3 182 q 0 303 0 282 q 4 409 0 347 q 20 538 8 471 q 53 671 32 606 q 106 788 74 736 q 185 872 139 840 q 292 904 231 904 m 181 349 q 223 349 199 349 q 272 352 247 350 q 319 358 296 354 q 358 371 342 363 q 358 424 358 385 q 356 513 357 463 q 351 617 354 563 q 340 716 347 671 q 321 790 332 761 q 292 819 310 819 q 220 793 251 819 q 167 725 189 767 q 129 631 144 683 q 104 526 114 578 q 90 428 94 475 q 85 353 86 382 q 181 349 133 349 m 200 1074 q 205 1099 197 1088 q 228 1114 213 1111 q 254 1108 243 1114 q 268 1085 265 1101 q 275 1062 269 1075 q 288 1035 281 1049 q 304 1008 296 1021 q 319 985 313 994 q 325 960 328 974 q 311 938 322 946 q 290 931 303 931 q 260 949 275 931 q 232 991 244 967 q 210 1039 219 1015 q 200 1074 201 1063 z "},"":{"ha":569,"x_min":0,"x_max":556,"o":"m 292 904 q 388 875 350 904 q 449 797 426 846 q 484 683 472 747 q 500 549 496 619 q 504 408 504 479 q 505 274 504 338 q 509 161 506 211 q 525 83 513 111 q 547 69 539 81 q 556 43 556 58 q 543 14 556 26 q 514 1 531 1 q 437 33 465 1 q 392 108 408 64 q 371 201 376 151 q 363 285 365 250 q 272 268 318 271 q 181 265 226 265 q 131 266 156 265 q 83 268 107 267 q 92 163 86 219 q 118 60 99 107 q 122 42 122 51 q 110 13 122 25 q 81 0 97 0 q 35 40 51 0 q 11 131 19 79 q 1 232 3 182 q 0 303 0 282 q 4 409 0 347 q 20 538 8 471 q 53 671 32 606 q 106 788 74 736 q 185 872 139 840 q 292 904 231 904 m 85 353 q 181 349 133 349 q 223 349 199 349 q 272 352 247 350 q 319 358 296 354 q 358 371 342 363 q 358 424 358 385 q 356 513 357 463 q 351 617 354 563 q 340 716 347 671 q 321 790 332 761 q 292 819 310 819 q 220 793 251 819 q 167 725 189 767 q 129 631 144 683 q 104 526 114 578 q 90 428 94 475 q 85 353 86 382 m 272 938 q 258 960 260 946 q 264 986 256 974 q 278 1008 271 994 q 294 1035 286 1021 q 307 1063 301 1049 q 314 1086 313 1076 q 328 1108 318 1101 q 354 1114 339 1114 q 378 1099 369 1111 q 383 1074 386 1088 q 373 1039 382 1063 q 351 991 364 1015 q 322 949 338 967 q 292 931 307 931 q 272 938 282 931 z "},"":{"ha":569,"x_min":0,"x_max":556,"o":"m 292 904 q 388 875 350 904 q 449 797 426 846 q 484 683 472 747 q 500 549 496 619 q 504 408 504 479 q 505 274 504 338 q 509 161 506 211 q 525 83 513 111 q 547 69 539 81 q 556 43 556 58 q 543 14 556 26 q 514 1 531 1 q 437 33 465 1 q 392 108 408 64 q 371 201 376 151 q 363 285 365 250 q 272 268 318 271 q 181 265 226 265 q 131 266 156 265 q 83 268 107 267 q 92 163 86 219 q 118 60 99 107 q 122 42 122 51 q 110 13 122 25 q 81 0 97 0 q 35 40 51 0 q 11 131 19 79 q 1 232 3 182 q 0 303 0 282 q 4 409 0 347 q 20 538 8 471 q 53 671 32 606 q 106 788 74 736 q 185 872 139 840 q 292 904 231 904 m 85 353 q 181 349 133 349 q 223 349 199 349 q 272 352 247 350 q 319 358 296 354 q 358 371 342 363 q 358 424 358 385 q 356 513 357 463 q 351 617 354 563 q 340 716 347 671 q 321 790 332 761 q 292 819 310 819 q 220 793 251 819 q 167 725 189 767 q 129 631 144 683 q 104 526 114 578 q 90 428 94 475 q 85 353 86 382 m 361 928 q 331 947 339 928 q 310 981 321 964 q 293 1007 300 997 q 271 981 283 997 q 247 949 258 965 q 218 933 236 933 q 199 939 210 933 q 185 961 188 947 q 189 988 182 975 q 199 1002 190 989 q 221 1031 208 1015 q 260 1071 243 1058 q 294 1083 278 1083 q 325 1072 310 1083 q 353 1044 340 1060 q 376 1010 365 1028 q 392 979 386 992 q 394 953 399 967 q 378 932 390 939 q 361 928 369 928 z "},"":{"ha":569,"x_min":0,"x_max":556,"o":"m 292 904 q 388 875 350 904 q 449 797 426 846 q 484 683 472 747 q 500 549 496 619 q 504 408 504 479 q 505 274 504 338 q 509 161 506 211 q 525 83 513 111 q 547 69 539 81 q 556 43 556 58 q 543 14 556 26 q 514 1 531 1 q 437 33 465 1 q 392 108 408 64 q 371 201 376 151 q 363 285 365 250 q 272 268 318 271 q 181 265 226 265 q 131 266 156 265 q 83 268 107 267 q 92 163 86 219 q 118 60 99 107 q 122 42 122 51 q 110 13 122 25 q 81 0 97 0 q 35 40 51 0 q 11 131 19 79 q 1 232 3 182 q 0 303 0 282 q 4 409 0 347 q 20 538 8 471 q 53 671 32 606 q 106 788 74 736 q 185 872 139 840 q 292 904 231 904 m 85 353 q 181 349 133 349 q 223 349 199 349 q 272 352 247 350 q 319 358 296 354 q 358 371 342 363 q 358 424 358 385 q 356 513 357 463 q 351 617 354 563 q 340 716 347 671 q 321 790 332 761 q 292 819 310 819 q 220 793 251 819 q 167 725 189 767 q 129 631 144 683 q 104 526 114 578 q 90 428 94 475 q 85 353 86 382 m 315 1013 q 331 1003 322 1006 q 349 1000 340 1000 q 357 1028 349 1017 q 383 1040 365 1040 q 408 1031 399 1040 q 418 1006 418 1021 q 398 951 418 972 q 346 931 378 931 q 300 941 322 931 q 264 967 278 951 q 242 976 256 976 q 233 974 235 976 q 231 964 232 971 q 218 942 228 950 q 196 933 208 933 q 190 935 193 933 q 167 948 176 938 q 161 974 158 958 q 188 1026 167 1006 q 243 1046 210 1046 q 282 1038 263 1046 q 315 1013 301 1029 z "},"":{"ha":569,"x_min":0,"x_max":556,"o":"m 292 904 q 388 875 350 904 q 449 797 426 846 q 484 683 472 747 q 500 549 496 619 q 504 408 504 479 q 505 274 504 338 q 509 161 506 211 q 525 83 513 111 q 547 69 539 81 q 556 43 556 58 q 543 14 556 26 q 514 1 531 1 q 437 33 465 1 q 392 108 408 64 q 371 201 376 151 q 363 285 365 250 q 272 268 318 271 q 181 265 226 265 q 131 266 156 265 q 83 268 107 267 q 92 163 86 219 q 118 60 99 107 q 122 42 122 51 q 110 13 122 25 q 81 0 97 0 q 35 40 51 0 q 11 131 19 79 q 1 232 3 182 q 0 303 0 282 q 4 409 0 347 q 20 538 8 471 q 53 671 32 606 q 106 788 74 736 q 185 872 139 840 q 292 904 231 904 m 85 353 q 181 349 133 349 q 223 349 199 349 q 272 352 247 350 q 319 358 296 354 q 358 371 342 363 q 358 424 358 385 q 356 513 357 463 q 351 617 354 563 q 340 716 347 671 q 321 790 332 761 q 292 819 310 819 q 220 793 251 819 q 167 725 189 767 q 129 631 144 683 q 104 526 114 578 q 90 428 94 475 q 85 353 86 382 m 367 931 q 331 945 346 931 q 317 981 317 960 q 331 1017 317 1001 q 367 1032 346 1032 q 403 1017 388 1032 q 418 981 418 1001 q 403 945 418 960 q 367 931 388 931 m 214 931 q 178 945 193 931 q 164 981 164 960 q 178 1017 164 1001 q 214 1032 193 1032 q 250 1017 235 1032 q 265 981 265 1001 q 250 945 265 960 q 214 931 235 931 z "},"":{"ha":569,"x_min":0,"x_max":556,"o":"m 292 904 q 388 875 350 904 q 449 797 426 846 q 484 683 472 747 q 500 549 496 619 q 504 408 504 479 q 505 274 504 338 q 509 161 506 211 q 525 83 513 111 q 547 69 539 81 q 556 43 556 58 q 543 14 556 26 q 514 1 531 1 q 437 33 465 1 q 392 108 408 64 q 371 201 376 151 q 363 285 365 250 q 272 268 318 271 q 181 265 226 265 q 131 266 156 265 q 83 268 107 267 q 92 163 86 219 q 118 60 99 107 q 122 42 122 51 q 110 13 122 25 q 81 0 97 0 q 35 40 51 0 q 11 131 19 79 q 1 232 3 182 q 0 303 0 282 q 4 409 0 347 q 20 538 8 471 q 53 671 32 606 q 106 788 74 736 q 185 872 139 840 q 292 904 231 904 m 85 353 q 181 349 133 349 q 223 349 199 349 q 272 352 247 350 q 319 358 296 354 q 358 371 342 363 q 358 424 358 385 q 356 513 357 463 q 351 617 354 563 q 340 716 347 671 q 321 790 332 761 q 292 819 310 819 q 220 793 251 819 q 167 725 189 767 q 129 631 144 683 q 104 526 114 578 q 90 428 94 475 q 85 353 86 382 m 310 1158 q 372 1131 347 1158 q 401 1074 394 1108 q 397 1008 408 1040 q 358 951 386 972 q 292 929 329 929 q 233 951 257 929 q 203 1004 210 972 q 200 1050 197 1026 q 213 1094 203 1074 q 242 1132 224 1115 q 286 1154 260 1149 q 310 1158 297 1158 m 322 1083 q 310 1089 317 1089 q 307 1088 308 1089 q 303 1088 306 1088 q 273 1060 281 1082 q 269 1019 265 1038 q 278 1001 272 1006 q 292 997 285 997 q 316 1006 306 997 q 331 1029 326 1015 q 333 1060 336 1044 q 322 1083 329 1076 z "},"":{"ha":568,"x_min":22,"x_max":554,"o":"m 244 814 q 223 813 233 814 q 206 803 213 813 q 189 747 194 789 q 181 656 183 704 q 177 562 178 607 q 176 494 176 517 q 233 490 204 492 q 290 489 261 489 q 335 490 310 489 q 379 499 361 492 q 418 526 389 526 q 447 514 435 526 q 460 485 460 501 q 441 440 460 456 q 395 416 422 424 q 340 407 368 408 q 290 406 311 406 q 233 407 261 406 q 176 411 204 408 q 177 347 176 393 q 181 251 178 301 q 188 158 183 201 q 203 100 193 114 q 219 91 207 94 q 245 86 231 88 q 273 84 260 85 q 294 83 286 83 q 341 85 315 83 q 392 92 367 88 q 442 103 418 96 q 485 122 467 111 q 508 129 496 129 q 538 117 525 129 q 550 88 550 106 q 517 44 550 61 q 442 17 485 26 q 356 3 399 7 q 294 0 314 0 q 245 3 271 0 q 197 13 219 6 q 104 81 139 32 q 51 193 69 131 q 28 322 33 256 q 22 439 22 388 q 27 547 22 485 q 47 670 32 608 q 86 785 61 732 q 151 867 111 839 q 208 891 178 885 q 268 897 238 897 q 347 892 308 897 q 426 888 386 888 q 462 892 450 888 q 481 901 474 896 q 495 911 489 907 q 513 915 501 915 q 542 903 529 915 q 554 874 554 890 q 540 840 554 853 q 505 819 525 826 q 463 808 485 811 q 425 804 440 804 q 335 809 381 804 q 244 814 290 814 m 257 1074 q 262 1099 254 1088 q 285 1114 269 1111 q 311 1108 300 1114 q 325 1085 322 1101 q 332 1062 326 1075 q 345 1035 338 1049 q 361 1008 353 1021 q 376 985 369 994 q 382 960 385 974 q 368 938 379 946 q 347 931 360 931 q 317 949 332 931 q 289 991 301 967 q 267 1039 276 1015 q 257 1074 258 1063 z "},"":{"ha":568,"x_min":22,"x_max":554,"o":"m 236 814 q 219 812 228 814 q 206 803 211 810 q 189 747 194 789 q 181 656 183 704 q 177 562 178 607 q 176 494 176 517 q 233 490 204 492 q 290 489 261 489 q 335 490 310 489 q 379 499 361 492 q 418 526 389 526 q 447 514 435 526 q 460 485 460 501 q 441 440 460 456 q 395 416 422 424 q 340 407 368 408 q 290 406 311 406 q 233 407 261 406 q 176 411 204 408 q 177 347 176 393 q 181 251 178 301 q 188 158 183 201 q 203 100 193 114 q 219 91 207 94 q 245 86 231 88 q 273 84 260 85 q 294 83 286 83 q 341 85 315 83 q 392 92 367 88 q 442 103 418 96 q 485 122 467 111 q 508 129 496 129 q 538 117 525 129 q 550 88 550 106 q 517 44 550 61 q 442 17 485 26 q 356 3 399 7 q 294 0 314 0 q 245 3 271 0 q 197 13 219 6 q 104 81 139 32 q 51 193 69 131 q 28 322 33 256 q 22 439 22 388 q 27 547 22 485 q 47 670 32 608 q 86 785 61 732 q 151 867 111 839 q 208 891 178 885 q 268 897 238 897 q 347 892 308 897 q 426 888 386 888 q 462 892 450 888 q 481 901 474 896 q 495 911 489 907 q 513 915 501 915 q 542 903 529 915 q 554 874 554 890 q 540 840 554 853 q 505 819 525 826 q 463 808 485 811 q 425 804 440 804 q 335 809 381 804 q 244 814 290 814 l 236 814 m 328 938 q 313 960 315 946 q 319 986 311 974 q 334 1008 326 994 q 349 1035 342 1021 q 363 1063 357 1049 q 369 1086 368 1076 q 384 1108 374 1101 q 410 1114 394 1114 q 433 1099 425 1111 q 439 1074 442 1088 q 428 1039 438 1063 q 406 991 419 1015 q 378 949 393 967 q 347 931 363 931 q 328 938 338 931 z "},"":{"ha":568,"x_min":22,"x_max":554,"o":"m 236 814 q 219 812 228 814 q 206 803 211 810 q 189 747 194 789 q 181 656 183 704 q 177 562 178 607 q 176 494 176 517 q 233 490 204 492 q 290 489 261 489 q 335 490 310 489 q 379 499 361 492 q 418 526 389 526 q 447 514 435 526 q 460 485 460 501 q 441 440 460 456 q 395 416 422 424 q 340 407 368 408 q 290 406 311 406 q 233 407 261 406 q 176 411 204 408 q 177 347 176 393 q 181 251 178 301 q 188 158 183 201 q 203 100 193 114 q 219 91 207 94 q 245 86 231 88 q 273 84 260 85 q 294 83 286 83 q 341 85 315 83 q 392 92 367 88 q 442 103 418 96 q 485 122 467 111 q 508 129 496 129 q 538 117 525 129 q 550 88 550 106 q 517 44 550 61 q 442 17 485 26 q 356 3 399 7 q 294 0 314 0 q 245 3 271 0 q 197 13 219 6 q 104 81 139 32 q 51 193 69 131 q 28 322 33 256 q 22 439 22 388 q 27 547 22 485 q 47 670 32 608 q 86 785 61 732 q 151 867 111 839 q 208 891 178 885 q 268 897 238 897 q 347 892 308 897 q 426 888 386 888 q 462 892 450 888 q 481 901 474 896 q 495 911 489 907 q 513 915 501 915 q 542 903 529 915 q 554 874 554 890 q 540 840 554 853 q 505 819 525 826 q 463 808 485 811 q 425 804 440 804 q 335 809 381 804 q 244 814 290 814 l 236 814 m 418 928 q 388 947 396 928 q 367 981 378 964 q 350 1007 357 997 q 328 981 340 997 q 304 949 315 965 q 275 933 293 933 q 256 939 267 933 q 242 961 244 947 q 246 988 239 975 q 256 1002 247 989 q 278 1031 265 1015 q 317 1071 300 1058 q 351 1083 335 1083 q 382 1072 367 1083 q 410 1044 397 1060 q 433 1010 422 1028 q 449 979 443 992 q 451 953 456 967 q 435 932 447 939 q 418 928 426 928 z "},"":{"ha":568,"x_min":22,"x_max":554,"o":"m 236 814 q 219 812 228 814 q 206 803 211 810 q 189 747 194 789 q 181 656 183 704 q 177 562 178 607 q 176 494 176 517 q 233 490 204 492 q 290 489 261 489 q 335 490 310 489 q 379 499 361 492 q 418 526 389 526 q 447 514 435 526 q 460 485 460 501 q 441 440 460 456 q 395 416 422 424 q 340 407 368 408 q 290 406 311 406 q 233 407 261 406 q 176 411 204 408 q 177 347 176 393 q 181 251 178 301 q 188 158 183 201 q 203 100 193 114 q 219 91 207 94 q 245 86 231 88 q 273 84 260 85 q 294 83 286 83 q 341 85 315 83 q 392 92 367 88 q 442 103 418 96 q 485 122 467 111 q 508 129 496 129 q 538 117 525 129 q 550 88 550 106 q 517 44 550 61 q 442 17 485 26 q 356 3 399 7 q 294 0 314 0 q 245 3 271 0 q 197 13 219 6 q 104 81 139 32 q 51 193 69 131 q 28 322 33 256 q 22 439 22 388 q 27 547 22 485 q 47 670 32 608 q 86 785 61 732 q 151 867 111 839 q 208 891 178 885 q 268 897 238 897 q 347 892 308 897 q 426 888 386 888 q 462 892 450 888 q 481 901 474 896 q 495 911 489 907 q 513 915 501 915 q 542 903 529 915 q 554 874 554 890 q 540 840 554 853 q 505 819 525 826 q 463 808 485 811 q 425 804 440 804 q 335 809 381 804 q 244 814 290 814 l 236 814 m 422 931 q 387 945 401 931 q 372 981 372 960 q 387 1017 372 1001 q 422 1032 401 1032 q 458 1017 443 1032 q 474 981 474 1001 q 458 945 474 960 q 422 931 443 931 m 269 931 q 234 945 249 931 q 219 981 219 960 q 234 1017 219 1001 q 269 1032 249 1032 q 306 1017 290 1032 q 321 981 321 1001 q 306 945 321 960 q 269 931 290 931 z "},"":{"ha":267,"x_min":-39,"x_max":244,"o":"m 207 42 q 194 13 207 25 q 165 0 182 0 q 126 18 142 0 q 101 65 110 36 q 88 128 92 93 q 83 198 83 164 q 83 260 82 232 q 83 306 83 289 q 84 372 83 329 q 85 467 85 414 q 84 576 85 519 q 80 682 83 632 q 69 770 76 732 q 51 824 63 808 q 25 838 36 826 q 14 865 14 850 q 26 894 14 882 q 54 907 38 907 q 157 869 119 907 q 214 776 194 831 q 239 659 233 721 q 244 549 244 597 q 238 378 244 463 q 221 207 231 293 q 212 124 217 167 q 207 42 207 82 m 83 985 q 90 960 92 974 q 75 938 88 946 q 56 931 68 931 q 25 949 40 931 q -3 991 10 967 q -26 1039 -17 1015 q -36 1074 -35 1063 q -31 1099 -39 1088 q -8 1114 -22 1111 q 18 1108 7 1114 q 32 1085 29 1101 q 40 1062 35 1075 q 53 1035 46 1049 q 69 1008 61 1021 q 83 985 78 994 z "},"":{"ha":267,"x_min":14,"x_max":244,"o":"m 14 865 q 26 894 14 882 q 54 907 38 907 q 157 869 119 907 q 214 776 194 831 q 239 659 233 721 q 244 549 244 597 q 238 378 244 463 q 221 207 231 293 q 212 124 217 167 q 207 42 207 82 q 194 13 207 25 q 165 0 182 0 q 126 18 142 0 q 101 65 110 36 q 88 128 92 93 q 83 198 83 164 q 83 260 82 232 q 83 306 83 289 q 84 372 83 329 q 85 467 85 414 q 84 576 85 519 q 80 682 83 632 q 69 770 76 732 q 51 824 63 808 q 25 838 36 826 q 14 865 14 850 m 36 938 q 22 960 24 946 q 28 986 19 974 q 42 1008 35 994 q 58 1035 50 1021 q 71 1063 65 1049 q 78 1086 76 1076 q 92 1108 82 1101 q 118 1114 103 1114 q 142 1099 133 1111 q 147 1074 150 1088 q 137 1039 146 1063 q 115 991 128 1015 q 86 949 101 967 q 56 931 71 931 q 36 938 46 931 z "},"":{"ha":267,"x_min":-53,"x_max":244,"o":"m 14 865 q 26 894 14 882 q 54 907 38 907 q 157 869 119 907 q 214 776 194 831 q 239 659 233 721 q 244 549 244 597 q 238 378 244 463 q 221 207 231 293 q 212 124 217 167 q 207 42 207 82 q 194 13 207 25 q 165 0 182 0 q 126 18 142 0 q 101 65 110 36 q 88 128 92 93 q 83 198 83 164 q 83 260 82 232 q 83 306 83 289 q 84 372 83 329 q 85 467 85 414 q 84 576 85 519 q 80 682 83 632 q 69 770 76 732 q 51 824 63 808 q 25 838 36 826 q 14 865 14 850 m 126 928 q 96 947 104 928 q 76 981 86 964 q 58 1007 65 997 q 36 981 49 997 q 13 949 24 965 q -17 933 1 933 q -36 939 -25 933 q -50 961 -47 947 q -46 988 -53 975 q -35 1002 -44 989 q -14 1031 -26 1015 q 26 1071 8 1058 q 60 1083 43 1083 q 90 1072 75 1083 q 118 1044 106 1060 q 141 1010 131 1028 q 157 979 151 992 q 160 953 164 967 q 143 932 156 939 q 126 928 135 928 z "},"":{"ha":267,"x_min":-72,"x_max":244,"o":"m 14 865 q 26 894 14 882 q 54 907 38 907 q 157 869 119 907 q 214 776 194 831 q 239 659 233 721 q 244 549 244 597 q 238 378 244 463 q 221 207 231 293 q 212 124 217 167 q 207 42 207 82 q 194 13 207 25 q 165 0 182 0 q 126 18 142 0 q 101 65 110 36 q 88 128 92 93 q 83 198 83 164 q 83 260 82 232 q 83 306 83 289 q 84 372 83 329 q 85 467 85 414 q 84 576 85 519 q 80 682 83 632 q 69 770 76 732 q 51 824 63 808 q 25 838 36 826 q 14 865 14 850 m 131 931 q 95 945 110 931 q 81 981 81 960 q 95 1017 81 1001 q 131 1032 110 1032 q 167 1017 151 1032 q 182 981 182 1001 q 167 945 182 960 q 131 931 151 931 m -22 931 q -58 945 -43 931 q -72 981 -72 960 q -58 1017 -72 1001 q -22 1032 -43 1032 q 14 1017 -1 1032 q 29 981 29 1001 q 14 945 29 960 q -22 931 -1 931 z "},"":{"ha":713,"x_min":28,"x_max":690,"o":"m 428 885 q 526 860 485 885 q 596 797 567 836 q 643 706 625 757 q 672 601 661 654 q 687 495 683 547 q 690 401 690 443 q 689 342 690 381 q 683 260 688 304 q 669 169 678 215 q 644 85 660 122 q 608 24 629 47 q 557 0 588 0 q 522 18 532 0 q 513 58 513 36 q 519 232 513 146 q 525 406 525 318 q 524 458 525 422 q 521 538 524 494 q 512 628 518 582 q 495 714 506 675 q 468 777 485 753 q 428 801 451 801 q 369 758 394 801 q 326 647 344 714 q 294 497 307 579 q 272 340 282 415 q 256 203 263 264 q 244 115 250 142 q 237 82 242 101 q 224 45 232 63 q 202 15 215 28 q 169 3 189 3 q 112 22 136 3 q 72 73 88 42 q 48 142 57 104 q 35 219 39 181 q 29 294 31 258 q 28 353 28 329 q 29 415 28 374 q 35 508 31 457 q 47 611 39 558 q 70 708 56 664 q 105 779 85 751 q 154 807 125 807 q 183 797 174 807 q 196 772 192 786 q 200 740 200 757 q 200 710 200 722 q 197 528 200 618 q 192 346 194 438 q 201 433 196 381 q 217 547 207 486 q 244 667 228 607 q 285 776 260 728 q 345 854 310 824 q 428 885 381 885 m 453 1013 q 469 1003 460 1006 q 486 1000 478 1000 q 494 1028 486 1017 q 521 1040 503 1040 q 546 1031 536 1040 q 556 1006 556 1021 q 535 951 556 972 q 483 931 515 931 q 438 941 460 931 q 401 967 415 951 q 379 976 393 976 q 371 974 372 976 q 368 964 369 971 q 356 942 365 950 q 333 933 346 933 q 328 935 331 933 q 305 948 314 938 q 299 974 296 958 q 326 1026 304 1006 q 381 1046 347 1046 q 419 1038 400 1046 q 453 1013 439 1029 z "},"":{"ha":668,"x_min":21,"x_max":649,"o":"m 649 461 q 642 365 649 417 q 619 261 635 313 q 580 163 604 210 q 522 79 556 115 q 443 22 488 43 q 343 0 399 0 q 197 39 258 0 q 97 140 136 78 q 39 277 57 201 q 21 426 21 353 q 35 559 21 490 q 81 687 50 628 q 163 789 113 746 q 283 846 213 832 q 290 883 276 865 q 324 900 304 900 q 473 860 411 900 q 574 756 535 819 q 631 614 613 692 q 649 461 649 536 m 343 83 q 448 124 406 83 q 517 224 490 165 q 554 347 543 282 q 565 461 565 413 q 556 570 565 513 q 522 679 546 628 q 458 767 497 731 q 360 814 418 804 q 359 796 363 804 q 349 782 356 788 q 333 773 342 776 q 317 768 324 769 q 247 717 274 756 q 204 628 219 678 q 184 527 189 579 q 179 436 179 475 q 182 376 179 413 q 192 301 185 340 q 211 224 199 263 q 242 153 224 185 q 285 103 260 122 q 343 83 310 83 m 344 938 q 324 931 338 931 q 293 949 308 931 q 265 991 278 967 q 244 1039 253 1015 q 233 1074 235 1063 q 238 1099 231 1088 q 261 1114 246 1111 q 288 1108 276 1114 q 301 1085 299 1101 q 308 1062 303 1075 q 322 1035 314 1049 q 338 1008 329 1021 q 353 985 346 994 q 358 960 361 974 q 344 938 356 946 z "},"":{"ha":668,"x_min":21,"x_max":649,"o":"m 649 461 q 642 365 649 417 q 619 261 635 313 q 580 163 604 210 q 522 79 556 115 q 443 22 488 43 q 343 0 399 0 q 197 39 258 0 q 97 140 136 78 q 39 277 57 201 q 21 426 21 353 q 35 559 21 490 q 81 687 50 628 q 163 789 113 746 q 283 846 213 832 q 290 883 276 865 q 324 900 304 900 q 473 860 411 900 q 574 756 535 819 q 631 614 613 692 q 649 461 649 536 m 565 461 q 556 570 565 513 q 522 679 546 628 q 458 767 497 731 q 360 814 418 804 q 359 796 363 804 q 349 782 356 788 q 333 773 342 776 q 317 768 324 769 q 247 717 274 756 q 204 628 219 678 q 184 527 189 579 q 179 436 179 475 q 182 376 179 413 q 192 301 185 340 q 211 224 199 263 q 242 153 224 185 q 285 103 260 122 q 343 83 310 83 q 448 124 406 83 q 517 224 490 165 q 554 347 543 282 q 565 461 565 413 m 306 938 q 291 960 293 946 q 297 986 289 974 q 312 1008 304 994 q 327 1035 319 1021 q 340 1063 335 1049 q 347 1086 346 1076 q 362 1108 351 1101 q 388 1114 372 1114 q 411 1099 403 1111 q 417 1074 419 1088 q 406 1039 415 1063 q 384 991 397 1015 q 356 949 371 967 q 325 931 340 931 q 306 938 315 931 z "},"":{"ha":668,"x_min":21,"x_max":649,"o":"m 649 461 q 642 365 649 417 q 619 261 635 313 q 580 163 604 210 q 522 79 556 115 q 443 22 488 43 q 343 0 399 0 q 197 39 258 0 q 97 140 136 78 q 39 277 57 201 q 21 426 21 353 q 35 559 21 490 q 81 687 50 628 q 163 789 113 746 q 283 846 213 832 q 290 883 276 865 q 324 900 304 900 q 473 860 411 900 q 574 756 535 819 q 631 614 613 692 q 649 461 649 536 m 565 461 q 556 570 565 513 q 522 679 546 628 q 458 767 497 731 q 360 814 418 804 q 359 796 363 804 q 349 782 356 788 q 333 773 342 776 q 317 768 324 769 q 247 717 274 756 q 204 628 219 678 q 184 527 189 579 q 179 436 179 475 q 182 376 179 413 q 192 301 185 340 q 211 224 199 263 q 242 153 224 185 q 285 103 260 122 q 343 83 310 83 q 448 124 406 83 q 517 224 490 165 q 554 347 543 282 q 565 461 565 413 m 394 928 q 364 947 372 928 q 344 981 354 964 q 326 1007 333 997 q 304 981 317 997 q 281 949 292 965 q 251 933 269 933 q 232 939 243 933 q 218 961 221 947 q 222 988 215 975 q 233 1002 224 989 q 254 1031 242 1015 q 294 1071 276 1058 q 328 1083 311 1083 q 358 1072 343 1083 q 386 1044 374 1060 q 409 1010 399 1028 q 425 979 419 992 q 428 953 432 967 q 411 932 424 939 q 394 928 403 928 z "},"":{"ha":668,"x_min":21,"x_max":649,"o":"m 649 461 q 642 365 649 417 q 619 261 635 313 q 580 163 604 210 q 522 79 556 115 q 443 22 488 43 q 343 0 399 0 q 197 39 258 0 q 97 140 136 78 q 39 277 57 201 q 21 426 21 353 q 35 559 21 490 q 81 687 50 628 q 163 789 113 746 q 283 846 213 832 q 290 883 276 865 q 324 900 304 900 q 473 860 411 900 q 574 756 535 819 q 631 614 613 692 q 649 461 649 536 m 565 461 q 556 570 565 513 q 522 679 546 628 q 458 767 497 731 q 360 814 418 804 q 359 796 363 804 q 349 782 356 788 q 333 773 342 776 q 317 768 324 769 q 247 717 274 756 q 204 628 219 678 q 184 527 189 579 q 179 436 179 475 q 182 376 179 413 q 192 301 185 340 q 211 224 199 263 q 242 153 224 185 q 285 103 260 122 q 343 83 310 83 q 448 124 406 83 q 517 224 490 165 q 554 347 543 282 q 565 461 565 413 m 349 1013 q 365 1003 356 1006 q 382 1000 374 1000 q 390 1028 382 1017 q 417 1040 399 1040 q 442 1031 432 1040 q 451 1006 451 1021 q 431 951 451 972 q 379 931 411 931 q 333 941 356 931 q 297 967 311 951 q 275 976 289 976 q 267 974 268 976 q 264 964 265 971 q 251 942 261 950 q 229 933 242 933 q 224 935 226 933 q 201 948 210 938 q 194 974 192 958 q 222 1026 200 1006 q 276 1046 243 1046 q 315 1038 296 1046 q 349 1013 335 1029 z "},"":{"ha":668,"x_min":21,"x_max":649,"o":"m 649 461 q 642 365 649 417 q 619 261 635 313 q 580 163 604 210 q 522 79 556 115 q 443 22 488 43 q 343 0 399 0 q 197 39 258 0 q 97 140 136 78 q 39 277 57 201 q 21 426 21 353 q 35 559 21 490 q 81 687 50 628 q 163 789 113 746 q 283 846 213 832 q 290 883 276 865 q 324 900 304 900 q 473 860 411 900 q 574 756 535 819 q 631 614 613 692 q 649 461 649 536 m 565 461 q 556 570 565 513 q 522 679 546 628 q 458 767 497 731 q 360 814 418 804 q 359 796 363 804 q 349 782 356 788 q 333 773 342 776 q 317 768 324 769 q 247 717 274 756 q 204 628 219 678 q 184 527 189 579 q 179 436 179 475 q 182 376 179 413 q 192 301 185 340 q 211 224 199 263 q 242 153 224 185 q 285 103 260 122 q 343 83 310 83 q 448 124 406 83 q 517 224 490 165 q 554 347 543 282 q 565 461 565 413 m 400 931 q 365 945 379 931 q 350 981 350 960 q 365 1017 350 1001 q 400 1032 379 1032 q 436 1017 421 1032 q 451 981 451 1001 q 436 945 451 960 q 400 931 421 931 m 247 931 q 212 945 226 931 q 197 981 197 960 q 212 1017 197 1001 q 247 1032 226 1032 q 283 1017 268 1032 q 299 981 299 1001 q 283 945 299 960 q 247 931 268 931 z "},"":{"ha":725,"x_min":24,"x_max":707,"o":"m 507 714 q 517 745 511 728 q 531 777 522 763 q 553 801 540 792 q 583 811 565 811 q 651 785 626 811 q 689 719 676 758 q 704 639 701 681 q 707 565 707 597 q 688 303 707 435 q 646 43 668 172 q 633 13 643 25 q 604 1 624 1 q 556 22 574 1 q 531 72 539 43 q 521 133 522 101 q 519 186 519 165 q 526 335 519 261 q 540 485 533 410 q 524 406 533 454 q 499 304 514 358 q 464 196 483 250 q 418 98 444 142 q 358 27 392 54 q 285 0 325 0 q 155 38 206 0 q 75 133 104 75 q 35 261 46 192 q 24 394 24 331 q 28 473 24 424 q 42 579 32 522 q 67 694 51 636 q 106 800 83 753 q 160 877 129 847 q 231 907 192 907 q 260 894 247 907 q 272 865 272 882 q 272 858 272 861 q 269 850 271 854 q 203 601 226 726 q 179 344 179 475 q 182 274 179 318 q 195 188 185 231 q 226 115 206 146 q 285 83 247 83 q 336 124 311 83 q 384 226 361 164 q 426 365 407 289 q 462 510 446 440 q 489 636 478 581 q 507 714 500 692 m 400 918 q 369 936 385 918 q 341 978 354 954 q 319 1026 328 1003 q 308 1060 311 1050 q 314 1086 306 1075 q 338 1100 322 1097 q 343 1101 339 1101 q 365 1093 356 1101 q 378 1072 375 1085 q 385 1049 379 1063 q 398 1021 390 1035 q 414 994 406 1007 q 428 972 422 982 q 434 947 436 961 q 421 924 432 932 q 400 918 411 918 z "},"":{"ha":725,"x_min":24,"x_max":707,"o":"m 604 1 q 556 22 574 1 q 531 72 539 43 q 521 133 522 101 q 519 186 519 165 q 526 335 519 261 q 540 485 533 410 q 524 406 533 454 q 499 304 514 358 q 464 196 483 250 q 418 98 444 142 q 358 27 392 54 q 285 0 325 0 q 155 38 206 0 q 75 133 104 75 q 35 261 46 192 q 24 394 24 331 q 28 473 24 424 q 42 579 32 522 q 67 694 51 636 q 106 800 83 753 q 160 877 129 847 q 231 907 192 907 q 260 894 247 907 q 272 865 272 882 q 272 858 272 861 q 269 850 271 854 q 203 601 226 726 q 179 344 179 475 q 182 274 179 318 q 195 188 185 231 q 226 115 206 146 q 285 83 247 83 q 336 124 311 83 q 384 226 361 164 q 426 365 407 289 q 462 510 446 440 q 489 636 478 581 q 507 714 500 692 q 517 745 511 728 q 531 777 522 763 q 553 801 540 792 q 583 811 565 811 q 651 785 626 811 q 689 719 676 758 q 704 639 701 681 q 707 565 707 597 q 688 303 707 435 q 646 43 668 172 q 633 13 643 25 q 604 1 624 1 m 381 925 q 366 947 368 933 q 372 974 364 961 q 387 995 379 982 q 402 1022 394 1008 q 415 1050 410 1036 q 422 1074 421 1064 q 437 1095 426 1089 q 463 1101 447 1101 q 486 1087 478 1099 q 492 1061 494 1075 q 481 1026 490 1050 q 459 978 472 1003 q 431 936 446 954 q 400 918 415 918 q 381 925 390 918 z "},"":{"ha":725,"x_min":24,"x_max":707,"o":"m 604 1 q 556 22 574 1 q 531 72 539 43 q 521 133 522 101 q 519 186 519 165 q 526 335 519 261 q 540 485 533 410 q 524 406 533 454 q 499 304 514 358 q 464 196 483 250 q 418 98 444 142 q 358 27 392 54 q 285 0 325 0 q 155 38 206 0 q 75 133 104 75 q 35 261 46 192 q 24 394 24 331 q 28 473 24 424 q 42 579 32 522 q 67 694 51 636 q 106 800 83 753 q 160 877 129 847 q 231 907 192 907 q 260 894 247 907 q 272 865 272 882 q 272 858 272 861 q 269 850 271 854 q 203 601 226 726 q 179 344 179 475 q 182 274 179 318 q 195 188 185 231 q 226 115 206 146 q 285 83 247 83 q 336 124 311 83 q 384 226 361 164 q 426 365 407 289 q 462 510 446 440 q 489 636 478 581 q 507 714 500 692 q 517 745 511 728 q 531 777 522 763 q 553 801 540 792 q 583 811 565 811 q 651 785 626 811 q 689 719 676 758 q 704 639 701 681 q 707 565 707 597 q 688 303 707 435 q 646 43 668 172 q 633 13 643 25 q 604 1 624 1 m 471 915 q 440 935 449 915 q 420 968 431 951 q 403 994 410 985 q 381 969 393 985 q 357 936 368 953 q 328 921 346 921 q 308 926 319 921 q 294 949 297 935 q 299 975 292 963 q 309 990 300 976 q 331 1018 318 1003 q 370 1058 353 1046 q 404 1071 388 1071 q 435 1059 419 1071 q 463 1031 450 1047 q 485 997 475 1015 q 501 967 496 979 q 504 940 508 954 q 488 919 500 926 q 471 915 479 915 z "},"":{"ha":725,"x_min":24,"x_max":707,"o":"m 604 1 q 556 22 574 1 q 531 72 539 43 q 521 133 522 101 q 519 186 519 165 q 526 335 519 261 q 540 485 533 410 q 524 406 533 454 q 499 304 514 358 q 464 196 483 250 q 418 98 444 142 q 358 27 392 54 q 285 0 325 0 q 155 38 206 0 q 75 133 104 75 q 35 261 46 192 q 24 394 24 331 q 28 473 24 424 q 42 579 32 522 q 67 694 51 636 q 106 800 83 753 q 160 877 129 847 q 231 907 192 907 q 260 894 247 907 q 272 865 272 882 q 272 858 272 861 q 269 850 271 854 q 203 601 226 726 q 179 344 179 475 q 182 274 179 318 q 195 188 185 231 q 226 115 206 146 q 285 83 247 83 q 336 124 311 83 q 384 226 361 164 q 426 365 407 289 q 462 510 446 440 q 489 636 478 581 q 507 714 500 692 q 517 745 511 728 q 531 777 522 763 q 553 801 540 792 q 583 811 565 811 q 651 785 626 811 q 689 719 676 758 q 704 639 701 681 q 707 565 707 597 q 688 303 707 435 q 646 43 668 172 q 633 13 643 25 q 604 1 624 1 m 475 918 q 440 933 454 918 q 425 968 425 947 q 440 1004 425 989 q 475 1019 454 1019 q 511 1004 496 1019 q 526 968 526 989 q 511 933 526 947 q 475 918 496 918 m 322 918 q 287 933 301 918 q 272 968 272 947 q 287 1004 272 989 q 322 1019 301 1019 q 358 1004 343 1019 q 374 968 374 989 q 358 933 374 947 q 322 918 343 918 z "},"":{"ha":628,"x_min":14,"x_max":615,"o":"m 493 196 q 435 120 468 156 q 365 58 403 85 q 282 15 326 31 q 188 0 238 0 q 66 49 110 0 q 22 174 22 99 q 38 261 22 218 q 81 338 53 304 q 149 393 110 372 q 235 414 188 414 q 417 369 332 414 q 453 522 440 444 q 467 678 467 599 l 467 686 q 428 606 450 647 q 376 529 406 564 q 307 473 346 494 q 219 451 268 451 q 126 474 165 451 q 63 535 88 497 q 26 619 38 572 q 14 713 14 665 q 19 768 14 736 q 35 829 24 800 q 67 878 47 858 q 119 899 88 899 q 157 878 147 899 q 169 835 167 857 q 172 776 172 806 q 172 716 172 746 q 174 656 172 686 q 183 597 176 626 q 188 581 185 592 q 194 560 190 569 q 205 542 199 550 q 219 535 211 535 q 283 556 256 535 q 333 608 311 576 q 371 678 354 640 q 399 749 388 715 q 419 808 411 783 q 435 839 428 833 q 467 853 451 853 q 541 828 513 853 q 586 769 569 804 q 609 692 603 733 q 615 614 615 650 q 594 438 615 526 q 535 271 572 350 q 542 254 539 263 q 546 236 546 246 q 533 207 546 219 q 504 194 521 194 q 499 195 501 194 q 493 196 496 196 m 188 83 q 257 104 225 83 q 314 156 289 125 q 358 224 339 188 q 389 290 376 260 q 235 331 317 331 q 181 316 206 331 q 140 279 157 301 q 115 229 124 257 q 106 174 106 201 q 125 108 106 133 q 188 83 144 83 m 285 924 q 270 946 272 932 q 276 972 268 960 q 291 994 283 981 q 306 1021 299 1007 q 319 1049 314 1035 q 326 1072 325 1063 q 341 1094 331 1088 q 367 1100 351 1100 q 390 1085 382 1097 q 396 1060 399 1074 q 385 1025 394 1049 q 363 977 376 1001 q 335 935 350 953 q 304 917 319 917 q 285 924 294 917 z "},"":{"ha":533,"x_min":21,"x_max":507,"o":"m 317 454 q 401 438 365 454 q 461 392 438 421 q 496 325 485 364 q 507 240 507 286 q 502 179 507 219 q 485 99 497 139 q 454 30 474 60 q 406 0 435 0 q 377 9 388 0 q 361 31 367 18 q 354 60 356 44 q 353 89 353 75 q 353 135 353 113 q 356 181 354 157 q 328 120 344 151 q 290 62 313 89 q 240 17 268 35 q 176 0 213 0 q 64 40 107 0 q 21 150 21 79 q 46 262 21 207 q 112 359 71 317 q 206 428 153 401 q 317 454 260 454 m 307 304 q 346 336 317 333 q 337 359 343 347 q 317 371 331 371 q 262 340 289 371 q 214 265 235 308 q 180 179 193 222 q 167 113 167 136 q 168 94 167 106 q 176 83 169 83 q 223 110 201 83 q 261 174 244 138 q 290 248 278 211 q 307 304 301 285 m 318 482 q 288 501 303 482 q 260 543 272 519 q 238 591 247 567 q 228 625 229 615 q 233 651 225 640 q 256 665 240 663 q 282 659 271 665 q 296 638 293 653 q 303 614 297 628 q 316 586 308 600 q 332 559 324 572 q 347 538 340 546 q 353 512 356 526 q 339 489 350 497 q 318 482 328 482 z "},"":{"ha":533,"x_min":21,"x_max":507,"o":"m 406 0 q 377 9 388 0 q 361 31 367 18 q 354 60 356 44 q 353 89 353 75 q 353 135 353 113 q 356 181 354 157 q 328 120 344 151 q 290 62 313 89 q 240 17 268 35 q 176 0 213 0 q 64 40 107 0 q 21 150 21 79 q 46 262 21 207 q 112 359 71 317 q 206 428 153 401 q 317 454 260 454 q 401 438 365 454 q 461 392 438 421 q 496 325 485 364 q 507 240 507 286 q 502 179 507 219 q 485 99 497 139 q 454 30 474 60 q 406 0 435 0 m 346 336 q 337 359 343 347 q 317 371 331 371 q 262 340 289 371 q 214 265 235 308 q 180 179 193 222 q 167 113 167 136 q 168 94 167 106 q 176 83 169 83 q 223 110 201 83 q 261 174 244 138 q 290 248 278 211 q 307 304 301 285 q 346 336 317 333 m 299 489 q 284 511 286 497 q 290 538 282 525 q 305 559 297 546 q 320 586 313 572 q 333 614 328 600 q 340 638 339 628 q 355 659 344 653 q 381 665 365 665 q 404 651 396 663 q 410 625 413 639 q 399 590 408 614 q 377 542 390 567 q 349 500 364 518 q 318 482 333 482 q 299 489 308 482 z "},"":{"ha":533,"x_min":21,"x_max":507,"o":"m 406 0 q 377 9 388 0 q 361 31 367 18 q 354 60 356 44 q 353 89 353 75 q 353 135 353 113 q 356 181 354 157 q 328 120 344 151 q 290 62 313 89 q 240 17 268 35 q 176 0 213 0 q 64 40 107 0 q 21 150 21 79 q 46 262 21 207 q 112 359 71 317 q 206 428 153 401 q 317 454 260 454 q 401 438 365 454 q 461 392 438 421 q 496 325 485 364 q 507 240 507 286 q 502 179 507 219 q 485 99 497 139 q 454 30 474 60 q 406 0 435 0 m 346 336 q 337 359 343 347 q 317 371 331 371 q 262 340 289 371 q 214 265 235 308 q 180 179 193 222 q 167 113 167 136 q 168 94 167 106 q 176 83 169 83 q 223 110 201 83 q 261 174 244 138 q 290 248 278 211 q 307 304 301 285 q 346 336 317 333 m 389 479 q 358 499 367 479 q 338 532 349 515 q 321 558 328 549 q 299 533 311 549 q 275 500 286 517 q 246 485 264 485 q 226 490 238 485 q 213 513 215 499 q 217 539 210 526 q 227 553 218 540 q 249 582 236 567 q 288 622 271 610 q 322 635 306 635 q 353 623 338 635 q 381 595 368 611 q 403 561 393 579 q 419 531 414 543 q 422 504 426 518 q 406 483 418 490 q 389 479 397 479 z "},"":{"ha":533,"x_min":21,"x_max":507,"o":"m 406 0 q 377 9 388 0 q 361 31 367 18 q 354 60 356 44 q 353 89 353 75 q 353 135 353 113 q 356 181 354 157 q 328 120 344 151 q 290 62 313 89 q 240 17 268 35 q 176 0 213 0 q 64 40 107 0 q 21 150 21 79 q 46 262 21 207 q 112 359 71 317 q 206 428 153 401 q 317 454 260 454 q 401 438 365 454 q 461 392 438 421 q 496 325 485 364 q 507 240 507 286 q 502 179 507 219 q 485 99 497 139 q 454 30 474 60 q 406 0 435 0 m 346 336 q 337 359 343 347 q 317 371 331 371 q 262 340 289 371 q 214 265 235 308 q 180 179 193 222 q 167 113 167 136 q 168 94 167 106 q 176 83 169 83 q 223 110 201 83 q 261 174 244 138 q 290 248 278 211 q 307 304 301 285 q 346 336 317 333 m 343 564 q 359 554 350 557 q 376 551 368 551 q 385 580 376 568 q 411 592 393 592 q 436 582 426 592 q 446 557 446 572 q 426 503 446 524 q 374 482 406 482 q 328 492 350 482 q 292 518 306 503 q 269 528 283 528 q 261 525 263 528 q 258 515 260 522 q 246 493 256 501 q 224 485 236 485 q 218 486 221 485 q 195 499 204 489 q 189 525 186 510 q 216 577 194 557 q 271 597 238 597 q 310 589 290 597 q 343 564 329 581 z "},"":{"ha":533,"x_min":21,"x_max":507,"o":"m 406 0 q 377 9 388 0 q 361 31 367 18 q 354 60 356 44 q 353 89 353 75 q 353 135 353 113 q 356 181 354 157 q 328 120 344 151 q 290 62 313 89 q 240 17 268 35 q 176 0 213 0 q 64 40 107 0 q 21 150 21 79 q 46 262 21 207 q 112 359 71 317 q 206 428 153 401 q 317 454 260 454 q 401 438 365 454 q 461 392 438 421 q 496 325 485 364 q 507 240 507 286 q 502 179 507 219 q 485 99 497 139 q 454 30 474 60 q 406 0 435 0 m 346 336 q 337 359 343 347 q 317 371 331 371 q 262 340 289 371 q 214 265 235 308 q 180 179 193 222 q 167 113 167 136 q 168 94 167 106 q 176 83 169 83 q 223 110 201 83 q 261 174 244 138 q 290 248 278 211 q 307 304 301 285 q 346 336 317 333 m 393 482 q 358 497 372 482 q 343 532 343 511 q 358 568 343 553 q 393 583 372 583 q 429 568 414 583 q 444 532 444 553 q 429 497 444 511 q 393 482 414 482 m 240 482 q 205 497 219 482 q 190 532 190 511 q 205 568 190 553 q 240 583 219 583 q 276 568 261 583 q 292 532 292 553 q 276 497 292 511 q 240 482 261 482 z "},"":{"ha":533,"x_min":21,"x_max":507,"o":"m 406 0 q 377 9 388 0 q 361 31 367 18 q 354 60 356 44 q 353 89 353 75 q 353 135 353 113 q 356 181 354 157 q 328 120 344 151 q 290 62 313 89 q 240 17 268 35 q 176 0 213 0 q 64 40 107 0 q 21 150 21 79 q 46 262 21 207 q 112 359 71 317 q 206 428 153 401 q 317 454 260 454 q 401 438 365 454 q 461 392 438 421 q 496 325 485 364 q 507 240 507 286 q 502 179 507 219 q 485 99 497 139 q 454 30 474 60 q 406 0 435 0 m 346 336 q 337 359 343 347 q 317 371 331 371 q 262 340 289 371 q 214 265 235 308 q 180 179 193 222 q 167 113 167 136 q 168 94 167 106 q 176 83 169 83 q 223 110 201 83 q 261 174 244 138 q 290 248 278 211 q 307 304 301 285 q 346 336 317 333 m 338 711 q 400 683 375 711 q 429 627 422 661 q 425 561 436 593 q 385 503 414 525 q 319 482 357 482 q 261 503 285 482 q 231 557 238 525 q 228 603 225 579 q 241 647 231 626 q 269 685 251 668 q 314 707 288 701 q 338 711 325 711 m 350 636 q 338 642 344 642 q 335 641 336 642 q 331 640 333 640 q 301 613 308 635 q 297 572 293 590 q 306 554 300 558 q 319 550 313 550 q 344 559 333 550 q 358 582 354 568 q 360 613 364 597 q 350 636 357 629 z "},"":{"ha":618,"x_min":19,"x_max":597,"o":"m 597 296 q 569 176 597 231 q 497 83 542 122 q 394 22 451 43 q 276 0 336 0 q 169 22 217 0 q 88 83 121 44 q 37 172 54 121 q 19 282 19 224 q 26 342 19 310 q 46 403 32 375 q 83 451 60 432 q 140 471 106 471 q 169 459 157 471 q 182 429 182 447 q 169 401 182 406 q 142 388 157 396 q 115 358 128 379 q 103 282 103 338 q 114 206 103 242 q 147 142 125 169 q 203 99 169 115 q 282 83 238 83 q 357 99 328 83 q 403 140 386 115 q 428 193 421 164 q 435 250 435 222 q 399 369 435 322 q 315 451 364 417 q 236 503 278 479 q 160 556 194 528 q 104 617 126 583 q 82 699 82 651 q 106 786 82 747 q 167 851 129 825 q 249 892 204 878 q 336 906 294 906 q 469 856 417 906 q 521 717 521 807 q 519 681 521 703 q 510 638 517 658 q 491 601 503 617 q 460 586 479 586 q 431 599 443 586 q 418 628 418 611 q 428 669 418 647 q 438 718 438 692 q 410 797 438 772 q 338 822 382 822 q 292 813 310 822 q 263 790 274 804 q 249 760 253 776 q 246 732 246 744 q 260 677 246 701 q 299 632 275 653 q 353 592 322 611 q 415 553 383 572 q 481 508 449 532 q 540 453 514 483 q 581 384 565 422 q 597 296 597 346 m 317 938 q 302 960 304 946 q 308 986 300 974 q 323 1008 315 994 q 338 1035 331 1021 q 351 1063 346 1049 q 358 1086 357 1076 q 373 1108 363 1101 q 399 1114 383 1114 q 422 1099 414 1111 q 428 1074 431 1088 q 417 1039 426 1063 q 395 991 408 1015 q 367 949 382 967 q 336 931 351 931 q 317 938 326 931 z "},"":{"ha":488,"x_min":7,"x_max":481,"o":"m 392 824 q 341 820 365 824 q 292 810 317 817 q 294 715 299 765 q 286 619 289 664 q 278 419 282 519 q 274 218 274 319 q 278 130 274 174 q 282 42 282 86 q 269 13 282 25 q 240 0 257 0 q 192 20 211 0 q 160 72 172 40 q 141 142 147 103 q 131 220 135 182 q 128 291 128 258 q 128 343 128 324 q 131 448 128 388 q 140 571 133 508 q 157 692 146 633 q 185 789 168 750 q 132 778 158 783 q 78 774 106 774 q 29 786 51 774 q 7 828 7 799 q 19 857 7 844 q 49 869 32 869 q 79 857 67 869 q 152 865 115 858 q 225 881 189 872 q 308 899 267 890 q 392 907 350 907 q 452 893 424 907 q 481 843 481 879 q 468 813 481 825 q 439 801 456 801 q 401 824 415 801 l 392 824 m 263 1067 q 293 1086 271 1086 q 310 1082 301 1086 q 326 1062 322 1075 q 324 1035 331 1049 q 308 1004 318 1022 q 284 970 297 986 q 256 942 271 954 q 226 931 242 931 q 192 943 210 931 q 153 983 175 956 q 131 1012 140 999 q 121 1026 122 1025 q 117 1053 114 1039 q 131 1075 119 1067 q 150 1081 138 1081 q 179 1065 168 1081 q 203 1033 190 1049 q 225 1007 215 1017 q 242 1034 232 1018 q 263 1067 253 1050 z "},"":{"ha":621,"x_min":14,"x_max":608,"o":"m 514 796 q 454 812 489 808 q 392 815 419 815 q 306 810 349 815 q 224 790 264 804 q 216 788 219 789 q 208 788 213 788 q 179 800 192 788 q 167 829 167 813 q 195 868 167 854 q 262 889 224 882 q 338 897 300 896 q 392 899 375 899 q 453 895 417 899 q 524 881 490 892 q 581 850 557 871 q 604 793 604 829 q 576 694 604 753 q 503 571 547 636 q 403 436 458 506 q 294 303 347 367 q 194 185 240 239 q 121 94 147 131 q 206 85 163 86 q 292 83 250 83 q 430 89 361 83 q 567 94 499 94 q 597 83 585 94 q 608 53 608 71 q 598 24 608 35 q 571 11 588 14 q 473 2 525 4 q 371 0 421 0 l 238 0 q 163 3 203 0 q 90 16 124 6 q 35 48 57 26 q 14 106 14 69 q 43 203 14 146 q 119 325 72 260 q 222 458 165 390 q 335 590 279 526 q 438 706 390 653 q 514 796 486 760 m 426 1065 q 457 1085 435 1085 q 474 1081 465 1085 q 490 1060 486 1074 q 488 1033 494 1047 q 472 1003 482 1021 q 448 969 461 985 q 420 941 435 953 q 390 929 406 929 q 356 942 374 929 q 317 982 339 954 q 295 1010 304 997 q 285 1025 286 1024 q 281 1051 278 1038 q 294 1074 283 1065 q 314 1079 301 1079 q 343 1064 332 1079 q 367 1031 354 1047 q 389 1006 379 1015 q 406 1033 396 1017 q 426 1065 417 1049 z "},"":{"ha":621,"x_min":14,"x_max":608,"o":"m 514 796 q 454 812 489 808 q 392 815 419 815 q 306 810 349 815 q 224 790 264 804 q 216 788 219 789 q 208 788 213 788 q 179 800 192 788 q 167 829 167 813 q 195 868 167 854 q 262 889 224 882 q 338 897 300 896 q 392 899 375 899 q 453 895 417 899 q 524 881 490 892 q 581 850 557 871 q 604 793 604 829 q 576 694 604 753 q 503 571 547 636 q 403 436 458 506 q 294 303 347 367 q 194 185 240 239 q 121 94 147 131 q 206 85 163 86 q 292 83 250 83 q 430 89 361 83 q 567 94 499 94 q 597 83 585 94 q 608 53 608 71 q 598 24 608 35 q 571 11 588 14 q 473 2 525 4 q 371 0 421 0 l 238 0 q 163 3 203 0 q 90 16 124 6 q 35 48 57 26 q 14 106 14 69 q 43 203 14 146 q 119 325 72 260 q 222 458 165 390 q 335 590 279 526 q 438 706 390 653 q 514 796 486 760 m 374 938 q 359 960 361 946 q 365 986 357 974 q 380 1008 372 994 q 395 1035 388 1021 q 408 1063 403 1049 q 415 1086 414 1076 q 430 1108 419 1101 q 456 1114 440 1114 q 479 1099 471 1111 q 485 1074 488 1088 q 474 1039 483 1063 q 452 991 465 1015 q 424 949 439 967 q 393 931 408 931 q 374 938 383 931 z "},"":{"ha":618,"x_min":19,"x_max":597,"o":"m 597 296 q 569 176 597 231 q 497 83 542 122 q 394 22 451 43 q 276 0 336 0 q 169 22 217 0 q 88 83 121 44 q 37 172 54 121 q 19 282 19 224 q 26 342 19 310 q 46 403 32 375 q 83 451 60 432 q 140 471 106 471 q 169 459 157 471 q 182 429 182 447 q 169 401 182 406 q 142 388 157 396 q 115 358 128 379 q 103 282 103 338 q 114 206 103 242 q 147 142 125 169 q 203 99 169 115 q 282 83 238 83 q 357 99 328 83 q 403 140 386 115 q 428 193 421 164 q 435 250 435 222 q 399 369 435 322 q 315 451 364 417 q 236 503 278 479 q 160 556 194 528 q 104 617 126 583 q 82 699 82 651 q 106 786 82 747 q 167 851 129 825 q 249 892 204 878 q 336 906 294 906 q 469 856 417 906 q 521 717 521 807 q 519 681 521 703 q 510 638 517 658 q 491 601 503 617 q 460 586 479 586 q 431 599 443 586 q 418 628 418 611 q 428 669 418 647 q 438 718 438 692 q 410 797 438 772 q 338 822 382 822 q 292 813 310 822 q 263 790 274 804 q 249 760 253 776 q 246 732 246 744 q 260 677 246 701 q 299 632 275 653 q 353 592 322 611 q 415 553 383 572 q 481 508 449 532 q 540 453 514 483 q 581 384 565 422 q 597 296 597 346 m 369 1065 q 400 1085 378 1085 q 417 1081 408 1085 q 433 1060 429 1074 q 431 1033 438 1047 q 415 1003 425 1021 q 391 969 404 985 q 363 941 378 953 q 333 929 349 929 q 299 942 317 929 q 260 982 282 954 q 238 1010 247 997 q 228 1025 229 1024 q 224 1051 221 1038 q 238 1074 226 1065 q 257 1079 244 1079 q 286 1064 275 1079 q 310 1031 297 1047 q 332 1006 322 1015 q 349 1033 339 1017 q 369 1065 360 1049 z "},"":{"ha":569,"x_min":0,"x_max":556,"o":"m 292 904 q 388 875 350 904 q 449 797 426 846 q 484 683 472 747 q 500 549 496 619 q 504 408 504 479 q 505 274 504 338 q 509 161 506 211 q 525 83 513 111 q 547 69 539 81 q 556 43 556 58 q 543 14 556 26 q 514 1 531 1 q 437 33 465 1 q 392 108 408 64 q 371 201 376 151 q 363 285 365 250 q 272 268 318 271 q 181 265 226 265 q 131 266 156 265 q 83 268 107 267 q 92 163 86 219 q 118 60 99 107 q 122 42 122 51 q 110 13 122 25 q 81 0 97 0 q 35 40 51 0 q 11 131 19 79 q 1 232 3 182 q 0 303 0 282 q 4 409 0 347 q 20 538 8 471 q 53 671 32 606 q 106 788 74 736 q 185 872 139 840 q 292 904 231 904 m 85 353 q 181 349 133 349 q 223 349 199 349 q 272 352 247 350 q 319 358 296 354 q 358 371 342 363 q 358 424 358 385 q 356 513 357 463 q 351 617 354 563 q 340 716 347 671 q 321 790 332 761 q 292 819 310 819 q 220 793 251 819 q 167 725 189 767 q 129 631 144 683 q 104 526 114 578 q 90 428 94 475 q 85 353 86 382 m 190 1039 q 200 1064 190 1054 q 225 1074 210 1074 q 250 1064 240 1074 q 260 1039 260 1054 q 265 1010 260 1021 q 290 1000 271 1000 q 319 1007 306 1000 q 332 1044 332 1014 q 342 1069 332 1060 q 367 1079 351 1079 q 392 1069 382 1079 q 401 1044 401 1060 q 372 961 401 992 q 290 931 342 931 q 216 961 242 931 q 190 1039 190 992 z "},"":{"ha":676,"x_min":14,"x_max":663,"o":"m 133 826 q 219 879 172 858 q 318 900 267 900 q 441 885 379 900 q 552 840 503 871 q 632 758 601 808 q 663 638 663 708 q 646 546 663 589 q 600 466 629 503 q 533 401 571 429 q 451 357 494 374 q 522 303 485 338 q 591 228 560 269 q 642 142 622 186 q 663 57 663 97 q 651 20 663 36 q 617 4 639 4 q 570 26 593 4 q 524 80 547 47 q 477 151 501 113 q 424 225 453 190 q 363 286 396 260 q 290 319 331 313 q 279 231 288 285 q 253 125 271 176 q 205 37 235 74 q 128 0 175 0 q 99 13 111 0 q 86 42 86 25 q 103 75 86 63 q 114 134 110 96 q 121 215 118 172 q 126 297 124 257 q 129 363 128 338 q 133 435 131 388 q 138 533 135 482 q 146 628 140 583 q 158 693 151 672 q 172 717 163 708 q 199 726 182 726 q 255 691 235 726 q 284 608 275 656 q 294 513 293 561 q 296 440 296 465 l 296 407 q 378 432 340 411 q 442 484 415 453 q 483 556 468 515 q 497 640 497 596 q 449 769 497 722 q 319 817 401 817 q 239 799 275 817 q 175 751 203 781 q 128 685 147 722 q 96 611 108 649 q 56 579 86 579 q 26 592 39 579 q 14 621 14 604 q 26 674 14 644 q 56 733 38 704 q 94 786 74 761 q 133 826 115 811 m 303 938 q 288 960 290 946 q 294 986 286 974 q 309 1008 301 994 q 324 1035 317 1021 q 338 1063 332 1049 q 344 1086 343 1076 q 359 1108 349 1101 q 385 1114 369 1114 q 408 1099 400 1111 q 414 1074 417 1088 q 403 1039 413 1063 q 381 991 394 1015 q 353 949 368 967 q 322 931 338 931 q 303 938 313 931 z "},"":{"ha":713,"x_min":28,"x_max":690,"o":"m 428 885 q 526 860 485 885 q 596 797 567 836 q 643 706 625 757 q 672 601 661 654 q 687 495 683 547 q 690 401 690 443 q 689 342 690 381 q 683 260 688 304 q 669 169 678 215 q 644 85 660 122 q 608 24 629 47 q 557 0 588 0 q 522 18 532 0 q 513 58 513 36 q 519 232 513 146 q 525 406 525 318 q 524 458 525 422 q 521 538 524 494 q 512 628 518 582 q 495 714 506 675 q 468 777 485 753 q 428 801 451 801 q 369 758 394 801 q 326 647 344 714 q 294 497 307 579 q 272 340 282 415 q 256 203 263 264 q 244 115 250 142 q 237 82 242 101 q 224 45 232 63 q 202 15 215 28 q 169 3 189 3 q 112 22 136 3 q 72 73 88 42 q 48 142 57 104 q 35 219 39 181 q 29 294 31 258 q 28 353 28 329 q 29 415 28 374 q 35 508 31 457 q 47 611 39 558 q 70 708 56 664 q 105 779 85 751 q 154 807 125 807 q 183 797 174 807 q 196 772 192 786 q 200 740 200 757 q 200 710 200 722 q 197 528 200 618 q 192 346 194 438 q 201 433 196 381 q 217 547 207 486 q 244 667 228 607 q 285 776 260 728 q 345 854 310 824 q 428 885 381 885 m 408 938 q 394 960 396 946 q 400 986 392 974 q 415 1008 407 994 q 430 1035 422 1021 q 443 1063 438 1049 q 450 1086 449 1076 q 465 1108 454 1101 q 490 1114 475 1114 q 514 1099 506 1111 q 519 1074 522 1088 q 509 1039 518 1063 q 487 991 500 1015 q 458 949 474 967 q 428 931 443 931 q 408 938 418 931 z "},"":{"ha":713,"x_min":28,"x_max":690,"o":"m 428 885 q 526 860 485 885 q 596 797 567 836 q 643 706 625 757 q 672 601 661 654 q 687 495 683 547 q 690 401 690 443 q 689 342 690 381 q 683 260 688 304 q 669 169 678 215 q 644 85 660 122 q 608 24 629 47 q 557 0 588 0 q 522 18 532 0 q 513 58 513 36 q 519 232 513 146 q 525 406 525 318 q 524 458 525 422 q 521 538 524 494 q 512 628 518 582 q 495 714 506 675 q 468 777 485 753 q 428 801 451 801 q 369 758 394 801 q 326 647 344 714 q 294 497 307 579 q 272 340 282 415 q 256 203 263 264 q 244 115 250 142 q 237 82 242 101 q 224 45 232 63 q 202 15 215 28 q 169 3 189 3 q 112 22 136 3 q 72 73 88 42 q 48 142 57 104 q 35 219 39 181 q 29 294 31 258 q 28 353 28 329 q 29 415 28 374 q 35 508 31 457 q 47 611 39 558 q 70 708 56 664 q 105 779 85 751 q 154 807 125 807 q 183 797 174 807 q 196 772 192 786 q 200 740 200 757 q 200 710 200 722 q 197 528 200 618 q 192 346 194 438 q 201 433 196 381 q 217 547 207 486 q 244 667 228 607 q 285 776 260 728 q 345 854 310 824 q 428 885 381 885 m 461 1065 q 492 1085 469 1085 q 508 1081 500 1085 q 525 1060 521 1074 q 522 1033 529 1047 q 506 1003 517 1021 q 483 969 496 985 q 455 941 469 953 q 425 929 440 929 q 391 942 408 929 q 351 982 374 954 q 330 1010 339 997 q 319 1025 321 1024 q 315 1051 313 1038 q 329 1074 318 1065 q 349 1079 336 1079 q 378 1064 367 1079 q 401 1031 389 1047 q 424 1006 414 1015 q 441 1033 431 1017 q 461 1065 451 1049 z "},"":{"ha":668,"x_min":21,"x_max":649,"o":"m 324 900 q 473 860 411 900 q 574 756 535 819 q 631 614 613 692 q 649 461 649 536 q 642 365 649 417 q 619 261 635 313 q 580 163 604 210 q 522 79 556 115 q 443 22 488 43 q 343 0 399 0 q 197 39 258 0 q 97 140 136 78 q 39 277 57 201 q 21 426 21 353 q 35 559 21 490 q 81 687 50 628 q 163 789 113 746 q 283 846 213 832 q 290 883 276 865 q 324 900 304 900 m 360 814 q 359 796 363 804 q 349 782 356 788 q 333 773 342 776 q 317 768 324 769 q 247 717 274 756 q 204 628 219 678 q 184 527 189 579 q 179 436 179 475 q 182 376 179 413 q 192 301 185 340 q 211 224 199 263 q 242 153 224 185 q 285 103 260 122 q 343 83 310 83 q 448 124 406 83 q 517 224 490 165 q 554 347 543 282 q 565 461 565 413 q 556 570 565 513 q 522 679 546 628 q 458 767 497 731 q 360 814 418 804 m 289 1085 q 303 1108 292 1101 q 329 1114 314 1114 q 352 1099 344 1111 q 357 1074 360 1088 q 347 1039 356 1063 q 325 991 338 1015 q 297 949 313 967 q 267 931 282 931 q 246 938 253 931 q 232 960 235 946 q 238 985 229 974 q 253 1008 244 994 q 268 1035 261 1021 q 281 1062 275 1049 q 289 1085 288 1075 m 371 938 q 357 960 360 946 q 363 985 354 974 q 378 1008 369 994 q 393 1035 386 1021 q 406 1062 400 1049 q 414 1085 413 1075 q 428 1108 417 1101 q 454 1114 439 1114 q 477 1099 469 1111 q 482 1074 485 1088 q 472 1039 481 1063 q 450 991 463 1015 q 422 949 438 967 q 392 931 407 931 q 371 938 378 931 z "},"":{"ha":599,"x_min":21,"x_max":579,"o":"m 468 500 q 496 657 496 579 q 492 708 496 681 q 478 758 489 735 q 449 797 468 782 q 400 813 431 813 q 324 792 357 813 q 267 738 292 771 q 225 661 242 704 q 198 574 208 618 q 183 487 188 529 q 179 413 179 444 q 187 314 179 371 q 215 206 194 257 q 270 119 235 154 q 361 83 306 83 q 429 105 403 83 q 470 159 456 126 q 490 229 485 192 q 494 300 494 267 q 506 330 494 318 q 536 342 518 342 q 565 330 553 342 q 578 300 578 318 q 567 191 578 244 q 531 95 557 138 q 461 26 504 53 q 353 0 418 0 q 205 35 268 0 q 101 128 142 71 q 41 260 61 186 q 21 410 21 333 q 44 578 21 492 q 116 735 68 664 q 235 851 164 806 q 400 896 306 896 q 485 875 450 896 q 540 820 519 854 q 570 743 561 786 q 579 657 579 700 q 577 605 579 640 q 567 533 575 569 q 545 470 560 497 q 507 443 531 443 q 477 456 489 443 q 465 485 465 468 q 466 492 465 489 q 468 500 467 496 m 382 938 q 367 960 369 946 q 374 986 365 974 q 388 1008 381 994 q 403 1035 396 1021 q 417 1063 411 1049 q 424 1086 422 1076 q 438 1108 428 1101 q 464 1114 449 1114 q 488 1099 479 1111 q 493 1074 496 1088 q 483 1039 492 1063 q 460 991 474 1015 q 432 949 447 967 q 401 931 417 931 q 382 938 392 931 z "},"":{"ha":563,"x_min":24,"x_max":549,"o":"m 488 128 q 497 131 493 129 q 507 132 501 132 q 536 119 524 132 q 549 90 549 107 q 516 48 549 65 q 440 20 483 31 q 356 5 397 10 q 294 0 314 0 q 153 35 207 0 q 71 128 100 71 q 33 256 42 185 q 24 397 24 326 q 26 465 24 419 q 36 567 29 511 q 54 683 43 624 q 81 792 65 743 q 119 873 97 842 q 171 904 142 904 q 200 895 189 904 q 217 872 211 886 q 224 842 222 858 q 226 813 226 826 q 220 709 226 760 q 207 607 214 658 q 185 417 194 511 q 176 226 176 322 q 180 163 176 190 q 195 119 183 136 q 231 92 207 101 q 294 83 254 83 q 393 96 346 83 q 488 128 440 108 m 153 938 q 138 960 140 946 q 144 986 136 974 q 159 1008 151 994 q 174 1035 167 1021 q 188 1063 182 1049 q 194 1086 193 1076 q 209 1108 199 1101 q 235 1114 219 1114 q 258 1099 250 1111 q 264 1074 267 1088 q 253 1039 263 1063 q 231 991 244 1015 q 203 949 218 967 q 172 931 188 931 q 153 938 163 931 z "},"":{"ha":599,"x_min":21,"x_max":579,"o":"m 468 500 q 496 657 496 579 q 492 708 496 681 q 478 758 489 735 q 449 797 468 782 q 400 813 431 813 q 324 792 357 813 q 267 738 292 771 q 225 661 242 704 q 198 574 208 618 q 183 487 188 529 q 179 413 179 444 q 187 314 179 371 q 215 206 194 257 q 270 119 235 154 q 361 83 306 83 q 429 105 403 83 q 470 159 456 126 q 490 229 485 192 q 494 300 494 267 q 506 330 494 318 q 536 342 518 342 q 565 330 553 342 q 578 300 578 318 q 567 191 578 244 q 531 95 557 138 q 461 26 504 53 q 353 0 418 0 q 205 35 268 0 q 101 128 142 71 q 41 260 61 186 q 21 410 21 333 q 44 578 21 492 q 116 735 68 664 q 235 851 164 806 q 400 896 306 896 q 485 875 450 896 q 540 820 519 854 q 570 743 561 786 q 579 657 579 700 q 577 605 579 640 q 567 533 575 569 q 545 470 560 497 q 507 443 531 443 q 477 456 489 443 q 465 485 465 468 q 466 492 465 489 q 468 500 467 496 m 435 1065 q 465 1085 443 1085 q 482 1081 474 1085 q 499 1060 494 1074 q 496 1033 503 1047 q 480 1003 490 1021 q 456 969 469 985 q 428 941 443 953 q 399 929 414 929 q 365 942 382 929 q 325 982 347 954 q 303 1010 313 997 q 293 1025 294 1024 q 289 1051 286 1038 q 303 1074 292 1065 q 322 1079 310 1079 q 351 1064 340 1079 q 375 1031 363 1047 q 397 1006 388 1015 q 415 1033 404 1017 q 435 1065 425 1049 z "},"":{"ha":568,"x_min":22,"x_max":554,"o":"m 236 814 q 219 812 228 814 q 206 803 211 810 q 189 747 194 789 q 181 656 183 704 q 177 562 178 607 q 176 494 176 517 q 233 490 204 492 q 290 489 261 489 q 335 490 310 489 q 379 499 361 492 q 418 526 389 526 q 447 514 435 526 q 460 485 460 501 q 441 440 460 456 q 395 416 422 424 q 340 407 368 408 q 290 406 311 406 q 233 407 261 406 q 176 411 204 408 q 177 347 176 393 q 181 251 178 301 q 188 158 183 201 q 203 100 193 114 q 219 91 207 94 q 245 86 231 88 q 273 84 260 85 q 294 83 286 83 q 341 85 315 83 q 392 92 367 88 q 442 103 418 96 q 485 122 467 111 q 508 129 496 129 q 538 117 525 129 q 550 88 550 106 q 517 44 550 61 q 442 17 485 26 q 356 3 399 7 q 294 0 314 0 q 245 3 271 0 q 197 13 219 6 q 104 81 139 32 q 51 193 69 131 q 28 322 33 256 q 22 439 22 388 q 27 547 22 485 q 47 670 32 608 q 86 785 61 732 q 151 867 111 839 q 208 891 178 885 q 268 897 238 897 q 347 892 308 897 q 426 888 386 888 q 462 892 450 888 q 481 901 474 896 q 495 911 489 907 q 513 915 501 915 q 542 903 529 915 q 554 874 554 890 q 540 840 554 853 q 505 819 525 826 q 463 808 485 811 q 425 804 440 804 q 335 809 381 804 q 244 814 290 814 l 236 814 m 381 1065 q 411 1085 389 1085 q 428 1081 419 1085 q 444 1060 440 1074 q 442 1033 449 1047 q 426 1003 436 1021 q 402 969 415 985 q 374 941 389 953 q 344 929 360 929 q 310 942 328 929 q 271 982 293 954 q 249 1010 258 997 q 239 1025 240 1024 q 235 1051 232 1038 q 249 1074 238 1065 q 268 1079 256 1079 q 297 1064 286 1079 q 321 1031 308 1047 q 343 1006 333 1015 q 360 1033 350 1017 q 381 1065 371 1049 z "},"":{"ha":672,"x_min":14,"x_max":653,"o":"m 282 83 q 351 108 321 83 q 405 171 382 132 q 443 258 428 210 q 469 356 458 307 q 483 447 479 404 q 488 518 488 490 q 482 606 488 554 q 460 703 476 657 q 413 783 443 750 q 333 815 382 815 q 274 803 306 815 q 212 770 242 790 q 157 726 182 750 q 118 678 132 701 q 105 651 108 663 q 97 624 101 639 q 83 598 92 608 q 56 588 75 588 q 26 599 39 588 q 14 629 14 611 q 47 726 14 678 q 129 812 81 774 q 233 874 178 850 q 333 899 289 899 q 477 864 417 899 q 576 773 538 829 q 634 646 615 717 q 653 501 653 575 q 632 335 653 424 q 567 173 611 247 q 457 49 524 99 q 297 0 390 0 q 247 4 278 0 q 188 19 217 8 q 138 47 158 29 q 117 90 117 64 q 121 108 117 100 q 82 146 96 119 q 60 204 68 172 q 51 269 53 236 q 50 325 50 301 q 51 373 50 343 q 56 439 53 403 q 67 512 60 475 q 87 578 75 549 q 117 627 99 608 q 160 646 135 646 q 196 628 183 646 q 214 588 208 611 q 219 540 219 564 q 219 500 219 515 q 219 453 219 485 q 216 383 218 422 q 211 302 214 344 q 205 222 208 260 q 197 158 201 185 q 188 121 193 131 q 230 90 206 97 q 282 83 254 83 m 368 1065 q 399 1085 376 1085 q 415 1081 407 1085 q 432 1060 428 1074 q 429 1033 436 1047 q 413 1003 424 1021 q 390 969 403 985 q 362 941 376 953 q 332 929 347 929 q 298 942 315 929 q 258 982 281 954 q 237 1010 246 997 q 226 1025 228 1024 q 222 1051 219 1038 q 236 1074 225 1065 q 256 1079 243 1079 q 285 1064 274 1079 q 308 1031 296 1047 q 331 1006 321 1015 q 348 1033 338 1017 q 368 1065 358 1049 z "},"":{"ha":725,"x_min":24,"x_max":707,"o":"m 604 1 q 556 22 574 1 q 531 72 539 43 q 521 133 522 101 q 519 186 519 165 q 526 335 519 261 q 540 485 533 410 q 524 406 533 454 q 499 304 514 358 q 464 196 483 250 q 418 98 444 142 q 358 27 392 54 q 285 0 325 0 q 155 38 206 0 q 75 133 104 75 q 35 261 46 192 q 24 394 24 331 q 28 473 24 424 q 42 579 32 522 q 67 694 51 636 q 106 800 83 753 q 160 877 129 847 q 231 907 192 907 q 260 894 247 907 q 272 865 272 882 q 272 858 272 861 q 269 850 271 854 q 203 601 226 726 q 179 344 179 475 q 182 274 179 318 q 195 188 185 231 q 226 115 206 146 q 285 83 247 83 q 336 124 311 83 q 384 226 361 164 q 426 365 407 289 q 462 510 446 440 q 489 636 478 581 q 507 714 500 692 q 517 745 511 728 q 531 777 522 763 q 553 801 540 792 q 583 811 565 811 q 651 785 626 811 q 689 719 676 758 q 704 639 701 681 q 707 565 707 597 q 688 303 707 435 q 646 43 668 172 q 633 13 643 25 q 604 1 624 1 m 418 1146 q 481 1118 456 1146 q 510 1062 503 1096 q 506 996 517 1028 q 466 938 494 960 q 400 917 438 917 q 342 938 365 917 q 311 992 318 960 q 308 1038 306 1014 q 322 1082 311 1061 q 350 1119 332 1103 q 394 1142 368 1136 q 418 1146 406 1146 m 431 1071 q 418 1076 425 1076 q 415 1076 417 1076 q 411 1075 414 1075 q 381 1047 389 1069 q 378 1007 374 1025 q 387 989 381 993 q 400 985 393 985 q 424 994 414 985 q 439 1017 435 1003 q 441 1048 444 1032 q 431 1071 438 1064 z "},"":{"ha":725,"x_min":24,"x_max":707,"o":"m 507 714 q 517 745 511 728 q 531 777 522 763 q 553 801 540 792 q 583 811 565 811 q 651 785 626 811 q 689 719 676 758 q 704 639 701 681 q 707 565 707 597 q 688 303 707 435 q 646 43 668 172 q 633 13 643 25 q 604 1 624 1 q 556 22 574 1 q 531 72 539 43 q 521 133 522 101 q 519 186 519 165 q 526 335 519 261 q 540 485 533 410 q 524 406 533 454 q 499 304 514 358 q 464 196 483 250 q 418 98 444 142 q 358 27 392 54 q 285 0 325 0 q 155 38 206 0 q 75 133 104 75 q 35 261 46 192 q 24 394 24 331 q 28 473 24 424 q 42 579 32 522 q 67 694 51 636 q 106 800 83 753 q 160 877 129 847 q 231 907 192 907 q 260 894 247 907 q 272 865 272 882 q 272 858 272 861 q 269 850 271 854 q 203 601 226 726 q 179 344 179 475 q 182 274 179 318 q 195 188 185 231 q 226 115 206 146 q 285 83 247 83 q 336 124 311 83 q 384 226 361 164 q 426 365 407 289 q 462 510 446 440 q 489 636 478 581 q 507 714 500 692 m 314 972 q 344 1022 326 992 q 365 1072 361 1051 q 377 1093 368 1085 q 399 1101 386 1101 q 406 1100 403 1101 q 428 1086 419 1097 q 433 1060 436 1075 q 423 1026 432 1050 q 401 978 414 1003 q 373 936 389 954 q 342 918 357 918 q 322 924 329 918 q 308 947 310 932 q 314 972 306 961 m 447 924 q 433 947 435 932 q 439 972 431 961 q 469 1022 451 992 q 490 1072 486 1051 q 502 1093 493 1085 q 524 1101 511 1101 q 531 1100 528 1101 q 553 1086 544 1097 q 558 1060 561 1075 q 548 1026 557 1050 q 526 978 539 1003 q 498 936 514 954 q 467 918 482 918 q 447 924 454 918 z "},"":{"ha":676,"x_min":14,"x_max":663,"o":"m 133 826 q 219 879 172 858 q 318 900 267 900 q 441 885 379 900 q 552 840 503 871 q 632 758 601 808 q 663 638 663 708 q 646 546 663 589 q 600 466 629 503 q 533 401 571 429 q 451 357 494 374 q 522 303 485 338 q 591 228 560 269 q 642 142 622 186 q 663 57 663 97 q 651 20 663 36 q 617 4 639 4 q 570 26 593 4 q 524 80 547 47 q 477 151 501 113 q 424 225 453 190 q 363 286 396 260 q 290 319 331 313 q 279 231 288 285 q 253 125 271 176 q 205 37 235 74 q 128 0 175 0 q 99 13 111 0 q 86 42 86 25 q 103 75 86 63 q 114 134 110 96 q 121 215 118 172 q 126 297 124 257 q 129 363 128 338 q 133 435 131 388 q 138 533 135 482 q 146 628 140 583 q 158 693 151 672 q 172 717 163 708 q 199 726 182 726 q 255 691 235 726 q 284 608 275 656 q 294 513 293 561 q 296 440 296 465 l 296 407 q 378 432 340 411 q 442 484 415 453 q 483 556 468 515 q 497 640 497 596 q 449 769 497 722 q 319 817 401 817 q 239 799 275 817 q 175 751 203 781 q 128 685 147 722 q 96 611 108 649 q 56 579 86 579 q 26 592 39 579 q 14 621 14 604 q 26 674 14 644 q 56 733 38 704 q 94 786 74 761 q 133 826 115 811 m 356 1065 q 386 1085 364 1085 q 403 1081 394 1085 q 419 1060 415 1074 q 417 1033 424 1047 q 401 1003 411 1021 q 377 969 390 985 q 349 941 364 953 q 319 929 335 929 q 285 942 303 929 q 246 982 268 954 q 224 1010 233 997 q 214 1025 215 1024 q 210 1051 207 1038 q 224 1074 213 1065 q 243 1079 231 1079 q 272 1064 261 1079 q 296 1031 283 1047 q 318 1006 308 1015 q 335 1033 325 1017 q 356 1065 346 1049 z "},"":{"ha":621,"x_min":14,"x_max":608,"o":"m 514 796 q 454 812 489 808 q 392 815 419 815 q 306 810 349 815 q 224 790 264 804 q 216 788 219 789 q 208 788 213 788 q 179 800 192 788 q 167 829 167 813 q 195 868 167 854 q 262 889 224 882 q 338 897 300 896 q 392 899 375 899 q 453 895 417 899 q 524 881 490 892 q 581 850 557 871 q 604 793 604 829 q 576 694 604 753 q 503 571 547 636 q 403 436 458 506 q 294 303 347 367 q 194 185 240 239 q 121 94 147 131 q 206 85 163 86 q 292 83 250 83 q 430 89 361 83 q 567 94 499 94 q 597 83 585 94 q 608 53 608 71 q 598 24 608 35 q 571 11 588 14 q 473 2 525 4 q 371 0 421 0 l 238 0 q 163 3 203 0 q 90 16 124 6 q 35 48 57 26 q 14 106 14 69 q 43 203 14 146 q 119 325 72 260 q 222 458 165 390 q 335 590 279 526 q 438 706 390 653 q 514 796 486 760 m 342 981 q 356 1017 342 1001 q 392 1032 371 1032 q 428 1017 413 1032 q 443 981 443 1001 q 428 945 443 960 q 392 931 413 931 q 356 945 371 931 q 342 981 342 960 z "},"":{"ha":533,"x_min":21,"x_max":507,"o":"m 406 0 q 377 9 388 0 q 361 31 367 18 q 354 60 356 44 q 353 89 353 75 q 353 135 353 113 q 356 181 354 157 q 328 120 344 151 q 290 62 313 89 q 240 17 268 35 q 176 0 213 0 q 64 40 107 0 q 21 150 21 79 q 46 262 21 207 q 112 359 71 317 q 206 428 153 401 q 317 454 260 454 q 401 438 365 454 q 461 392 438 421 q 496 325 485 364 q 507 240 507 286 q 502 179 507 219 q 485 99 497 139 q 454 30 474 60 q 406 0 435 0 m 346 336 q 337 359 343 347 q 317 371 331 371 q 262 340 289 371 q 214 265 235 308 q 180 179 193 222 q 167 113 167 136 q 168 94 167 106 q 176 83 169 83 q 223 110 201 83 q 261 174 244 138 q 290 248 278 211 q 307 304 301 285 q 346 336 317 333 m 217 590 q 226 615 217 606 q 251 625 236 625 q 276 615 267 625 q 286 590 286 606 q 292 562 286 572 q 317 551 297 551 q 345 558 332 551 q 358 596 358 565 q 368 621 358 611 q 393 631 378 631 q 418 621 408 631 q 428 596 428 611 q 398 513 428 543 q 317 482 368 482 q 242 513 268 482 q 217 590 217 543 z "},"":{"ha":444,"x_min":21,"x_max":432,"o":"m 222 83 q 269 96 247 83 q 306 127 290 108 q 333 169 322 146 q 350 214 344 192 q 364 238 353 229 q 390 246 375 246 q 419 234 407 246 q 432 204 432 222 q 427 180 432 194 q 416 151 422 165 q 402 122 410 136 q 390 101 394 108 q 224 0 326 0 q 140 15 178 0 q 76 56 103 29 q 35 120 50 83 q 21 203 21 157 q 35 291 21 247 q 76 370 50 335 q 142 428 103 406 q 228 451 181 451 q 276 444 253 451 q 318 422 300 436 q 347 386 336 407 q 358 339 358 365 q 342 280 358 304 q 301 240 326 256 q 246 216 276 224 q 186 208 215 208 l 186 188 q 188 162 186 179 q 192 127 189 144 q 203 97 196 110 q 222 83 210 83 m 228 488 q 197 506 213 488 q 169 548 182 524 q 148 596 157 572 q 138 629 139 619 q 142 656 135 644 q 165 669 150 667 q 171 671 167 671 q 193 663 183 671 q 206 642 203 654 q 213 618 207 632 q 226 590 218 604 q 242 563 233 576 q 257 542 250 550 q 263 516 265 531 q 249 493 260 501 q 228 488 239 488 m 233 368 q 213 347 222 368 q 199 292 203 325 q 222 294 208 292 q 247 303 235 297 q 267 317 258 308 q 275 339 275 326 q 264 360 275 351 q 233 368 253 368 z "},"":{"ha":444,"x_min":21,"x_max":432,"o":"m 350 214 q 364 238 353 229 q 390 246 375 246 q 419 234 407 246 q 432 204 432 222 q 427 180 432 194 q 416 151 422 165 q 402 122 410 136 q 390 101 394 108 q 224 0 326 0 q 140 15 178 0 q 76 56 103 29 q 35 120 50 83 q 21 203 21 157 q 35 291 21 247 q 76 370 50 335 q 142 428 103 406 q 228 451 181 451 q 276 444 253 451 q 318 422 300 436 q 347 386 336 407 q 358 339 358 365 q 342 280 358 304 q 301 240 326 256 q 246 216 276 224 q 186 208 215 208 l 186 188 q 188 162 186 179 q 192 127 189 144 q 203 97 196 110 q 222 83 210 83 q 269 96 247 83 q 306 127 290 108 q 333 169 322 146 q 350 214 344 192 m 275 339 q 264 360 275 351 q 233 368 253 368 q 213 347 222 368 q 199 292 203 325 q 222 294 208 292 q 247 303 235 297 q 267 317 258 308 q 275 339 275 326 m 208 494 q 194 517 196 503 q 200 543 192 531 q 215 565 207 551 q 230 592 222 578 q 243 619 238 606 q 250 643 249 633 q 265 665 254 658 q 290 671 275 671 q 314 656 306 668 q 319 631 322 644 q 309 596 318 619 q 287 548 300 572 q 258 506 274 524 q 228 488 243 488 q 208 494 218 488 z "},"":{"ha":444,"x_min":21,"x_max":432,"o":"m 350 214 q 364 238 353 229 q 390 246 375 246 q 419 234 407 246 q 432 204 432 222 q 427 180 432 194 q 416 151 422 165 q 402 122 410 136 q 390 101 394 108 q 224 0 326 0 q 140 15 178 0 q 76 56 103 29 q 35 120 50 83 q 21 203 21 157 q 35 291 21 247 q 76 370 50 335 q 142 428 103 406 q 228 451 181 451 q 276 444 253 451 q 318 422 300 436 q 347 386 336 407 q 358 339 358 365 q 342 280 358 304 q 301 240 326 256 q 246 216 276 224 q 186 208 215 208 l 186 188 q 188 162 186 179 q 192 127 189 144 q 203 97 196 110 q 222 83 210 83 q 269 96 247 83 q 306 127 290 108 q 333 169 322 146 q 350 214 344 192 m 275 339 q 264 360 275 351 q 233 368 253 368 q 213 347 222 368 q 199 292 203 325 q 222 294 208 292 q 247 303 235 297 q 267 317 258 308 q 275 339 275 326 m 299 485 q 268 504 276 485 q 248 538 258 521 q 231 564 238 554 q 208 538 221 554 q 185 506 196 522 q 156 490 174 490 q 136 496 147 490 q 122 518 125 504 q 126 544 119 532 q 137 559 128 546 q 158 588 146 572 q 198 628 181 615 q 232 640 215 640 q 263 628 247 640 q 290 601 278 617 q 313 567 303 585 q 329 536 324 549 q 332 510 336 524 q 315 489 328 496 q 299 485 307 485 z "},"":{"ha":444,"x_min":21,"x_max":432,"o":"m 350 214 q 364 238 353 229 q 390 246 375 246 q 419 234 407 246 q 432 204 432 222 q 427 180 432 194 q 416 151 422 165 q 402 122 410 136 q 390 101 394 108 q 224 0 326 0 q 140 15 178 0 q 76 56 103 29 q 35 120 50 83 q 21 203 21 157 q 35 291 21 247 q 76 370 50 335 q 142 428 103 406 q 228 451 181 451 q 276 444 253 451 q 318 422 300 436 q 347 386 336 407 q 358 339 358 365 q 342 280 358 304 q 301 240 326 256 q 246 216 276 224 q 186 208 215 208 l 186 188 q 188 162 186 179 q 192 127 189 144 q 203 97 196 110 q 222 83 210 83 q 269 96 247 83 q 306 127 290 108 q 333 169 322 146 q 350 214 344 192 m 275 339 q 264 360 275 351 q 233 368 253 368 q 213 347 222 368 q 199 292 203 325 q 222 294 208 292 q 247 303 235 297 q 267 317 258 308 q 275 339 275 326 m 303 488 q 267 502 282 488 q 253 538 253 517 q 267 574 253 558 q 303 589 282 589 q 339 574 324 589 q 354 538 354 558 q 339 502 354 517 q 303 488 324 488 m 150 488 q 115 502 129 488 q 100 538 100 517 q 115 574 100 558 q 150 589 129 589 q 186 574 171 589 q 201 538 201 558 q 186 502 201 517 q 150 488 171 488 z "},"":{"ha":444,"x_min":21,"x_max":432,"o":"m 350 214 q 364 238 353 229 q 390 246 375 246 q 419 234 407 246 q 432 204 432 222 q 427 180 432 194 q 416 151 422 165 q 402 122 410 136 q 390 101 394 108 q 224 0 326 0 q 140 15 178 0 q 76 56 103 29 q 35 120 50 83 q 21 203 21 157 q 35 291 21 247 q 76 370 50 335 q 142 428 103 406 q 228 451 181 451 q 276 444 253 451 q 318 422 300 436 q 347 386 336 407 q 358 339 358 365 q 342 280 358 304 q 301 240 326 256 q 246 216 276 224 q 186 208 215 208 l 186 188 q 188 162 186 179 q 192 127 189 144 q 203 97 196 110 q 222 83 210 83 q 269 96 247 83 q 306 127 290 108 q 333 169 322 146 q 350 214 344 192 m 275 339 q 264 360 275 351 q 233 368 253 368 q 213 347 222 368 q 199 292 203 325 q 222 294 208 292 q 247 303 235 297 q 267 317 258 308 q 275 339 275 326 m 261 622 q 292 642 269 642 q 308 638 300 642 q 325 617 321 631 q 322 590 329 604 q 306 560 317 578 q 283 526 296 542 q 255 498 269 510 q 225 486 240 486 q 191 499 208 486 q 151 539 174 511 q 130 567 139 554 q 119 582 121 581 q 115 608 113 594 q 129 631 118 622 q 149 636 136 636 q 178 621 167 636 q 201 588 189 604 q 224 563 214 572 q 241 590 231 574 q 261 622 251 606 z "},"":{"ha":429,"x_min":21,"x_max":415,"o":"m 314 300 q 288 310 299 300 q 274 336 276 321 q 256 364 271 360 q 235 368 242 368 q 208 345 218 368 q 191 292 197 322 q 182 233 185 263 q 179 192 179 204 q 181 160 179 179 q 188 125 183 142 q 203 96 193 108 q 228 83 213 83 q 268 99 249 83 q 301 136 288 114 q 324 183 315 158 q 332 226 332 208 q 344 256 332 243 q 374 268 357 268 q 403 256 392 268 q 415 226 415 243 q 401 149 415 189 q 361 76 386 110 q 302 22 336 43 q 228 0 268 0 q 78 56 135 0 q 21 204 21 111 q 35 293 21 249 q 78 372 50 338 q 144 429 106 407 q 232 451 183 451 q 278 444 256 451 q 318 422 300 436 q 347 387 336 407 q 357 342 357 367 q 344 313 357 325 q 314 300 332 300 m 267 615 q 297 635 275 635 q 314 631 306 635 q 331 610 326 624 q 328 583 335 597 q 312 553 322 571 q 288 519 301 535 q 260 491 275 503 q 231 479 246 479 q 197 492 214 479 q 157 532 179 504 q 135 560 144 547 q 125 575 126 574 q 121 601 118 588 q 135 624 124 615 q 154 629 142 629 q 183 614 172 629 q 207 581 194 597 q 229 556 219 565 q 247 583 236 567 q 267 615 257 599 z "},"":{"ha":429,"x_min":21,"x_max":415,"o":"m 314 300 q 288 310 299 300 q 274 336 276 321 q 256 364 271 360 q 235 368 242 368 q 208 345 218 368 q 191 292 197 322 q 182 233 185 263 q 179 192 179 204 q 181 160 179 179 q 188 125 183 142 q 203 96 193 108 q 228 83 213 83 q 268 99 249 83 q 301 136 288 114 q 324 183 315 158 q 332 226 332 208 q 344 256 332 243 q 374 268 357 268 q 403 256 392 268 q 415 226 415 243 q 401 149 415 189 q 361 76 386 110 q 302 22 336 43 q 228 0 268 0 q 78 56 135 0 q 21 204 21 111 q 35 293 21 249 q 78 372 50 338 q 144 429 106 407 q 232 451 183 451 q 278 444 256 451 q 318 422 300 436 q 347 387 336 407 q 357 342 357 367 q 344 313 357 325 q 314 300 332 300 m 214 488 q 199 510 201 496 q 206 536 197 524 q 220 558 213 544 q 235 585 228 571 q 249 613 243 599 q 256 636 254 626 q 270 658 260 651 q 296 664 281 664 q 319 649 311 661 q 325 624 328 638 q 315 589 324 613 q 292 541 306 565 q 264 499 279 517 q 233 481 249 481 q 214 488 224 481 z "},"":{"ha":500,"x_min":24,"x_max":474,"o":"m 318 33 q 319 81 318 57 q 321 129 319 106 q 300 84 313 107 q 271 42 288 61 q 233 11 254 24 q 185 -1 211 -1 q 108 20 139 -1 q 59 75 78 42 q 32 149 40 108 q 24 226 24 189 q 29 294 24 254 q 49 369 35 333 q 88 429 64 404 q 150 454 113 454 q 189 430 181 454 q 197 382 197 406 l 197 375 q 196 340 197 360 q 193 299 194 321 q 189 235 190 268 q 188 171 188 203 q 189 128 188 150 q 196 86 190 107 q 228 128 213 99 q 257 193 244 158 q 278 260 269 228 q 293 314 288 293 q 301 342 297 329 q 307 365 304 356 q 324 399 314 385 q 357 414 335 414 q 417 388 394 414 q 453 324 440 361 q 469 248 465 288 q 474 181 474 208 q 469 117 474 154 q 453 47 465 81 q 420 -9 442 14 q 363 -32 399 -32 q 326 -11 335 -32 q 318 33 318 10 m 297 708 q 360 681 335 708 q 389 624 382 658 q 385 558 396 590 q 345 501 374 522 q 279 479 317 479 q 221 501 244 479 q 190 554 197 522 q 188 600 185 576 q 201 644 190 624 q 229 682 211 665 q 274 704 247 699 q 297 708 285 708 m 310 633 q 297 639 304 639 q 294 638 296 639 q 290 638 293 638 q 260 610 268 632 q 257 569 253 588 q 266 551 260 556 q 279 547 272 547 q 303 556 293 547 q 318 579 314 565 q 320 610 324 594 q 310 633 317 626 z "},"":{"ha":500,"x_min":24,"x_max":474,"o":"m 318 33 q 319 81 318 57 q 321 129 319 106 q 300 84 313 107 q 271 42 288 61 q 233 11 254 24 q 185 -1 211 -1 q 108 20 139 -1 q 59 75 78 42 q 32 149 40 108 q 24 226 24 189 q 29 294 24 254 q 49 369 35 333 q 88 429 64 404 q 150 454 113 454 q 189 430 181 454 q 197 382 197 406 l 197 375 q 196 340 197 360 q 193 299 194 321 q 189 235 190 268 q 188 171 188 203 q 189 128 188 150 q 196 86 190 107 q 228 128 213 99 q 257 193 244 158 q 278 260 269 228 q 293 314 288 293 q 301 342 297 329 q 307 365 304 356 q 324 399 314 385 q 357 414 335 414 q 417 388 394 414 q 453 324 440 361 q 469 248 465 288 q 474 181 474 208 q 469 117 474 154 q 453 47 465 81 q 420 -9 442 14 q 363 -32 399 -32 q 326 -11 335 -32 q 318 33 318 10 m 260 488 q 245 510 247 496 q 251 536 243 524 q 266 558 258 544 q 281 585 274 571 q 294 613 289 599 q 301 636 300 626 q 316 658 306 651 q 342 664 326 664 q 365 649 357 661 q 371 624 374 638 q 360 589 369 613 q 338 541 351 565 q 310 499 325 517 q 279 481 294 481 q 260 488 269 481 z "},"":{"ha":500,"x_min":24,"x_max":474,"o":"m 197 375 q 196 340 197 360 q 193 299 194 321 q 189 235 190 268 q 188 171 188 203 q 189 128 188 150 q 196 86 190 107 q 228 128 213 99 q 257 193 244 158 q 278 260 269 228 q 293 314 288 293 q 301 342 297 329 q 307 365 304 356 q 324 399 314 385 q 357 414 335 414 q 417 388 394 414 q 453 324 440 361 q 469 248 465 288 q 474 181 474 208 q 469 117 474 154 q 453 47 465 81 q 420 -9 442 14 q 363 -32 399 -32 q 326 -11 335 -32 q 318 33 318 10 q 319 81 318 57 q 321 129 319 106 q 300 84 313 107 q 271 42 288 61 q 233 11 254 24 q 185 -1 211 -1 q 108 20 139 -1 q 59 75 78 42 q 32 149 40 108 q 24 226 24 189 q 29 294 24 254 q 49 369 35 333 q 88 429 64 404 q 150 454 113 454 q 189 430 181 454 q 197 382 197 406 l 197 375 m 221 481 q 200 488 210 481 q 186 510 189 496 q 192 536 183 524 q 222 585 206 554 q 243 636 239 615 q 257 658 246 651 q 283 664 268 664 q 306 649 299 661 q 311 624 314 638 q 301 589 310 613 q 279 541 292 565 q 251 499 267 517 q 221 481 236 481 m 325 488 q 311 510 314 496 q 317 536 308 524 q 347 585 331 554 q 368 636 364 615 q 382 658 371 651 q 408 664 393 664 q 431 649 424 661 q 436 624 439 638 q 426 589 435 613 q 404 541 417 565 q 376 499 392 517 q 346 481 361 481 q 325 488 335 481 z "},"":{"ha":500,"x_min":24,"x_max":474,"o":"m 318 33 q 319 81 318 57 q 321 129 319 106 q 300 84 313 107 q 271 42 288 61 q 233 11 254 24 q 185 -1 211 -1 q 108 20 139 -1 q 59 75 78 42 q 32 149 40 108 q 24 226 24 189 q 29 294 24 254 q 49 369 35 333 q 88 429 64 404 q 150 454 113 454 q 189 430 181 454 q 197 382 197 406 l 197 375 q 196 340 197 360 q 193 299 194 321 q 189 235 190 268 q 188 171 188 203 q 189 128 188 150 q 196 86 190 107 q 228 128 213 99 q 257 193 244 158 q 278 260 269 228 q 293 314 288 293 q 301 342 297 329 q 307 365 304 356 q 324 399 314 385 q 357 414 335 414 q 417 388 394 414 q 453 324 440 361 q 469 248 465 288 q 474 181 474 208 q 469 117 474 154 q 453 47 465 81 q 420 -9 442 14 q 363 -32 399 -32 q 326 -11 335 -32 q 318 33 318 10 m 354 481 q 319 495 333 481 q 304 531 304 510 q 319 567 304 551 q 354 582 333 582 q 390 567 375 582 q 406 531 406 551 q 390 495 406 510 q 354 481 375 481 m 201 481 q 166 495 181 481 q 151 531 151 510 q 166 567 151 551 q 201 582 181 582 q 238 567 222 582 q 253 531 253 551 q 238 495 253 510 q 201 481 222 481 z "},"":{"ha":433,"x_min":21,"x_max":414,"o":"m 414 238 q 404 158 414 200 q 374 81 394 117 q 321 23 353 46 q 244 0 289 0 q 156 16 197 0 q 85 61 115 32 q 38 131 54 90 q 21 218 21 171 q 33 292 21 257 q 68 354 46 326 q 122 400 90 382 q 192 424 153 418 q 206 448 194 439 q 233 457 218 457 q 313 438 279 457 q 369 388 347 419 q 403 318 392 357 q 414 238 414 279 m 331 238 q 317 313 331 274 q 267 368 304 353 q 252 350 263 357 q 229 343 242 343 q 207 328 215 343 q 194 294 199 314 q 187 256 189 275 q 185 226 185 236 q 190 172 185 197 q 203 126 194 146 q 222 95 211 107 q 244 83 232 83 q 280 97 264 83 q 307 133 296 111 q 324 182 318 154 q 331 238 331 210 m 217 488 q 202 510 204 496 q 208 536 200 524 q 223 558 215 544 q 238 585 231 571 q 251 613 246 599 q 258 636 257 626 q 273 658 263 651 q 299 664 283 664 q 322 649 314 661 q 328 624 331 638 q 317 589 326 613 q 295 541 308 565 q 267 499 282 517 q 236 481 251 481 q 217 488 226 481 z "},"":{"ha":433,"x_min":21,"x_max":414,"o":"m 414 238 q 404 158 414 200 q 374 81 394 117 q 321 23 353 46 q 244 0 289 0 q 156 16 197 0 q 85 61 115 32 q 38 131 54 90 q 21 218 21 171 q 33 292 21 257 q 68 354 46 326 q 122 400 90 382 q 192 424 153 418 q 206 448 194 439 q 233 457 218 457 q 313 438 279 457 q 369 388 347 419 q 403 318 392 357 q 414 238 414 279 m 331 238 q 317 313 331 274 q 267 368 304 353 q 252 350 263 357 q 229 343 242 343 q 207 328 215 343 q 194 294 199 314 q 187 256 189 275 q 185 226 185 236 q 190 172 185 197 q 203 126 194 146 q 222 95 211 107 q 244 83 232 83 q 280 97 264 83 q 307 133 296 111 q 324 182 318 154 q 331 238 331 210 m 307 478 q 276 497 285 478 q 256 531 267 514 q 239 557 246 547 q 217 531 229 547 q 193 499 204 515 q 164 483 182 483 q 144 489 156 483 q 131 511 133 497 q 135 538 128 525 q 145 552 136 539 q 167 581 154 565 q 206 621 189 608 q 240 633 224 633 q 271 622 256 633 q 299 594 286 610 q 322 560 311 578 q 338 529 332 542 q 340 503 344 517 q 324 482 336 489 q 307 478 315 478 z "},"":{"ha":433,"x_min":21,"x_max":414,"o":"m 233 457 q 313 438 279 457 q 369 388 347 419 q 403 318 392 357 q 414 238 414 279 q 404 158 414 200 q 374 81 394 117 q 321 23 353 46 q 244 0 289 0 q 156 16 197 0 q 85 61 115 32 q 38 131 54 90 q 21 218 21 171 q 33 292 21 257 q 68 354 46 326 q 122 400 90 382 q 192 424 153 418 q 206 448 194 439 q 233 457 218 457 m 267 368 q 252 350 263 357 q 229 343 242 343 q 207 328 215 343 q 194 294 199 314 q 187 256 189 275 q 185 226 185 236 q 190 172 185 197 q 203 126 194 146 q 222 95 211 107 q 244 83 232 83 q 280 97 264 83 q 307 133 296 111 q 324 182 318 154 q 331 238 331 210 q 317 313 331 274 q 267 368 304 353 m 282 488 q 268 510 271 496 q 274 536 265 524 q 289 558 281 544 q 305 585 297 571 q 318 613 313 599 q 325 636 324 626 q 339 658 328 651 q 365 664 350 664 q 388 649 381 661 q 393 624 396 638 q 383 589 392 613 q 361 541 374 565 q 333 499 349 517 q 303 481 318 481 q 282 488 293 481 m 200 636 q 214 658 203 651 q 240 664 225 664 q 263 649 256 661 q 268 624 271 638 q 258 589 267 613 q 236 541 249 565 q 208 499 224 517 q 178 481 193 481 q 157 488 168 481 q 143 510 146 496 q 149 536 140 524 q 164 558 156 544 q 180 585 172 571 q 193 613 188 599 q 200 636 199 626 z "},"":{"ha":433,"x_min":21,"x_max":414,"o":"m 414 238 q 404 158 414 200 q 374 81 394 117 q 321 23 353 46 q 244 0 289 0 q 156 16 197 0 q 85 61 115 32 q 38 131 54 90 q 21 218 21 171 q 33 292 21 257 q 68 354 46 326 q 122 400 90 382 q 192 424 153 418 q 206 448 194 439 q 233 457 218 457 q 313 438 279 457 q 369 388 347 419 q 403 318 392 357 q 414 238 414 279 m 331 238 q 317 313 331 274 q 267 368 304 353 q 252 350 263 357 q 229 343 242 343 q 207 328 215 343 q 194 294 199 314 q 187 256 189 275 q 185 226 185 236 q 190 172 185 197 q 203 126 194 146 q 222 95 211 107 q 244 83 232 83 q 280 97 264 83 q 307 133 296 111 q 324 182 318 154 q 331 238 331 210 m 311 481 q 276 495 290 481 q 261 531 261 510 q 276 567 261 551 q 311 582 290 582 q 347 567 332 582 q 363 531 363 551 q 347 495 363 510 q 311 481 332 481 m 158 481 q 123 495 138 481 q 108 531 108 510 q 123 567 108 551 q 158 582 138 582 q 194 567 179 582 q 210 531 210 551 q 194 495 210 510 q 158 481 179 481 z "},"":{"ha":500,"x_min":24,"x_max":474,"o":"m 197 375 q 196 340 197 360 q 193 299 194 321 q 189 235 190 268 q 188 171 188 203 q 189 128 188 150 q 196 86 190 107 q 228 128 213 99 q 257 193 244 158 q 278 260 269 228 q 293 314 288 293 q 301 342 297 329 q 307 365 304 356 q 324 399 314 385 q 357 414 335 414 q 417 388 394 414 q 453 324 440 361 q 469 248 465 288 q 474 181 474 208 q 469 117 474 154 q 453 47 465 81 q 420 -9 442 14 q 363 -32 399 -32 q 326 -11 335 -32 q 318 33 318 10 q 319 81 318 57 q 321 129 319 106 q 300 84 313 107 q 271 42 288 61 q 233 11 254 24 q 185 -1 211 -1 q 108 20 139 -1 q 59 75 78 42 q 32 149 40 108 q 24 226 24 189 q 29 294 24 254 q 49 369 35 333 q 88 429 64 404 q 150 454 113 454 q 189 430 181 454 q 197 382 197 406 l 197 375 m 215 664 q 242 658 231 664 q 256 636 253 651 q 276 585 260 615 q 307 536 293 554 q 313 510 315 524 q 299 488 310 496 q 278 481 289 481 q 247 499 263 481 q 219 541 232 517 q 198 589 207 565 q 188 624 189 613 q 192 649 185 638 q 215 664 200 661 z "},"":{"ha":500,"x_min":24,"x_max":474,"o":"m 318 33 q 319 81 318 57 q 321 129 319 106 q 300 84 313 107 q 271 42 288 61 q 233 11 254 24 q 185 -1 211 -1 q 108 20 139 -1 q 59 75 78 42 q 32 149 40 108 q 24 226 24 189 q 29 294 24 254 q 49 369 35 333 q 88 429 64 404 q 150 454 113 454 q 189 430 181 454 q 197 382 197 406 l 197 375 q 196 340 197 360 q 193 299 194 321 q 189 235 190 268 q 188 171 188 203 q 189 128 188 150 q 196 86 190 107 q 228 128 213 99 q 257 193 244 158 q 278 260 269 228 q 293 314 288 293 q 301 342 297 329 q 307 365 304 356 q 324 399 314 385 q 357 414 335 414 q 417 388 394 414 q 453 324 440 361 q 469 248 465 288 q 474 181 474 208 q 469 117 474 154 q 453 47 465 81 q 420 -9 442 14 q 363 -32 399 -32 q 326 -11 335 -32 q 318 33 318 10 m 349 478 q 318 497 326 478 q 298 531 308 514 q 281 557 288 547 q 258 531 271 547 q 235 499 246 515 q 206 483 224 483 q 186 489 197 483 q 172 511 175 497 q 176 538 169 525 q 187 552 178 539 q 208 581 196 565 q 248 621 231 608 q 282 633 265 633 q 313 622 297 633 q 340 594 328 610 q 363 560 353 578 q 379 529 374 542 q 382 503 386 517 q 365 482 378 489 q 349 478 357 478 z "},"":{"ha":433,"x_min":21,"x_max":414,"o":"m 414 238 q 404 158 414 200 q 374 81 394 117 q 321 23 353 46 q 244 0 289 0 q 156 16 197 0 q 85 61 115 32 q 38 131 54 90 q 21 218 21 171 q 33 292 21 257 q 68 354 46 326 q 122 400 90 382 q 192 424 153 418 q 206 448 194 439 q 233 457 218 457 q 313 438 279 457 q 369 388 347 419 q 403 318 392 357 q 414 238 414 279 m 244 83 q 280 97 264 83 q 307 133 296 111 q 324 182 318 154 q 331 238 331 210 q 317 313 331 274 q 267 368 304 353 q 252 350 263 357 q 229 343 242 343 q 207 328 215 343 q 194 294 199 314 q 187 256 189 275 q 185 226 185 236 q 190 172 185 197 q 203 126 194 146 q 222 95 211 107 q 244 83 232 83 m 256 488 q 236 481 246 481 q 205 499 221 481 q 176 541 189 517 q 156 589 164 565 q 144 624 147 613 q 150 649 142 638 q 172 664 158 661 q 199 658 188 664 q 213 636 210 653 q 234 585 217 615 q 264 536 251 554 q 269 510 272 524 q 256 488 267 496 z "},"":{"ha":433,"x_min":21,"x_max":414,"o":"m 414 238 q 404 158 414 200 q 374 81 394 117 q 321 23 353 46 q 244 0 289 0 q 156 16 197 0 q 85 61 115 32 q 38 131 54 90 q 21 218 21 171 q 33 292 21 257 q 68 354 46 326 q 122 400 90 382 q 192 424 153 418 q 206 448 194 439 q 233 457 218 457 q 313 438 279 457 q 369 388 347 419 q 403 318 392 357 q 414 238 414 279 m 331 238 q 317 313 331 274 q 267 368 304 353 q 252 350 263 357 q 229 343 242 343 q 207 328 215 343 q 194 294 199 314 q 187 256 189 275 q 185 226 185 236 q 190 172 185 197 q 203 126 194 146 q 222 95 211 107 q 244 83 232 83 q 280 97 264 83 q 307 133 296 111 q 324 182 318 154 q 331 238 331 210 m 261 563 q 277 553 268 556 q 294 550 286 550 q 303 578 294 567 q 329 590 311 590 q 354 581 344 590 q 364 556 364 571 q 344 501 364 522 q 292 481 324 481 q 246 491 268 481 q 210 517 224 501 q 188 526 201 526 q 179 524 181 526 q 176 514 178 521 q 164 492 174 500 q 142 483 154 483 q 136 485 139 483 q 113 498 122 488 q 107 524 104 508 q 134 576 113 556 q 189 596 156 596 q 228 588 208 596 q 261 563 247 579 z "},"":{"ha":524,"x_min":35,"x_max":503,"o":"m 203 126 q 213 124 203 124 q 258 154 238 124 q 292 225 278 185 q 316 306 307 265 q 328 365 325 346 q 368 401 338 401 q 439 374 413 401 q 479 306 465 346 q 498 223 493 267 q 503 147 503 179 q 496 50 503 104 q 474 -60 489 -4 q 437 -168 460 -115 q 381 -262 414 -221 q 303 -328 347 -303 q 204 -353 260 -353 q 152 -337 174 -353 q 117 -297 131 -321 q 96 -244 103 -274 q 89 -190 89 -215 q 140 -54 89 -107 q 275 -1 190 -1 q 304 -3 289 -1 q 335 -7 319 -4 q 347 142 344 65 q 294 72 326 103 q 213 40 261 40 q 135 56 168 40 q 79 98 101 71 q 46 160 57 125 q 35 238 35 196 q 42 303 35 265 q 66 376 50 342 q 108 433 82 410 q 168 457 133 457 q 210 436 197 457 q 222 390 222 415 q 219 350 222 372 q 210 299 215 328 q 199 235 203 267 q 194 172 194 204 q 197 139 194 149 q 203 126 200 129 m 204 -269 q 247 -247 228 -268 q 281 -196 267 -225 q 305 -136 296 -167 q 318 -89 314 -106 q 275 -85 297 -85 q 199 -114 225 -85 q 172 -192 172 -143 q 174 -210 172 -197 q 180 -235 176 -222 q 190 -259 183 -249 q 204 -269 196 -269 m 286 488 q 272 510 274 496 q 278 536 269 524 q 292 558 285 544 q 308 585 300 571 q 321 613 315 599 q 328 636 326 626 q 342 658 332 651 q 368 664 353 664 q 392 649 383 661 q 397 624 400 638 q 387 589 396 613 q 365 541 378 565 q 336 499 351 517 q 306 481 321 481 q 286 488 296 481 z "},"":{"ha":524,"x_min":35,"x_max":503,"o":"m 203 126 q 213 124 203 124 q 258 154 238 124 q 292 225 278 185 q 316 306 307 265 q 328 365 325 346 q 368 401 338 401 q 439 374 413 401 q 479 306 465 346 q 498 223 493 267 q 503 147 503 179 q 496 50 503 104 q 474 -60 489 -4 q 437 -168 460 -115 q 381 -262 414 -221 q 303 -328 347 -303 q 204 -353 260 -353 q 152 -337 174 -353 q 117 -297 131 -321 q 96 -244 103 -274 q 89 -190 89 -215 q 140 -54 89 -107 q 275 -1 190 -1 q 304 -3 289 -1 q 335 -7 319 -4 q 347 142 344 65 q 294 72 326 103 q 213 40 261 40 q 135 56 168 40 q 79 98 101 71 q 46 160 57 125 q 35 238 35 196 q 42 303 35 265 q 66 376 50 342 q 108 433 82 410 q 168 457 133 457 q 210 436 197 457 q 222 390 222 415 q 219 350 222 372 q 210 299 215 328 q 199 235 203 267 q 194 172 194 204 q 197 139 194 149 q 203 126 200 129 m 204 -269 q 247 -247 228 -268 q 281 -196 267 -225 q 305 -136 296 -167 q 318 -89 314 -106 q 275 -85 297 -85 q 199 -114 225 -85 q 172 -192 172 -143 q 174 -210 172 -197 q 180 -235 176 -222 q 190 -259 183 -249 q 204 -269 196 -269 m 381 481 q 345 495 360 481 q 331 531 331 510 q 345 567 331 551 q 381 582 360 582 q 417 567 401 582 q 432 531 432 551 q 417 495 432 510 q 381 481 401 481 m 228 481 q 192 495 207 481 q 178 531 178 510 q 192 567 178 551 q 228 582 207 582 q 264 567 249 582 q 279 531 279 551 q 264 495 279 510 q 228 481 249 481 z "},"":{"ha":628,"x_min":14,"x_max":615,"o":"m 493 196 q 435 120 468 156 q 365 58 403 85 q 282 15 326 31 q 188 0 238 0 q 66 49 110 0 q 22 174 22 99 q 38 261 22 218 q 81 338 53 304 q 149 393 110 372 q 235 414 188 414 q 417 369 332 414 q 453 522 440 444 q 467 678 467 599 l 467 686 q 428 606 450 647 q 376 529 406 564 q 307 473 346 494 q 219 451 268 451 q 126 474 165 451 q 63 535 88 497 q 26 619 38 572 q 14 713 14 665 q 19 768 14 736 q 35 829 24 800 q 67 878 47 858 q 119 899 88 899 q 157 878 147 899 q 169 835 167 857 q 172 776 172 806 q 172 716 172 746 q 174 656 172 686 q 183 597 176 626 q 188 581 185 592 q 194 560 190 569 q 205 542 199 550 q 219 535 211 535 q 283 556 256 535 q 333 608 311 576 q 371 678 354 640 q 399 749 388 715 q 419 808 411 783 q 435 839 428 833 q 467 853 451 853 q 541 828 513 853 q 586 769 569 804 q 609 692 603 733 q 615 614 615 650 q 594 438 615 526 q 535 271 572 350 q 542 254 539 263 q 546 236 546 246 q 533 207 546 219 q 504 194 521 194 q 499 195 501 194 q 493 196 496 196 m 188 83 q 257 104 225 83 q 314 156 289 125 q 358 224 339 188 q 389 290 376 260 q 235 331 317 331 q 181 316 206 331 q 140 279 157 301 q 115 229 124 257 q 106 174 106 201 q 125 108 106 133 q 188 83 144 83 m 379 917 q 344 931 358 917 q 329 967 329 946 q 344 1003 329 988 q 379 1018 358 1018 q 415 1003 400 1018 q 431 967 431 988 q 415 931 431 946 q 379 917 400 917 m 226 917 q 191 931 206 917 q 176 967 176 946 q 191 1003 176 988 q 226 1018 206 1018 q 263 1003 247 1018 q 278 967 278 988 q 263 931 278 946 q 226 917 247 917 z "},"":{"ha":499,"x_min":24,"x_max":476,"o":"m 321 283 q 320 326 321 304 q 314 367 319 347 q 301 351 308 363 q 285 319 294 340 q 257 247 269 288 q 233 169 244 207 q 217 116 225 142 q 201 71 210 90 q 193 51 199 63 q 180 30 188 40 q 160 12 172 19 q 133 4 149 4 q 78 26 100 4 q 44 78 57 47 q 28 142 32 108 q 24 201 24 176 q 29 265 24 229 q 48 333 35 301 q 85 387 61 365 q 144 408 108 408 q 179 391 168 408 q 190 353 190 374 q 190 339 190 346 q 188 324 189 332 q 187 309 188 317 q 185 293 186 301 q 204 345 193 317 q 232 398 215 374 q 271 439 249 422 q 322 456 293 456 q 397 431 367 456 q 444 370 426 407 q 469 291 463 333 q 476 213 476 249 q 472 148 476 185 q 453 78 467 111 q 417 23 440 46 q 357 0 393 0 q 320 22 329 0 q 311 67 311 43 q 315 147 311 93 q 319 215 318 179 q 321 283 321 251 m 347 563 q 363 553 354 556 q 381 550 372 550 q 389 578 381 567 q 415 590 397 590 q 440 581 431 590 q 450 556 450 571 q 430 501 450 522 q 378 481 410 481 q 332 491 354 481 q 296 517 310 501 q 274 526 288 526 q 265 524 267 526 q 263 514 264 521 q 250 492 260 500 q 228 483 240 483 q 222 485 225 483 q 199 498 208 488 q 193 524 190 508 q 220 576 199 556 q 275 596 242 596 q 314 588 294 596 q 347 563 333 579 z "},"":{"ha":424,"x_min":21,"x_max":403,"o":"m 240 454 q 323 425 289 454 q 357 347 357 396 q 344 318 357 331 q 315 306 332 306 q 285 318 297 306 q 274 347 274 331 q 266 364 274 357 q 249 371 258 371 q 228 363 238 371 q 219 340 219 354 q 248 304 219 317 q 311 274 276 292 q 374 226 346 256 q 403 136 403 196 q 383 74 403 100 q 334 32 364 49 q 269 8 304 15 q 206 0 235 0 q 131 16 165 0 q 73 58 97 32 q 35 120 49 85 q 21 194 21 156 q 33 224 21 213 q 63 236 44 236 q 92 224 81 236 q 104 194 104 213 q 115 141 104 163 q 140 107 125 119 q 173 89 156 94 q 203 83 190 83 q 236 97 228 83 q 244 131 244 111 q 222 189 244 171 q 158 225 199 207 q 122 242 140 233 q 90 264 104 251 q 67 293 76 276 q 58 332 58 310 q 77 387 58 364 q 123 425 96 410 q 182 447 150 440 q 240 454 214 454 m 274 615 q 304 635 282 635 q 321 631 313 635 q 338 610 333 624 q 335 583 342 597 q 319 553 329 571 q 295 519 308 535 q 267 491 282 503 q 238 479 253 479 q 203 492 221 479 q 164 532 186 504 q 142 560 151 547 q 132 575 133 574 q 128 601 125 588 q 142 624 131 615 q 161 629 149 629 q 190 614 179 629 q 214 581 201 597 q 236 556 226 565 q 253 583 243 567 q 274 615 264 599 z "},"":{"ha":418,"x_min":14,"x_max":406,"o":"m 346 342 q 330 269 346 306 q 290 198 314 232 q 236 135 265 164 q 181 83 207 106 q 265 93 221 86 q 347 117 310 100 q 364 121 356 121 q 394 108 382 121 q 406 79 406 96 q 376 39 406 54 q 305 15 346 24 q 223 3 264 6 q 160 0 182 0 q 122 1 144 0 q 76 7 99 1 q 37 23 54 13 q 15 54 19 33 q 14 65 14 61 q 14 72 14 68 q 38 151 14 110 q 98 231 63 192 q 172 303 133 269 q 238 358 210 336 q 146 369 189 369 q 103 365 119 369 q 68 374 83 365 q 53 407 53 383 q 63 433 53 422 q 88 447 72 444 q 115 451 100 450 q 146 453 131 453 q 199 450 165 453 q 264 438 232 447 q 319 413 296 429 q 344 367 343 396 q 346 354 346 360 q 346 342 346 349 m 238 615 q 268 635 246 635 q 285 631 276 635 q 301 610 297 624 q 299 583 306 597 q 283 553 293 571 q 259 519 272 535 q 231 491 246 503 q 201 479 217 479 q 167 492 185 479 q 128 532 150 504 q 106 560 115 547 q 96 575 97 574 q 92 601 89 588 q 106 624 94 615 q 125 629 113 629 q 154 614 143 629 q 178 581 165 597 q 200 556 190 565 q 217 583 207 567 q 238 615 228 599 z "},"":{"ha":418,"x_min":14,"x_max":406,"o":"m 346 342 q 330 269 346 306 q 290 198 314 232 q 236 135 265 164 q 181 83 207 106 q 265 93 221 86 q 347 117 310 100 q 364 121 356 121 q 394 108 382 121 q 406 79 406 96 q 376 39 406 54 q 305 15 346 24 q 223 3 264 6 q 160 0 182 0 q 122 1 144 0 q 76 7 99 1 q 37 23 54 13 q 15 54 19 33 q 14 65 14 61 q 14 72 14 68 q 38 151 14 110 q 98 231 63 192 q 172 303 133 269 q 238 358 210 336 q 146 369 189 369 q 103 365 119 369 q 68 374 83 365 q 53 407 53 383 q 63 433 53 422 q 88 447 72 444 q 115 451 100 450 q 146 453 131 453 q 199 450 165 453 q 264 438 232 447 q 319 413 296 429 q 344 367 343 396 q 346 354 346 360 q 346 342 346 349 m 153 531 q 167 567 153 551 q 203 582 182 582 q 239 567 224 582 q 254 531 254 551 q 239 495 254 510 q 203 481 224 481 q 167 495 182 481 q 153 531 153 510 z "},"":{"ha":489,"x_min":26,"x_max":476,"o":"m 342 247 q 335 296 339 269 q 325 344 332 322 q 304 376 317 372 q 294 360 301 374 q 278 315 288 347 q 261 253 268 288 q 247 185 254 219 q 235 126 240 154 q 222 75 229 99 q 200 25 215 50 q 153 0 185 0 q 90 24 115 0 q 51 83 65 49 q 32 158 38 118 q 26 226 26 197 q 31 284 26 251 q 47 346 35 317 q 78 395 58 375 q 132 415 99 415 q 160 406 150 415 q 176 382 171 396 q 181 351 181 368 q 182 322 182 335 q 183 305 183 314 q 183 285 183 296 q 197 338 189 308 q 218 395 204 368 q 251 441 232 422 q 300 460 271 460 q 372 446 339 460 q 427 407 404 432 q 463 349 450 382 q 476 278 476 315 q 453 198 476 229 q 392 167 429 167 q 360 181 371 167 q 346 214 349 194 q 344 229 344 221 q 342 247 343 238 m 335 615 q 365 635 343 635 q 382 631 374 635 q 399 610 394 624 q 396 583 403 597 q 380 553 390 571 q 356 519 369 535 q 328 491 343 503 q 299 479 314 479 q 265 492 282 479 q 225 532 247 504 q 203 560 213 547 q 193 575 194 574 q 189 601 186 588 q 203 624 192 615 q 222 629 210 629 q 251 614 240 629 q 275 581 263 597 q 297 556 288 565 q 315 583 304 567 q 335 615 325 599 z "},"":{"ha":499,"x_min":24,"x_max":476,"o":"m 321 283 q 320 326 321 304 q 314 367 319 347 q 301 351 308 363 q 285 319 294 340 q 257 247 269 288 q 233 169 244 207 q 217 116 225 142 q 201 71 210 90 q 193 51 199 63 q 180 30 188 40 q 160 12 172 19 q 133 4 149 4 q 78 26 100 4 q 44 78 57 47 q 28 142 32 108 q 24 201 24 176 q 29 265 24 229 q 48 333 35 301 q 85 387 61 365 q 144 408 108 408 q 179 391 168 408 q 190 353 190 374 q 190 339 190 346 q 188 324 189 332 q 187 309 188 317 q 185 293 186 301 q 204 345 193 317 q 232 398 215 374 q 271 439 249 422 q 322 456 293 456 q 397 431 367 456 q 444 370 426 407 q 469 291 463 333 q 476 213 476 249 q 472 148 476 185 q 453 78 467 111 q 417 23 440 46 q 357 0 393 0 q 320 22 329 0 q 311 67 311 43 q 315 147 311 93 q 319 215 318 179 q 321 283 321 251 m 303 488 q 288 510 290 496 q 294 536 286 524 q 309 558 301 544 q 324 585 317 571 q 338 613 332 599 q 344 636 343 626 q 359 658 349 651 q 385 664 369 664 q 408 649 400 661 q 414 624 417 638 q 403 589 413 613 q 381 541 394 565 q 353 499 368 517 q 322 481 338 481 q 303 488 313 481 z "},"":{"ha":496,"x_min":21,"x_max":474,"o":"m 318 283 q 317 326 318 304 q 311 367 317 347 q 299 351 306 363 q 282 319 292 340 q 254 247 267 288 q 231 169 242 207 q 215 116 222 142 q 199 71 207 90 q 190 51 196 63 q 177 30 185 40 q 158 12 169 19 q 131 4 146 4 q 76 26 97 4 q 42 78 54 47 q 25 142 29 108 q 21 201 21 176 q 26 265 21 229 q 45 333 32 301 q 82 387 58 365 q 142 408 106 408 q 176 391 165 408 q 188 353 188 374 q 187 339 188 346 q 185 324 186 332 q 184 309 185 317 q 182 293 183 301 q 201 345 190 317 q 229 398 213 374 q 268 439 246 422 q 319 456 290 456 q 394 431 364 456 q 442 370 424 407 q 467 291 460 333 q 474 213 474 249 q 469 148 474 185 q 451 78 464 111 q 414 23 438 46 q 354 0 390 0 q 317 22 326 0 q 308 67 308 43 q 313 147 308 93 q 317 215 315 179 q 318 283 318 251 m 353 615 q 383 635 361 635 q 400 631 392 635 q 417 610 413 624 q 414 583 421 597 q 398 553 408 571 q 374 519 388 535 q 347 491 361 503 q 317 479 332 479 q 283 492 300 479 q 243 532 265 504 q 222 560 231 547 q 211 575 213 574 q 207 601 204 588 q 221 624 210 615 q 240 629 228 629 q 269 614 258 629 q 293 581 281 597 q 315 556 306 565 q 333 583 322 567 q 353 615 343 599 z "},"":{"ha":489,"x_min":26,"x_max":476,"o":"m 342 247 q 335 296 339 269 q 325 344 332 322 q 304 376 317 372 q 294 360 301 374 q 278 315 288 347 q 261 253 268 288 q 247 185 254 219 q 235 126 240 154 q 222 75 229 99 q 200 25 215 50 q 153 0 185 0 q 90 24 115 0 q 51 83 65 49 q 32 158 38 118 q 26 226 26 197 q 31 284 26 251 q 47 346 35 317 q 78 395 58 375 q 132 415 99 415 q 160 406 150 415 q 176 382 171 396 q 181 351 181 368 q 182 322 182 335 q 183 305 183 314 q 183 285 183 296 q 197 338 189 308 q 218 395 204 368 q 251 441 232 422 q 300 460 271 460 q 372 446 339 460 q 427 407 404 432 q 463 349 450 382 q 476 278 476 315 q 453 198 476 229 q 392 167 429 167 q 360 181 371 167 q 346 214 349 194 q 344 229 344 221 q 342 247 343 238 m 282 488 q 267 510 269 496 q 274 536 265 524 q 288 558 281 544 q 303 585 296 571 q 317 613 311 599 q 324 636 322 626 q 338 658 328 651 q 364 664 349 664 q 388 649 379 661 q 393 624 396 638 q 383 589 392 613 q 360 541 374 565 q 332 499 347 517 q 301 481 317 481 q 282 488 292 481 z "},"":{"ha":424,"x_min":21,"x_max":403,"o":"m 240 454 q 323 425 289 454 q 357 347 357 396 q 344 318 357 331 q 315 306 332 306 q 285 318 297 306 q 274 347 274 331 q 266 364 274 357 q 249 371 258 371 q 228 363 238 371 q 219 340 219 354 q 248 304 219 317 q 311 274 276 292 q 374 226 346 256 q 403 136 403 196 q 383 74 403 100 q 334 32 364 49 q 269 8 304 15 q 206 0 235 0 q 131 16 165 0 q 73 58 97 32 q 35 120 49 85 q 21 194 21 156 q 33 224 21 213 q 63 236 44 236 q 92 224 81 236 q 104 194 104 213 q 115 141 104 163 q 140 107 125 119 q 173 89 156 94 q 203 83 190 83 q 236 97 228 83 q 244 131 244 111 q 222 189 244 171 q 158 225 199 207 q 122 242 140 233 q 90 264 104 251 q 67 293 76 276 q 58 332 58 310 q 77 387 58 364 q 123 425 96 410 q 182 447 150 440 q 240 454 214 454 m 221 488 q 206 510 208 496 q 213 536 204 524 q 227 558 219 544 q 242 585 235 571 q 256 613 250 599 q 263 636 261 626 q 277 658 267 651 q 303 664 288 664 q 326 649 318 661 q 332 624 335 638 q 322 589 331 613 q 299 541 313 565 q 271 499 286 517 q 240 481 256 481 q 221 488 231 481 z "},"":{"ha":418,"x_min":14,"x_max":406,"o":"m 346 342 q 330 269 346 306 q 290 198 314 232 q 236 135 265 164 q 181 83 207 106 q 265 93 221 86 q 347 117 310 100 q 364 121 356 121 q 394 108 382 121 q 406 79 406 96 q 376 39 406 54 q 305 15 346 24 q 223 3 264 6 q 160 0 182 0 q 122 1 144 0 q 76 7 99 1 q 37 23 54 13 q 15 54 19 33 q 14 65 14 61 q 14 72 14 68 q 38 151 14 110 q 98 231 63 192 q 172 303 133 269 q 238 358 210 336 q 146 369 189 369 q 103 365 119 369 q 68 374 83 365 q 53 407 53 383 q 63 433 53 422 q 88 447 72 444 q 115 451 100 450 q 146 453 131 453 q 199 450 165 453 q 264 438 232 447 q 319 413 296 429 q 344 367 343 396 q 346 354 346 360 q 346 342 346 349 m 185 488 q 170 510 172 496 q 176 536 168 524 q 191 558 183 544 q 206 585 199 571 q 219 613 214 599 q 226 636 225 626 q 241 658 231 651 q 267 664 251 664 q 290 649 282 661 q 296 624 299 638 q 285 589 294 613 q 263 541 276 565 q 235 499 250 517 q 204 481 219 481 q 185 488 194 481 z "},"":{"ha":217,"x_min":24,"x_max":224,"o":"m 24 501 q 28 643 24 576 q 39 758 32 710 q 47 801 42 776 q 63 849 53 826 q 88 887 72 871 q 129 903 104 903 q 164 883 153 903 q 173 826 169 875 q 179 707 176 778 q 183 554 182 636 q 185 398 185 472 q 187 267 186 324 q 188 193 188 211 q 188 138 188 165 q 186 83 188 111 q 183 41 185 53 q 176 22 181 29 q 139 0 163 0 q 117 5 131 0 q 89 28 103 10 q 53 121 67 57 q 34 256 40 185 q 26 396 28 328 q 24 501 24 464 m 110 942 q 95 964 97 950 q 101 990 93 978 q 116 1012 108 999 q 131 1039 124 1025 q 144 1067 139 1053 q 151 1090 150 1081 q 166 1112 156 1106 q 192 1118 176 1118 q 215 1103 207 1115 q 221 1078 224 1092 q 210 1043 219 1067 q 188 995 201 1019 q 160 953 175 971 q 129 935 144 935 q 110 942 119 935 z "},"\"":{"ha":383,"x_min":69,"x_max":346,"o":"m 111 489 q 92 547 100 506 q 79 637 85 589 q 72 729 74 685 q 69 794 69 774 q 71 821 69 807 q 76 847 72 835 q 90 867 81 858 q 115 875 99 875 q 145 863 133 875 q 157 833 157 850 q 154 815 157 826 q 153 796 153 811 q 154 733 153 767 q 159 665 156 700 q 168 598 163 631 q 181 538 174 565 q 193 508 193 525 q 180 478 193 490 q 150 467 167 467 q 128 472 139 467 q 111 489 118 478 m 264 489 q 245 547 253 506 q 232 637 238 589 q 224 729 226 685 q 222 794 222 774 q 224 821 222 807 q 229 847 225 835 q 242 867 233 858 q 268 875 251 875 q 298 863 286 875 q 310 833 310 850 q 307 815 310 826 q 306 796 306 811 q 307 733 306 767 q 312 665 308 700 q 321 598 315 631 q 333 538 326 565 q 346 508 346 525 q 333 478 346 490 q 303 467 319 467 q 281 472 292 467 q 264 489 271 478 z "},"%":{"ha":336,"x_min":21,"x_max":303,"o":"m 301 847 q 290 769 299 818 q 269 661 282 719 q 243 539 257 603 q 214 417 229 475 q 182 288 197 349 q 151 178 167 226 q 131 113 140 139 q 116 72 122 88 q 106 47 110 56 q 97 32 101 38 q 63 13 86 13 q 33 25 46 13 q 21 54 21 38 q 28 76 21 65 q 58 153 40 96 q 96 286 75 210 q 138 451 117 363 q 175 619 158 539 q 203 762 192 699 q 218 854 215 825 q 233 881 221 869 q 260 892 244 892 q 290 879 279 892 q 301 847 301 867 m 251 101 q 288 86 272 101 q 303 50 303 71 q 288 15 303 29 q 251 0 272 0 q 216 15 231 0 q 201 50 201 29 q 216 86 201 71 q 251 101 231 101 m 88 792 q 51 806 67 792 q 36 842 36 821 q 51 877 36 863 q 88 892 67 892 q 123 877 108 892 q 138 842 138 863 q 123 806 138 821 q 88 792 108 792 z "},"'":{"ha":186,"x_min":54,"x_max":178,"o":"m 54 794 q 56 821 54 807 q 61 847 57 835 q 74 867 65 858 q 100 875 83 875 q 130 863 118 875 q 142 833 142 850 q 139 815 142 826 q 138 796 138 811 q 139 733 138 767 q 144 665 140 700 q 153 598 147 631 q 165 538 158 565 q 178 508 178 525 q 165 478 178 490 q 135 467 151 467 q 113 472 124 467 q 96 489 103 478 q 77 547 85 506 q 64 637 69 589 q 56 729 58 685 q 54 794 54 774 z "},"*":{"ha":440,"x_min":43,"x_max":401,"o":"m 178 474 q 175 472 176 472 q 172 469 174 471 q 122 443 138 449 q 99 436 107 438 q 92 435 96 435 q 60 447 74 435 q 47 479 47 460 q 60 510 47 499 q 92 521 74 521 q 113 531 99 524 q 149 553 128 539 q 96 593 121 572 q 67 618 78 608 q 51 636 60 625 q 44 664 43 647 q 58 692 46 681 q 89 703 71 704 q 124 679 114 700 q 142 663 129 674 q 176 636 156 651 q 177 660 176 649 q 179 682 178 671 q 183 721 179 707 q 197 756 186 740 q 229 771 207 771 q 259 759 247 771 q 271 729 271 747 q 265 708 271 715 q 262 680 263 700 q 260 628 261 660 q 321 679 308 664 q 335 695 326 689 q 357 703 344 701 q 387 692 374 704 q 401 664 400 681 q 393 636 401 647 q 379 618 385 625 q 350 593 369 608 q 297 553 325 572 q 332 531 318 539 q 353 521 346 524 q 385 510 371 521 q 399 479 399 499 q 385 447 399 460 q 354 435 372 435 q 347 436 349 435 q 303 452 328 439 q 261 476 278 465 q 263 448 263 460 q 267 429 264 436 q 275 403 275 419 q 263 373 275 385 q 233 361 250 361 q 193 386 207 361 q 182 428 185 401 q 178 474 179 454 z "},"+":{"ha":433,"x_min":15,"x_max":425,"o":"m 222 179 q 182 206 196 179 q 174 231 178 214 q 169 267 171 249 q 166 305 167 286 q 165 335 165 324 q 133 336 149 336 q 104 338 118 336 q 76 340 92 339 q 47 347 61 342 q 24 363 33 353 q 15 389 15 372 q 28 418 15 406 q 57 431 40 431 q 78 425 67 431 q 164 418 97 421 q 165 463 165 442 q 168 500 165 483 q 170 522 169 513 q 172 540 171 532 q 186 574 175 560 q 218 589 197 589 q 248 577 236 589 q 260 547 260 565 q 254 526 260 536 q 247 418 250 504 q 319 421 292 419 q 357 425 346 422 q 383 435 367 435 q 413 422 401 435 q 425 392 425 410 q 400 351 425 365 q 369 343 389 346 q 326 338 349 340 q 283 335 304 336 q 249 335 263 335 q 251 280 250 301 q 256 247 253 258 q 265 221 265 235 q 252 191 265 203 q 222 179 239 179 z "},",":{"ha":219,"x_min":26,"x_max":186,"o":"m 68 -274 q 39 -262 51 -274 q 26 -232 26 -250 q 39 -203 26 -215 q 58 -148 47 -185 q 77 -70 68 -111 q 94 9 86 -29 q 103 68 101 47 q 99 86 99 76 q 110 116 99 104 q 140 128 122 128 q 175 111 164 128 q 186 74 186 94 q 180 3 186 44 q 163 -81 174 -37 q 140 -166 153 -125 q 115 -235 128 -207 q 97 -262 108 -250 q 68 -274 86 -274 z "},"-":{"ha":538,"x_min":68,"x_max":478,"o":"m 410 356 q 436 365 419 365 q 466 353 454 365 q 478 322 478 340 q 453 282 478 296 q 415 273 440 276 q 360 267 389 269 q 305 265 332 265 q 263 265 278 265 q 206 266 233 265 q 157 268 178 267 q 129 271 144 269 q 100 278 114 272 q 77 293 86 283 q 68 319 68 303 q 81 349 68 336 q 110 361 93 361 q 131 356 119 361 q 263 349 156 349 l 272 349 q 362 351 328 349 q 410 356 396 353 z "},".":{"ha":201,"x_min":50,"x_max":151,"o":"m 50 50 q 65 86 50 71 q 100 101 79 101 q 136 86 121 101 q 151 50 151 71 q 136 15 151 29 q 100 0 121 0 q 65 15 79 0 q 50 50 50 29 z "},":":{"ha":126,"x_min":13,"x_max":114,"o":"m 13 50 q 27 86 13 71 q 63 101 42 101 q 99 86 83 101 q 114 50 114 71 q 99 15 114 29 q 63 0 83 0 q 27 15 42 0 q 13 50 13 29 m 13 425 q 27 461 13 446 q 63 476 42 476 q 99 461 83 476 q 114 425 114 446 q 99 390 114 404 q 63 375 83 375 q 27 390 42 375 q 13 425 13 404 z "},";":{"ha":182,"x_min":4,"x_max":172,"o":"m 164 74 q 158 3 164 44 q 141 -81 151 -37 q 118 -166 131 -125 q 93 -235 106 -207 q 75 -262 86 -250 q 46 -274 64 -274 q 17 -262 29 -274 q 4 -232 4 -250 q 17 -203 4 -215 q 35 -148 25 -185 q 55 -70 46 -111 q 72 9 64 -29 q 81 68 79 47 q 76 86 76 76 q 88 116 76 104 q 118 128 100 128 q 153 111 142 128 q 164 74 164 94 m 172 425 q 158 390 172 404 q 121 375 143 375 q 85 390 100 375 q 71 425 71 404 q 85 461 71 446 q 121 476 100 476 q 158 461 143 476 q 172 425 172 446 z "},"<":{"ha":394,"x_min":22,"x_max":344,"o":"m 344 546 q 318 507 344 518 q 222 466 269 488 q 131 418 175 444 q 222 372 175 393 q 318 331 269 350 q 343 292 343 319 q 331 263 343 275 q 301 250 319 250 q 260 263 292 250 q 192 293 228 276 q 124 326 156 310 q 81 350 92 343 q 40 378 57 364 q 22 417 22 393 q 40 456 22 440 q 79 485 57 472 q 124 509 92 492 q 192 544 156 526 q 260 574 228 561 q 303 588 292 588 q 332 576 319 588 q 344 546 344 564 z "},"=":{"ha":525,"x_min":57,"x_max":467,"o":"m 442 447 q 403 438 429 442 q 349 433 378 435 q 294 431 321 431 q 251 431 267 431 q 194 431 222 431 q 146 433 167 432 q 118 436 133 435 q 89 443 103 438 q 66 458 75 449 q 57 485 57 468 q 69 514 57 501 q 99 526 82 526 q 119 521 108 526 q 251 514 144 514 l 261 514 q 351 516 317 514 q 399 521 385 518 q 425 531 408 531 q 455 518 443 531 q 467 488 467 506 q 442 447 467 461 m 251 236 q 194 237 222 236 q 146 239 167 238 q 118 242 133 240 q 89 249 103 243 q 66 264 75 254 q 57 290 57 274 q 69 319 57 307 q 99 332 82 332 q 119 326 108 332 q 251 319 144 319 l 261 319 q 351 322 317 319 q 399 326 385 324 q 425 336 408 336 q 455 324 443 336 q 467 293 467 311 q 442 253 467 267 q 403 244 429 247 q 349 238 378 240 q 294 236 321 236 q 251 236 267 236 z "},">":{"ha":394,"x_min":56,"x_max":378,"o":"m 319 485 q 360 456 342 472 q 378 417 378 440 q 360 378 378 393 q 319 350 343 364 q 275 326 307 343 q 207 293 243 310 q 140 263 171 276 q 97 250 108 250 q 68 263 81 250 q 56 292 56 275 q 82 331 56 319 q 177 372 129 350 q 269 418 225 393 q 177 466 225 444 q 81 507 129 488 q 56 546 56 518 q 68 576 56 564 q 97 588 81 588 q 140 574 108 588 q 208 544 172 561 q 275 509 243 526 q 319 485 307 492 z "},"\\":{"ha":299,"x_min":17,"x_max":299,"o":"m 18 850 q 30 880 17 868 q 60 892 43 892 q 88 881 76 892 q 101 854 100 869 q 116 762 104 825 q 145 619 128 699 q 183 451 163 539 q 224 286 203 363 q 263 153 244 210 q 293 76 281 96 q 299 54 299 67 q 287 24 299 36 q 257 13 275 13 q 222 32 233 13 q 188 117 208 56 q 145 258 167 178 q 101 430 124 339 q 62 604 79 521 q 33 753 44 688 q 18 850 21 819 z "},"|":{"ha":153,"x_min":28,"x_max":129,"o":"m 124 813 q 118 792 124 801 q 115 742 117 783 q 113 638 114 700 q 112 496 113 575 q 111 333 111 417 q 112 142 111 238 q 113 -31 113 47 q 116 -160 114 -108 q 119 -224 118 -212 q 129 -250 129 -236 q 117 -280 129 -268 q 86 -292 104 -292 q 46 -267 60 -292 q 38 -199 42 -257 q 33 -52 35 -140 q 29 144 31 36 q 28 357 28 251 q 28 515 28 439 q 30 652 29 592 q 33 753 31 713 q 36 804 35 794 q 50 839 39 824 q 82 854 61 854 q 112 842 100 854 q 124 813 124 831 z "},"~":{"ha":496,"x_min":65,"x_max":436,"o":"m 335 354 q 349 358 346 354 q 353 374 353 363 q 365 403 353 390 q 394 415 376 415 q 424 403 411 415 q 436 374 436 390 q 408 299 436 326 q 336 271 381 271 q 270 285 301 271 q 219 322 239 300 q 178 342 200 342 q 149 310 153 342 q 134 285 146 294 q 107 275 122 275 q 78 287 90 275 q 65 317 65 299 q 75 358 65 339 q 100 392 85 378 q 135 415 115 407 q 178 424 156 424 q 234 412 206 424 q 282 376 263 400 q 306 360 290 367 q 335 354 322 354 z "},"^":{"ha":414,"x_min":43,"x_max":381,"o":"m 339 356 q 300 381 311 356 q 259 476 281 429 q 211 569 238 524 q 165 476 186 524 q 124 381 143 429 q 85 356 113 356 q 56 367 68 356 q 43 397 43 379 q 56 440 43 408 q 86 507 69 471 q 119 575 103 543 q 143 618 136 607 q 172 659 157 642 q 210 676 186 676 q 249 659 233 676 q 278 619 265 642 q 302 575 285 607 q 337 507 319 543 q 367 440 354 471 q 381 397 381 408 q 369 367 381 379 q 339 356 357 356 z "},"_":{"ha":597,"x_min":69,"x_max":535,"o":"m 510 -190 q 487 -197 503 -193 q 431 -204 471 -201 q 365 -206 407 -206 q 292 -207 322 -207 q 259 -207 278 -207 q 222 -206 240 -207 q 186 -205 203 -206 q 158 -204 169 -204 q 131 -201 146 -203 q 101 -194 115 -200 q 78 -179 88 -189 q 69 -153 69 -169 q 82 -124 69 -136 q 111 -111 94 -111 q 132 -118 122 -111 q 153 -120 138 -119 q 190 -122 168 -121 q 239 -123 213 -122 q 292 -124 265 -124 l 301 -124 q 405 -122 357 -124 q 467 -117 453 -119 q 493 -107 479 -107 q 523 -119 511 -107 q 535 -150 535 -132 q 510 -190 535 -176 z "},"#":{"ha":572,"x_min":36,"x_max":543,"o":"m 314 308 q 274 307 294 307 q 231 307 253 307 l 204 307 q 188 244 199 285 q 165 163 178 204 q 140 84 153 121 q 115 32 126 47 q 81 13 104 13 q 51 25 64 13 q 39 54 39 38 q 46 76 39 65 q 73 149 54 90 q 119 310 92 207 q 92 313 107 311 q 65 320 78 315 q 44 335 53 325 q 36 361 36 344 q 49 390 36 378 q 78 403 61 403 q 99 397 88 403 q 115 394 104 396 q 140 393 125 393 q 153 448 147 421 q 167 503 160 475 q 126 504 147 503 q 86 508 106 506 q 51 523 67 513 q 36 556 36 533 q 49 585 36 572 q 78 597 61 597 q 99 592 88 597 q 186 585 118 586 q 220 748 207 676 q 236 854 233 819 q 251 881 239 869 q 278 892 263 892 q 308 879 297 892 q 319 847 319 867 q 303 737 317 807 q 272 585 290 667 q 326 585 297 585 q 381 588 354 586 q 415 749 401 678 q 431 854 428 819 q 445 881 433 869 q 472 892 457 892 q 503 879 492 892 q 514 847 514 867 q 498 740 511 808 q 468 592 485 671 l 475 592 q 501 601 485 601 q 531 589 519 601 q 543 558 543 576 q 518 518 543 532 q 495 515 514 517 q 450 511 476 514 l 421 394 q 456 396 442 396 q 475 397 471 396 q 501 407 485 407 q 531 394 519 407 q 543 364 543 382 q 518 324 543 338 q 476 319 513 321 q 401 314 440 317 q 381 242 390 276 q 364 178 372 208 q 344 113 353 139 q 328 72 335 88 q 318 47 322 56 q 310 32 314 38 q 275 13 299 13 q 246 25 258 13 q 233 54 233 38 q 240 76 233 65 q 267 148 249 90 q 314 308 286 206 m 231 390 q 283 390 257 390 q 335 392 308 390 q 349 449 342 419 q 363 506 356 478 q 308 503 335 504 q 253 501 281 501 q 240 446 246 474 q 226 390 233 418 l 231 390 z "},"/":{"ha":296,"x_min":4,"x_max":285,"o":"m 243 892 q 274 879 263 892 q 285 847 285 867 q 274 769 282 818 q 253 661 265 719 q 226 539 240 603 q 197 417 213 475 q 165 288 181 349 q 135 178 150 226 q 115 113 124 139 q 99 72 106 88 q 89 47 93 56 q 81 32 85 38 q 46 13 69 13 q 17 25 29 13 q 4 54 4 38 q 11 76 4 65 q 41 153 24 96 q 79 286 58 210 q 121 451 100 363 q 158 619 142 539 q 187 762 175 699 q 201 854 199 825 q 216 881 204 869 q 243 892 228 892 z "},"":{"ha":211,"x_min":33,"x_max":199,"o":"m 40 779 q 33 835 33 818 q 36 860 33 851 q 54 888 40 881 q 88 894 68 894 q 114 877 104 892 q 121 846 124 863 q 117 835 118 838 q 125 776 118 814 q 142 697 132 738 q 162 619 151 656 q 181 564 172 582 q 190 522 199 546 q 175 501 186 508 q 151 493 164 493 q 122 505 132 493 q 104 532 111 517 q 65 653 81 586 q 40 779 50 721 z "},"":{"ha":218,"x_min":19,"x_max":185,"o":"m 131 894 q 163 887 150 894 q 182 860 176 879 q 185 835 185 851 q 178 779 185 818 q 128 568 158 671 q 120 548 124 557 q 114 532 117 539 q 97 505 107 517 q 67 493 86 493 q 28 522 36 493 q 38 564 19 546 q 56 619 46 582 q 76 697 67 656 q 92 776 85 738 q 101 835 100 814 q 97 846 100 838 q 104 877 94 863 q 131 894 114 892 z "},"":{"ha":219,"x_min":21,"x_max":186,"o":"m 132 128 q 165 120 151 128 q 183 93 178 113 q 186 68 186 85 q 179 13 186 51 q 129 -199 160 -96 q 122 -219 125 -210 q 115 -235 118 -228 q 98 -262 108 -250 q 68 -274 88 -274 q 29 -246 39 -274 q 39 -203 21 -221 q 58 -148 47 -185 q 77 -70 68 -111 q 94 9 86 -29 q 103 68 101 47 q 99 79 101 71 q 106 110 96 96 q 132 128 115 125 z "},"":{"ha":426,"x_min":56,"x_max":388,"o":"m 63 779 q 56 835 56 818 q 58 860 56 851 q 76 888 63 881 q 110 894 90 894 q 136 877 126 892 q 143 846 146 863 q 139 835 140 838 q 147 776 140 814 q 164 697 154 738 q 184 619 174 656 q 203 564 194 582 q 213 522 221 546 q 197 501 208 508 q 174 493 186 493 q 144 505 154 493 q 126 532 133 517 q 88 653 103 586 q 63 779 72 721 m 229 779 q 222 835 222 818 q 225 860 222 851 q 243 888 229 881 q 276 894 257 894 q 303 877 293 892 q 310 846 313 863 q 306 835 307 838 q 314 776 307 814 q 331 697 321 738 q 351 619 340 656 q 369 564 361 582 q 379 522 388 546 q 364 501 375 508 q 340 493 353 493 q 310 505 321 493 q 293 532 300 517 q 254 653 269 586 q 229 779 239 721 z "},"":{"ha":429,"x_min":43,"x_max":375,"o":"m 218 522 q 228 564 210 546 q 247 619 236 582 q 266 697 257 656 q 283 776 275 738 q 292 835 290 814 q 288 846 290 838 q 294 877 285 863 q 321 894 304 892 q 353 887 340 894 q 372 860 367 879 q 375 835 375 851 q 368 779 375 818 q 318 568 349 671 q 310 548 314 557 q 304 532 307 539 q 287 505 297 517 q 257 493 276 493 q 218 522 226 493 m 206 860 q 208 835 208 851 q 201 779 208 818 q 151 568 182 671 q 144 548 147 557 q 138 532 140 539 q 120 505 131 517 q 90 493 110 493 q 51 522 60 493 q 61 564 43 546 q 80 619 69 582 q 99 697 90 656 q 116 776 108 738 q 125 835 124 814 q 121 846 124 838 q 128 877 118 863 q 154 894 138 892 q 187 887 174 894 q 206 860 200 879 z "},"":{"ha":429,"x_min":43,"x_max":375,"o":"m 218 -246 q 228 -203 210 -221 q 247 -148 236 -185 q 266 -70 257 -111 q 283 9 275 -29 q 292 68 290 47 q 288 79 290 71 q 294 110 285 96 q 321 128 304 125 q 353 120 340 128 q 372 93 367 113 q 375 68 375 85 q 368 13 375 51 q 318 -199 349 -96 q 310 -219 314 -210 q 304 -235 307 -228 q 287 -262 297 -250 q 257 -274 276 -274 q 218 -246 228 -274 m 206 93 q 208 68 208 85 q 201 13 208 51 q 151 -199 182 -96 q 144 -219 147 -210 q 138 -235 140 -228 q 120 -262 131 -250 q 90 -274 110 -274 q 51 -246 61 -274 q 61 -203 43 -221 q 80 -148 69 -185 q 99 -70 90 -111 q 116 9 108 -29 q 125 68 124 47 q 121 79 124 71 q 128 110 118 96 q 154 128 138 125 q 187 120 174 128 q 206 93 200 113 z "},"":{"ha":1004,"x_min":50,"x_max":553,"o":"m 50 50 q 65 86 50 71 q 100 101 79 101 q 136 86 121 101 q 151 50 151 71 q 136 15 151 29 q 100 0 121 0 q 65 15 79 0 q 50 50 50 29 m 251 50 q 266 86 251 71 q 301 101 281 101 q 338 86 322 101 q 353 50 353 71 q 338 15 353 29 q 301 0 322 0 q 266 15 281 0 q 251 50 251 29 m 451 50 q 466 86 451 71 q 501 101 481 101 q 538 86 522 101 q 553 50 553 71 q 538 15 553 29 q 501 0 522 0 q 466 15 481 0 q 451 50 451 29 z "},"$":{"ha":664,"x_min":40,"x_max":618,"o":"m 308 900 q 313 976 311 963 q 326 1010 315 996 q 358 1025 338 1025 q 388 1013 376 1025 q 400 983 400 1001 q 394 963 400 972 q 392 903 392 949 q 500 844 458 892 q 542 717 542 797 q 540 681 542 703 q 531 638 538 658 q 512 601 524 617 q 481 586 500 586 q 451 599 464 586 q 439 628 439 611 q 449 669 439 647 q 458 718 458 692 q 440 787 458 763 q 389 818 421 811 q 388 709 389 769 q 388 582 388 649 q 411 567 399 575 q 436 553 424 560 q 502 508 469 532 q 560 453 535 483 q 602 384 586 422 q 618 297 618 346 q 600 199 618 244 q 551 117 582 154 q 478 54 519 81 q 392 14 438 28 q 396 -53 394 -40 q 406 -79 406 -65 q 393 -109 406 -97 q 363 -121 381 -121 q 322 -96 338 -121 q 317 -65 319 -89 q 313 0 315 -40 l 297 0 q 190 22 238 0 q 108 83 142 44 q 58 172 75 121 q 40 282 40 224 q 47 342 40 310 q 67 403 53 375 q 103 451 81 432 q 161 471 126 471 q 190 459 178 471 q 203 429 203 447 q 190 401 203 406 q 163 388 178 396 q 136 358 149 379 q 124 282 124 338 q 171 139 124 194 q 310 83 218 83 q 306 266 307 164 q 304 472 304 368 q 232 518 268 496 q 167 566 196 540 q 121 624 139 592 q 103 699 103 656 q 121 775 103 740 q 168 835 139 810 q 234 876 197 860 q 308 900 271 893 m 388 408 q 388 247 388 325 q 390 107 389 169 q 442 171 428 131 q 456 250 456 211 q 437 340 456 301 q 388 408 418 378 m 304 646 q 305 732 304 690 q 306 810 306 774 q 274 774 282 796 q 267 732 267 751 q 304 646 267 683 z "},"":{"ha":700,"x_min":31,"x_max":633,"o":"m 233 431 q 235 375 233 403 q 240 319 236 347 q 326 322 293 319 q 372 326 360 324 q 399 336 382 336 q 428 324 417 336 q 440 293 440 311 q 415 253 440 267 q 387 245 406 249 q 346 240 368 242 q 301 237 324 238 q 258 236 278 236 q 282 178 268 206 q 315 129 296 150 q 358 96 333 108 q 415 83 383 83 q 483 105 457 83 q 524 159 510 126 q 544 229 539 192 q 549 300 549 267 q 560 330 549 318 q 590 342 572 342 q 619 330 607 342 q 632 300 632 318 q 622 191 632 244 q 585 95 611 138 q 515 26 558 53 q 407 0 472 0 q 297 19 346 0 q 209 69 247 38 q 144 146 171 101 q 100 240 117 190 q 77 244 89 242 q 55 252 65 247 q 38 267 44 257 q 31 290 31 276 q 43 319 31 307 q 72 332 56 332 q 81 331 78 332 q 76 370 78 350 q 75 410 75 390 q 75 424 75 417 q 76 439 75 432 q 44 453 58 443 q 31 485 31 464 q 43 514 31 501 q 72 526 56 526 q 86 524 78 526 q 130 662 100 594 q 206 781 160 729 q 314 865 251 833 q 454 896 376 896 q 539 875 504 896 q 594 820 574 854 q 624 743 615 786 q 633 657 633 700 q 631 605 633 640 q 622 533 629 569 q 599 470 614 497 q 561 443 585 443 q 531 456 543 443 q 519 485 519 468 q 520 492 519 489 q 522 500 521 496 q 550 657 550 579 q 547 708 550 681 q 533 758 543 735 q 503 797 522 782 q 454 813 485 813 q 367 785 404 813 q 305 714 331 757 q 264 617 279 671 q 240 514 249 564 q 326 516 293 514 q 372 521 360 518 q 399 531 382 531 q 428 518 417 531 q 440 488 440 506 q 415 447 440 461 q 381 438 404 442 q 330 433 357 435 q 276 431 303 432 q 233 431 250 431 z "},"(":{"ha":393,"x_min":50,"x_max":393,"o":"m 326 901 q 356 889 344 901 q 368 860 368 876 q 356 830 368 842 q 326 818 344 818 q 272 758 299 818 q 227 594 243 697 q 211 372 211 490 q 215 272 211 331 q 228 152 218 213 q 253 38 238 92 q 296 -47 269 -15 q 315 -65 307 -61 q 331 -69 324 -69 q 343 -68 339 -69 q 378 -77 363 -68 q 393 -110 393 -86 q 386 -134 393 -125 q 368 -147 379 -143 q 344 -153 357 -151 q 319 -154 331 -154 q 222 -127 264 -154 q 151 -56 181 -100 q 101 44 121 -11 q 70 158 82 100 q 54 269 58 215 q 50 364 50 324 q 55 462 50 406 q 72 578 60 518 q 103 695 83 638 q 153 799 122 753 q 227 873 185 844 q 326 901 269 901 z "},")":{"ha":390,"x_min":7,"x_max":350,"o":"m 350 364 q 346 269 350 324 q 330 158 342 215 q 299 44 318 100 q 249 -56 279 -11 q 178 -127 219 -100 q 81 -154 136 -154 q 56 -153 69 -154 q 32 -147 43 -151 q 14 -134 21 -143 q 7 -110 7 -125 q 22 -77 7 -86 q 57 -68 38 -68 q 69 -69 61 -69 q 104 -47 85 -72 q 147 38 131 -15 q 173 152 164 92 q 185 272 182 213 q 189 372 189 331 q 173 594 189 490 q 128 758 157 697 q 74 818 101 818 q 44 830 56 818 q 32 860 32 842 q 44 889 32 876 q 74 901 56 901 q 173 873 131 901 q 247 799 215 844 q 297 695 278 753 q 328 578 317 638 q 345 462 340 518 q 350 364 350 406 z "},"[":{"ha":353,"x_min":64,"x_max":353,"o":"m 292 -44 q 307 -42 297 -42 q 337 -53 325 -42 q 349 -83 349 -65 q 329 -117 349 -104 q 283 -137 310 -129 q 231 -147 257 -144 q 190 -150 204 -150 q 120 -133 143 -150 q 88 -97 97 -117 q 74 -40 79 -79 q 67 44 69 0 q 65 132 65 89 q 64 201 64 175 q 65 290 64 238 q 67 403 65 343 q 73 527 69 464 q 82 647 76 590 q 94 747 88 703 q 111 815 101 792 q 143 858 121 840 q 192 885 165 875 q 249 901 219 896 q 304 906 279 906 q 338 896 324 906 q 353 864 353 886 q 340 835 353 847 q 311 822 328 822 q 296 822 304 822 q 279 821 289 821 q 258 818 269 821 q 237 672 247 789 q 221 371 226 556 q 219 288 219 329 q 219 208 219 247 q 219 144 219 175 q 221 85 219 113 q 227 -22 224 10 q 233 -61 231 -53 q 275 -50 256 -57 q 292 -44 283 -47 z "},"]":{"ha":344,"x_min":4,"x_max":293,"o":"m 136 85 q 138 144 138 113 q 138 208 138 175 q 137 288 138 247 q 135 371 136 329 q 120 672 131 556 q 99 818 110 789 q 78 821 88 821 q 63 822 69 821 q 46 822 53 822 q 17 835 29 822 q 4 864 4 847 q 19 896 4 886 q 53 906 33 906 q 108 901 78 906 q 165 885 138 896 q 214 858 192 875 q 246 815 236 840 q 263 747 256 792 q 275 647 269 703 q 284 527 281 590 q 290 403 288 464 q 292 290 292 343 q 293 201 293 238 q 292 132 293 175 q 290 44 292 89 q 283 -40 288 0 q 269 -97 278 -79 q 237 -133 260 -117 q 167 -150 214 -150 q 126 -147 153 -150 q 72 -137 99 -144 q 26 -117 46 -129 q 7 -83 7 -104 q 19 -53 7 -65 q 49 -42 32 -42 q 65 -44 60 -42 q 82 -50 74 -47 q 124 -61 100 -57 q 130 -22 126 -53 q 136 85 133 10 z "},"":{"ha":344,"x_min":36,"x_max":317,"o":"m 179 -183 q 135 -142 179 -142 q 115 -144 124 -142 q 96 -146 107 -146 q 72 -135 82 -146 q 61 -111 61 -125 q 66 -55 61 -83 q 74 1 71 -26 q 85 23 75 14 q 107 32 94 32 q 132 22 122 32 q 142 -3 142 13 q 140 -37 142 -19 q 136 -71 138 -54 q 157 -69 143 -69 q 215 -76 186 -69 q 266 -97 243 -82 q 303 -134 289 -111 q 317 -190 317 -157 q 297 -260 317 -231 q 247 -309 278 -290 q 179 -337 217 -328 q 107 -346 142 -346 q 85 -345 97 -346 q 61 -341 72 -344 q 43 -330 50 -337 q 36 -308 36 -322 q 47 -283 36 -293 q 71 -274 57 -274 q 147 -253 114 -274 q 179 -183 179 -233 z "},"":{"ha":589,"x_min":21,"x_max":579,"o":"m 335 -140 q 315 -143 324 -140 q 296 -146 307 -146 q 272 -135 282 -146 q 261 -111 261 -125 q 265 -51 261 -85 q 272 10 269 -17 q 160 65 208 25 q 82 158 113 104 q 36 278 51 213 q 21 410 21 343 q 44 578 21 492 q 116 735 68 664 q 235 851 164 806 q 400 896 306 896 q 485 875 450 896 q 540 820 519 854 q 570 743 561 786 q 579 657 579 700 q 577 605 579 640 q 567 533 575 569 q 545 470 560 497 q 507 443 531 443 q 477 456 489 443 q 465 485 465 468 q 466 492 465 489 q 468 500 467 496 q 496 657 496 579 q 492 708 496 681 q 478 758 489 735 q 449 797 468 782 q 400 813 431 813 q 324 792 357 813 q 267 738 292 771 q 225 661 242 704 q 198 574 208 618 q 183 487 188 529 q 179 413 179 444 q 187 314 179 371 q 215 206 194 257 q 270 119 235 154 q 361 83 306 83 q 429 105 403 83 q 470 159 456 126 q 490 229 485 192 q 494 300 494 267 q 506 330 494 318 q 536 342 518 342 q 565 330 553 342 q 578 300 578 318 q 567 186 578 240 q 528 90 556 132 q 456 24 501 49 q 342 0 410 0 q 340 -35 342 -15 q 336 -69 338 -56 q 347 -69 342 -69 q 357 -68 351 -68 q 415 -75 386 -68 q 466 -97 443 -82 q 503 -134 489 -111 q 517 -190 517 -157 q 497 -260 517 -231 q 447 -309 478 -290 q 380 -337 417 -328 q 308 -346 343 -346 q 285 -345 297 -346 q 261 -340 272 -344 q 243 -328 250 -336 q 236 -307 236 -321 q 247 -283 236 -293 q 271 -272 257 -272 q 347 -253 314 -272 q 379 -183 379 -233 q 335 -140 379 -140 z "},"":{"ha":421,"x_min":21,"x_max":415,"o":"m 235 368 q 208 345 218 368 q 191 292 197 322 q 182 233 185 263 q 179 192 179 204 q 181 160 179 179 q 188 125 183 142 q 203 96 193 108 q 228 83 213 83 q 268 99 249 83 q 301 136 288 114 q 324 183 315 158 q 332 226 332 208 q 344 256 332 243 q 374 268 357 268 q 403 256 392 268 q 415 226 415 243 q 401 147 415 188 q 360 74 386 106 q 299 21 335 42 q 221 0 263 0 q 218 -35 219 -15 q 214 -71 217 -56 q 225 -69 219 -69 q 236 -69 231 -69 q 292 -76 264 -69 q 344 -97 321 -82 q 381 -134 367 -111 q 394 -190 394 -157 q 375 -260 394 -231 q 325 -309 356 -290 q 258 -337 294 -328 q 186 -346 221 -346 q 163 -345 175 -346 q 140 -341 150 -344 q 122 -330 129 -337 q 115 -308 115 -322 q 125 -283 115 -293 q 150 -274 135 -274 q 226 -253 193 -274 q 258 -183 258 -233 q 214 -142 258 -142 q 194 -144 203 -142 q 175 -146 185 -146 q 150 -135 160 -146 q 140 -111 140 -125 q 144 -50 140 -85 q 151 11 149 -15 q 56 81 90 31 q 21 204 21 132 q 35 293 21 249 q 78 372 50 338 q 144 429 106 407 q 232 451 183 451 q 278 444 256 451 q 318 422 300 436 q 347 387 336 407 q 357 342 357 367 q 344 313 357 325 q 314 300 332 300 q 288 310 299 300 q 274 336 276 321 q 256 364 271 360 q 235 368 242 368 z "},"":{"ha":318,"x_min":31,"x_max":300,"o":"m 240 -256 q 265 -244 251 -244 q 290 -254 281 -244 q 300 -279 300 -264 q 285 -310 300 -297 q 250 -331 271 -322 q 207 -342 229 -339 q 169 -346 185 -346 q 117 -338 143 -346 q 73 -315 92 -331 q 42 -278 54 -300 q 31 -225 31 -256 q 47 -153 31 -190 q 89 -80 64 -115 q 144 -13 114 -44 q 199 40 174 18 q 221 49 207 49 q 246 38 236 49 q 256 14 256 28 q 249 -8 256 3 q 218 -53 235 -28 q 188 -106 201 -78 q 166 -162 175 -135 q 157 -215 157 -190 q 165 -253 157 -233 q 194 -274 172 -274 q 219 -268 204 -274 q 240 -256 233 -262 z "},"":{"ha":433,"x_min":21,"x_max":432,"o":"m 222 83 q 269 96 247 83 q 306 127 290 108 q 333 169 322 146 q 350 214 344 192 q 364 238 353 229 q 390 246 375 246 q 419 234 407 246 q 432 204 432 222 q 427 180 432 194 q 416 151 422 165 q 402 122 410 136 q 390 101 394 108 q 370 74 381 86 q 350 51 360 63 q 319 8 335 33 q 290 -46 303 -18 q 269 -102 278 -74 q 261 -154 261 -131 q 268 -192 261 -172 q 299 -212 275 -212 q 322 -207 308 -212 q 343 -194 336 -201 q 369 -183 354 -183 q 394 -193 385 -183 q 404 -218 404 -203 q 390 -249 404 -236 q 354 -269 375 -261 q 311 -281 333 -278 q 274 -285 289 -285 q 176 -255 218 -285 q 135 -164 135 -225 q 156 -81 135 -124 q 207 0 176 -39 q 71 61 121 7 q 21 203 21 115 q 35 291 21 247 q 76 370 50 335 q 142 428 103 406 q 228 451 181 451 q 276 444 253 451 q 318 422 300 436 q 347 386 336 407 q 358 339 358 365 q 342 280 358 304 q 301 240 326 256 q 246 216 276 224 q 186 208 215 208 l 186 188 q 188 162 186 179 q 192 127 189 144 q 203 97 196 110 q 222 83 210 83 m 275 339 q 264 360 275 351 q 233 368 253 368 q 213 347 222 368 q 199 292 203 325 q 222 294 208 292 q 247 303 235 297 q 267 317 258 308 q 275 339 275 326 z "},"":{"ha":567,"x_min":19,"x_max":585,"o":"m 382 285 q 292 268 338 271 q 200 265 246 265 q 151 266 175 265 q 103 268 126 267 q 112 163 106 219 q 138 60 118 107 q 142 42 142 51 q 129 13 142 25 q 100 0 117 0 q 55 40 71 0 q 31 131 39 79 q 21 232 22 182 q 19 303 19 282 q 24 409 19 347 q 40 538 28 471 q 72 671 51 606 q 126 788 93 736 q 204 872 158 840 q 311 904 250 904 q 408 875 369 904 q 469 797 446 846 q 503 683 492 747 q 519 549 515 619 q 524 408 524 479 q 524 274 524 338 q 528 161 525 211 q 544 83 532 111 q 567 69 558 81 q 575 43 575 58 q 563 14 575 26 q 533 1 550 1 l 531 1 q 501 -44 517 -18 q 472 -97 485 -69 q 450 -153 458 -125 q 442 -204 442 -181 q 449 -242 442 -222 q 479 -262 456 -262 q 503 -257 489 -262 q 525 -244 518 -251 q 550 -233 533 -233 q 575 -243 565 -233 q 585 -268 585 -253 q 570 -299 585 -286 q 535 -319 556 -311 q 492 -331 514 -328 q 454 -335 469 -335 q 357 -305 399 -335 q 315 -214 315 -275 q 328 -150 315 -183 q 363 -85 342 -117 q 409 -23 383 -53 q 460 29 435 7 q 422 83 436 50 q 400 151 408 115 q 388 223 392 188 q 382 285 385 258 m 378 371 q 377 424 378 385 q 375 513 376 463 q 370 617 374 563 q 359 716 367 671 q 340 790 351 761 q 311 819 328 819 q 240 793 271 819 q 186 725 208 767 q 149 631 164 683 q 124 526 133 578 q 110 428 114 475 q 104 353 106 382 q 200 349 153 349 q 242 349 218 349 q 291 352 267 350 q 338 358 315 354 q 378 371 361 363 z "},"":{"ha":490,"x_min":14,"x_max":500,"o":"m 310 454 q 394 438 358 454 q 454 392 431 421 q 489 325 478 364 q 500 240 500 286 q 496 188 500 222 q 483 116 492 153 q 459 49 474 79 q 422 6 444 18 q 393 -39 408 -14 q 365 -90 378 -64 q 344 -144 353 -117 q 336 -193 336 -171 q 344 -231 336 -211 q 374 -251 351 -251 q 399 -246 385 -251 q 419 -233 413 -240 q 446 -222 431 -222 q 470 -232 460 -222 q 481 -257 481 -242 q 466 -287 481 -275 q 431 -308 451 -300 q 388 -320 410 -317 q 350 -324 365 -324 q 297 -316 322 -324 q 253 -293 272 -308 q 222 -256 233 -278 q 210 -203 210 -233 q 223 -140 210 -172 q 257 -76 236 -107 q 303 -15 278 -44 q 351 38 328 14 q 347 64 349 50 q 346 89 346 78 q 347 135 346 113 q 349 181 347 157 q 322 120 338 151 q 283 62 306 89 q 233 17 261 35 q 169 0 206 0 q 57 40 100 0 q 14 150 14 79 q 39 262 14 207 q 105 359 64 317 q 199 428 146 401 q 310 454 253 454 m 339 336 q 330 359 336 347 q 310 371 324 371 q 255 340 282 371 q 207 265 228 308 q 173 179 186 222 q 160 113 160 136 q 161 94 160 106 q 169 83 163 83 q 216 110 194 83 q 254 174 238 138 q 283 248 271 211 q 300 304 294 285 q 339 336 310 333 z "},"":{"ha":574,"x_min":49,"x_max":574,"o":"m 513 128 q 522 131 518 129 q 532 132 526 132 q 561 119 549 132 q 574 90 574 107 q 541 48 574 65 q 465 20 508 31 q 381 5 422 10 q 319 0 339 0 q 178 35 232 0 q 96 128 125 71 q 58 256 67 185 q 49 397 49 326 q 51 465 49 419 q 61 567 54 511 q 79 683 68 624 q 106 792 90 743 q 144 873 122 842 q 196 904 167 904 q 225 895 214 904 q 242 872 236 886 q 249 842 247 858 q 251 813 251 826 q 245 709 251 760 q 232 607 239 658 q 210 417 219 511 q 201 226 201 322 q 205 163 201 190 q 220 119 208 136 q 256 92 232 101 q 319 83 279 83 q 418 96 371 83 q 513 128 465 108 m 472 574 q 455 547 465 558 q 425 535 444 535 q 401 542 413 535 q 386 564 390 550 q 396 606 378 588 q 411 651 404 624 q 423 707 418 678 q 431 765 428 736 q 435 814 433 793 q 432 824 432 819 q 438 856 429 842 q 465 872 447 869 q 497 866 485 872 q 517 838 510 860 q 517 781 521 818 q 507 704 514 744 q 490 628 500 664 q 472 574 481 592 z "},"":{"ha":560,"x_min":26,"x_max":558,"o":"m 240 814 q 224 812 232 814 q 210 803 215 810 q 193 747 199 789 q 185 656 188 704 q 181 562 182 607 q 181 494 181 517 q 237 490 208 492 q 294 489 265 489 q 340 490 314 489 q 383 499 365 492 q 422 526 393 526 q 451 514 439 526 q 464 485 464 501 q 445 440 464 456 q 399 416 426 424 q 344 407 372 408 q 294 406 315 406 q 237 407 265 406 q 181 411 208 408 q 181 347 181 393 q 185 251 182 301 q 192 158 188 201 q 207 100 197 114 q 223 91 211 94 q 249 86 235 88 q 277 84 264 85 q 299 83 290 83 q 345 85 319 83 q 397 92 371 88 q 447 103 422 96 q 489 122 471 111 q 513 129 500 129 q 542 117 529 129 q 554 88 554 106 q 540 58 554 71 q 504 35 526 46 q 474 -10 490 15 q 445 -62 458 -35 q 424 -118 432 -90 q 415 -169 415 -146 q 423 -208 415 -187 q 453 -228 431 -228 q 477 -222 463 -228 q 499 -210 492 -217 q 524 -199 507 -199 q 549 -208 539 -199 q 558 -233 558 -218 q 544 -264 558 -251 q 508 -285 529 -276 q 465 -297 488 -293 q 428 -300 443 -300 q 331 -270 372 -300 q 289 -179 289 -240 q 315 -86 289 -135 q 378 6 342 -37 q 331 1 353 3 q 299 0 310 0 q 249 3 275 0 q 201 13 224 6 q 108 81 143 32 q 56 193 74 131 q 32 322 38 256 q 26 439 26 388 q 31 547 26 485 q 51 670 36 608 q 90 785 65 732 q 156 867 115 839 q 212 891 182 885 q 272 897 242 897 q 351 892 313 897 q 431 888 390 888 q 466 892 454 888 q 485 901 478 896 q 499 911 493 907 q 517 915 506 915 q 546 903 533 915 q 558 874 558 890 q 544 840 558 853 q 509 819 529 826 q 467 808 489 811 q 429 804 444 804 q 340 809 385 804 q 249 814 294 814 l 240 814 z "},"":{"ha":614,"x_min":28,"x_max":647,"o":"m 268 863 q 281 892 268 881 q 310 904 293 904 q 379 872 350 904 q 427 788 408 839 q 457 673 446 736 q 474 550 468 610 q 482 440 481 490 q 483 364 483 390 q 483 307 483 344 q 478 225 482 269 q 468 134 475 181 q 447 49 461 88 q 412 -13 433 11 q 360 -37 390 -37 q 327 -22 336 -37 q 318 13 318 -7 q 320 23 319 18 q 322 35 321 28 q 240 1 288 1 q 156 16 194 1 q 88 58 117 31 q 44 122 60 85 q 28 206 28 160 q 46 295 28 254 q 95 365 64 336 q 169 411 126 394 q 260 428 211 428 q 290 424 274 428 q 324 410 306 421 q 314 542 319 476 q 301 665 308 607 q 286 772 294 724 q 269 851 278 821 q 268 863 268 856 m 301 151 q 315 161 306 161 q 323 160 318 161 q 329 153 328 158 l 329 193 l 329 250 q 328 256 328 251 q 321 279 326 264 q 306 309 315 294 q 286 334 297 324 q 260 344 275 344 q 233 333 246 344 q 210 300 219 321 q 194 252 200 279 q 189 194 189 225 q 191 167 189 185 q 198 131 193 149 q 213 99 203 113 q 238 85 222 86 q 261 93 250 85 q 281 112 272 101 q 294 134 289 122 q 301 151 300 146 m 513 564 q 522 606 506 588 q 538 651 531 624 q 549 707 544 678 q 558 765 554 736 q 563 814 561 793 q 558 824 558 818 q 565 856 556 842 q 592 872 575 869 q 624 867 611 872 q 643 838 636 861 q 644 781 647 818 q 634 704 642 744 q 617 628 626 664 q 600 574 608 592 q 582 547 593 558 q 553 535 571 535 q 528 542 539 535 q 513 564 517 550 z "},"":{"ha":390,"x_min":7,"x_max":401,"o":"m 179 0 q 156 6 171 0 q 131 35 142 11 q 110 110 118 60 q 97 215 103 160 q 90 323 92 271 q 86 404 88 375 l 51 403 q 22 414 33 403 q 8 442 10 425 q 19 472 7 460 q 49 486 31 485 l 83 488 q 85 628 83 558 q 97 768 86 697 q 104 810 100 786 q 117 855 108 833 q 141 892 126 876 q 179 907 156 907 q 217 888 207 907 q 231 846 228 868 q 239 768 235 815 q 243 533 243 681 l 243 494 l 292 497 q 322 487 310 499 q 336 457 335 475 q 325 428 336 440 q 296 414 314 415 l 243 411 q 240 301 242 354 q 236 200 239 247 q 233 133 235 163 q 229 82 232 104 q 225 46 226 57 q 211 14 222 28 q 179 0 200 0 m 267 564 q 266 586 263 575 q 276 606 269 597 q 292 651 285 624 q 303 707 299 678 q 311 765 308 736 q 315 814 314 793 q 313 824 313 819 q 319 856 310 842 q 346 872 329 869 q 378 867 365 872 q 397 838 390 861 q 399 781 401 818 q 388 704 396 744 q 371 628 381 664 q 353 574 361 592 q 335 547 346 558 q 307 535 325 535 q 282 542 293 535 q 267 564 271 550 z "},"":{"ha":329,"x_min":26,"x_max":353,"o":"m 26 501 q 31 643 26 576 q 42 758 35 710 q 50 801 44 776 q 65 849 56 826 q 91 887 75 871 q 132 903 107 903 q 167 883 156 903 q 176 826 172 875 q 182 707 179 778 q 186 554 185 636 q 188 398 188 472 q 190 267 189 324 q 190 193 190 211 q 190 138 190 165 q 189 83 190 111 q 185 41 188 53 q 179 22 183 29 q 142 0 165 0 q 119 5 133 0 q 92 28 106 10 q 56 121 69 57 q 37 256 43 185 q 28 396 31 328 q 26 501 26 464 m 218 564 q 228 606 210 588 q 243 651 236 624 q 255 707 250 678 q 263 765 260 736 q 267 814 265 793 q 264 824 264 819 q 271 856 261 842 q 297 872 281 869 q 329 867 317 872 q 349 838 342 861 q 350 781 353 818 q 340 704 347 744 q 322 628 332 664 q 304 574 313 592 q 287 547 297 558 q 257 535 276 535 q 233 542 244 535 q 218 564 222 550 z "},"":{"ha":604,"x_min":14,"x_max":592,"o":"m 240 732 q 255 677 240 701 q 293 632 269 653 q 347 592 317 611 q 410 553 378 572 q 476 508 443 532 q 534 453 508 483 q 576 384 560 422 q 592 296 592 346 q 564 176 592 231 q 491 83 536 122 q 388 22 446 43 q 271 0 331 0 q 163 22 211 0 q 82 83 115 44 q 31 172 49 121 q 14 282 14 224 q 20 342 14 310 q 40 403 26 375 q 77 451 54 432 q 135 471 100 471 q 164 459 151 471 q 176 429 176 447 q 164 401 176 406 q 137 388 151 396 q 110 358 122 379 q 97 282 97 338 q 108 206 97 242 q 142 142 119 169 q 198 99 164 115 q 276 83 232 83 q 351 99 322 83 q 398 140 381 115 q 422 193 415 164 q 429 250 429 222 q 394 369 429 322 q 310 451 358 417 q 231 503 272 479 q 155 556 189 528 q 99 617 121 583 q 76 699 76 651 q 100 786 76 747 q 161 851 124 825 q 244 892 199 878 q 331 906 289 906 q 463 856 411 906 q 515 717 515 807 q 513 681 515 703 q 504 638 511 658 q 485 601 497 617 q 454 586 474 586 q 425 599 438 586 q 413 628 413 611 q 422 669 413 647 q 432 718 432 692 q 404 797 432 772 q 332 822 376 822 q 286 813 304 822 q 258 790 268 804 q 244 760 247 776 q 240 732 240 744 m 224 -278 q 239 -233 232 -260 q 251 -176 246 -206 q 258 -119 256 -147 q 263 -71 261 -92 q 258 -53 258 -62 q 271 -23 258 -35 q 300 -11 283 -11 q 335 -28 324 -11 q 346 -65 347 -44 q 342 -131 346 -85 q 328 -226 338 -178 q 301 -312 318 -275 q 254 -349 283 -349 q 224 -337 236 -349 q 213 -307 213 -325 q 224 -278 213 -292 z "},"":{"ha":408,"x_min":14,"x_max":396,"o":"m 238 131 q 215 189 238 171 q 151 225 192 207 q 115 242 133 233 q 83 264 97 251 q 60 293 69 276 q 51 332 51 310 q 70 387 51 364 q 116 425 89 410 q 175 447 143 440 q 233 454 207 454 q 316 425 282 454 q 350 347 350 396 q 338 318 350 331 q 308 306 325 306 q 278 318 290 306 q 267 347 267 331 q 259 364 267 357 q 242 371 251 371 q 222 363 231 371 q 213 340 213 354 q 241 304 213 317 q 304 274 269 292 q 367 226 339 256 q 396 136 396 196 q 376 74 396 100 q 327 32 357 49 q 263 8 297 15 q 199 0 228 0 q 124 16 158 0 q 66 58 90 32 q 28 120 42 85 q 14 194 14 156 q 26 224 14 213 q 56 236 38 236 q 85 224 74 236 q 97 194 97 213 q 108 141 97 163 q 133 107 118 119 q 166 89 149 94 q 196 83 183 83 q 229 97 221 83 q 238 131 238 111 m 250 -65 q 246 -131 250 -85 q 232 -226 242 -178 q 205 -312 222 -275 q 158 -349 188 -349 q 128 -337 140 -349 q 117 -307 117 -325 q 128 -278 117 -292 q 143 -233 136 -260 q 155 -176 150 -206 q 163 -119 160 -147 q 167 -71 165 -92 q 163 -53 163 -62 q 175 -23 163 -35 q 204 -11 188 -11 q 240 -28 228 -11 q 250 -65 251 -44 z "},"":{"ha":488,"x_min":7,"x_max":481,"o":"m 225 881 q 308 899 267 890 q 392 907 350 907 q 452 893 424 907 q 481 843 481 879 q 468 813 481 825 q 439 801 456 801 q 401 824 415 801 l 392 824 q 341 819 365 824 q 292 810 317 815 q 294 715 299 765 q 286 619 289 664 q 278 419 282 519 q 274 218 274 319 q 278 130 274 174 q 282 42 282 86 q 269 13 282 25 q 240 0 257 0 q 192 20 211 0 q 160 72 172 40 q 141 142 147 103 q 131 220 135 182 q 128 291 128 258 q 128 343 128 324 q 131 448 128 388 q 140 571 133 508 q 157 692 146 633 q 185 789 168 750 q 132 778 158 783 q 78 774 106 774 q 29 786 51 774 q 7 828 7 799 q 19 857 7 844 q 49 869 32 869 q 79 857 67 869 q 152 865 115 858 q 225 881 189 872 m 160 -278 q 174 -233 168 -260 q 185 -176 181 -206 q 194 -119 190 -147 q 199 -71 197 -92 q 194 -53 194 -62 q 207 -23 194 -35 q 236 -11 219 -11 q 271 -28 260 -11 q 282 -65 282 -44 q 280 -103 282 -78 q 274 -161 278 -129 q 264 -226 271 -193 q 247 -286 257 -258 q 223 -331 238 -314 q 190 -349 208 -349 q 160 -337 172 -349 q 149 -307 149 -325 q 160 -278 149 -292 z "},"":{"ha":310,"x_min":-10,"x_max":319,"o":"m 81 768 q 88 810 83 786 q 101 855 92 833 q 124 892 110 876 q 163 907 139 907 q 201 888 190 907 q 214 846 211 868 q 222 768 218 815 q 226 533 226 681 l 226 494 l 275 497 q 306 487 293 499 q 319 457 318 475 q 308 428 319 440 q 279 414 297 415 l 226 411 q 224 301 225 354 q 219 200 222 247 q 217 133 218 163 q 213 82 215 104 q 208 46 210 57 q 194 14 206 28 q 163 0 183 0 q 140 6 154 0 q 114 35 125 11 q 94 110 101 60 q 81 215 86 160 q 73 323 75 271 q 69 404 71 375 l 35 403 q 5 414 17 403 q -8 442 -7 425 q 2 472 -10 460 q 32 486 14 485 l 67 488 q 68 628 67 558 q 81 768 69 697 m 89 -278 q 103 -233 97 -260 q 115 -176 110 -206 q 122 -119 119 -147 q 126 -71 125 -92 q 122 -53 122 -62 q 135 -23 122 -35 q 165 -11 147 -11 q 200 -28 189 -11 q 210 -65 211 -44 q 206 -131 210 -85 q 193 -226 203 -178 q 165 -312 183 -275 q 118 -349 147 -349 q 89 -337 101 -349 q 76 -307 76 -325 q 89 -278 76 -290 z "},"":{"ha":192,"x_min":18,"x_max":182,"o":"m 133 0 q 76 26 99 0 q 41 90 54 53 q 23 167 28 128 q 18 233 18 207 q 23 290 18 260 q 40 347 28 321 q 74 392 53 374 q 129 410 96 410 q 161 396 147 410 q 177 363 172 386 q 182 278 182 339 q 181 206 182 247 q 176 110 179 165 q 176 69 176 88 q 175 42 175 51 q 163 12 175 24 q 133 0 150 0 z "},"":{"ha":210,"x_min":0,"x_max":193,"o":"m 115 0 q 58 26 81 0 q 23 90 36 53 q 5 167 10 128 q 0 233 0 207 q 5 290 0 260 q 22 347 10 321 q 56 392 35 374 q 111 410 78 410 q 143 396 129 410 q 159 363 154 386 q 164 278 164 339 q 163 206 164 247 q 158 110 161 165 q 158 69 158 88 q 157 42 157 51 q 144 12 157 24 q 115 0 132 0 m 79 457 q 65 479 67 465 q 71 506 63 493 q 85 527 78 514 q 101 554 93 540 q 114 582 108 568 q 121 606 119 596 q 135 627 125 621 q 161 633 146 633 q 185 619 176 631 q 190 593 193 607 q 180 558 189 582 q 158 510 171 535 q 129 468 144 486 q 99 450 114 450 q 79 457 89 450 z "},"":{"ha":157,"x_min":-33,"x_max":183,"o":"m 92 0 q 35 26 57 0 q -1 90 13 53 q -19 167 -14 128 q -24 233 -24 207 q -19 290 -24 260 q -1 347 -14 321 q 33 392 11 374 q 88 410 54 410 q 119 396 106 410 q 135 363 131 386 q 140 278 140 339 q 139 206 140 247 q 135 110 138 165 q 134 69 135 88 q 133 42 133 51 q 121 12 133 24 q 92 0 108 0 m 146 447 q 115 467 124 447 q 95 500 106 483 q 78 526 85 517 q 56 501 68 517 q 32 468 43 485 q 3 453 21 453 q -17 458 -6 453 q -31 481 -28 467 q -26 507 -33 494 q -16 522 -25 508 q 6 550 -7 535 q 45 590 28 578 q 79 603 63 603 q 110 591 94 603 q 138 563 125 579 q 160 529 150 547 q 176 499 171 511 q 179 472 183 486 q 163 451 175 458 q 146 447 154 447 z "},"":{"ha":192,"x_min":18,"x_max":182,"o":"m 161 396 q 177 363 172 386 q 182 278 182 339 q 181 206 182 247 q 176 110 179 165 q 176 69 176 88 q 175 42 175 51 q 163 12 175 24 q 133 0 150 0 q 76 26 99 0 q 41 90 54 53 q 23 167 28 128 q 18 233 18 207 q 23 290 18 260 q 40 347 28 321 q 74 392 53 374 q 129 410 96 410 q 161 396 147 410 m 144 504 q 151 478 153 493 q 138 456 149 464 q 117 450 128 450 q 86 468 101 450 q 58 510 71 486 q 36 558 44 535 q 25 592 28 582 q 31 618 22 607 q 54 632 39 629 q 80 627 69 632 q 94 604 90 622 q 101 581 96 594 q 115 553 107 567 q 131 526 122 539 q 144 504 139 513 z "},"":{"ha":224,"x_min":-15,"x_max":239,"o":"m 129 0 q 72 26 94 0 q 37 90 50 53 q 19 167 24 128 q 14 233 14 207 q 19 290 14 260 q 36 347 24 321 q 70 392 49 374 q 125 410 92 410 q 157 396 143 410 q 173 363 168 386 q 178 278 178 339 q 176 206 178 247 q 172 110 175 165 q 172 69 172 88 q 171 42 171 51 q 158 12 171 24 q 129 0 146 0 m 188 450 q 152 465 167 450 q 138 500 138 479 q 152 536 138 521 q 188 551 167 551 q 224 536 208 551 q 239 500 239 521 q 224 465 239 479 q 188 450 208 450 m 35 450 q -1 465 14 450 q -15 500 -15 479 q -1 536 -15 521 q 35 551 14 551 q 71 536 56 551 q 86 500 86 521 q 71 465 86 479 q 35 450 56 450 z "},"":{"ha":664,"x_min":17,"x_max":644,"o":"m 319 900 q 429 879 382 900 q 440 881 433 881 q 479 853 469 881 q 555 779 524 824 q 606 682 586 735 q 635 572 625 629 q 644 461 644 515 q 638 365 644 417 q 615 261 631 313 q 576 163 600 210 q 517 79 551 115 q 439 22 483 43 q 339 0 394 0 q 267 8 300 0 q 243 1 256 1 q 217 10 228 1 q 203 33 206 19 q 119 103 154 60 q 60 200 83 147 q 27 311 38 253 q 17 426 17 369 q 31 559 17 490 q 77 687 46 628 q 158 789 108 746 q 279 846 208 832 q 286 883 272 865 q 319 900 300 900 m 307 89 q 339 83 319 83 q 444 124 401 83 q 513 224 486 165 q 550 347 539 282 q 561 461 561 413 q 556 537 561 497 q 541 615 551 576 q 513 688 531 653 q 469 751 494 724 q 455 674 464 717 q 436 587 446 632 q 416 495 426 542 q 394 406 406 449 q 355 247 375 326 q 307 89 335 167 m 356 814 q 355 796 358 804 q 344 782 351 788 q 328 773 338 776 q 313 768 319 769 q 242 717 269 756 q 200 628 215 678 q 180 527 185 579 q 175 436 175 475 q 178 374 175 411 q 188 298 181 338 q 208 219 196 258 q 240 149 221 179 q 283 302 260 211 q 328 487 307 393 q 367 667 350 581 q 393 804 385 753 q 375 809 385 807 q 356 814 365 811 z "},"":{"ha":432,"x_min":21,"x_max":414,"o":"m 192 424 q 206 448 194 439 q 233 457 218 457 q 247 457 240 457 q 260 456 253 457 q 264 485 264 472 q 278 513 265 501 q 306 524 290 524 q 336 510 325 524 q 347 478 347 496 q 344 451 346 465 q 340 421 343 436 q 395 340 376 389 q 414 238 414 290 q 404 158 414 200 q 374 81 394 117 q 321 23 353 46 q 244 0 289 0 q 231 0 238 0 q 217 1 224 0 q 201 -30 208 -15 q 186 -57 193 -44 q 150 -76 174 -76 q 121 -64 133 -76 q 108 -35 108 -51 q 115 -12 108 -24 q 124 4 119 -6 q 135 25 129 14 q 51 102 82 53 q 21 218 21 151 q 33 292 21 257 q 68 354 46 326 q 122 400 90 382 q 192 424 153 418 m 250 83 q 283 100 268 86 q 308 135 297 114 q 324 184 318 157 q 331 238 331 211 q 317 313 331 276 q 287 195 304 254 q 250 83 269 136 m 189 172 q 215 259 203 215 q 238 344 226 303 q 210 331 221 344 q 194 298 200 317 q 187 259 189 279 q 185 226 185 239 q 189 172 185 200 z "}}}
